<?xml version="1.0" encoding="UTF-8" standalone="no"?>
<!-- Created with Inkscape (http://www.inkscape.org/) -->

<svg
   width="210mm"
   height="297mm"
   viewBox="0 0 210 297"
   version="1.1"
   id="svg1"
   xml:space="preserve"
   sodipodi:docname="wave-fit FINAL1.svg"
   inkscape:version="1.4.2 (f4327f4, 2025-05-13)"
   xmlns:inkscape="http://www.inkscape.org/namespaces/inkscape"
   xmlns:sodipodi="http://sodipodi.sourceforge.net/DTD/sodipodi-0.dtd"
   xmlns="http://www.w3.org/2000/svg"
   xmlns:svg="http://www.w3.org/2000/svg"><sodipodi:namedview
     id="namedview1"
     pagecolor="#505050"
     bordercolor="#eeeeee"
     borderopacity="1"
     inkscape:showpageshadow="0"
     inkscape:pageopacity="0"
     inkscape:pagecheckerboard="0"
     inkscape:deskcolor="#505050"
     inkscape:document-units="mm"
     inkscape:zoom="0.5"
     inkscape:cx="127"
     inkscape:cy="579"
     inkscape:window-width="1920"
     inkscape:window-height="1009"
     inkscape:window-x="-8"
     inkscape:window-y="-8"
     inkscape:window-maximized="1"
     inkscape:current-layer="g1" /><defs
     id="defs1"><linearGradient
       id="swatch6"
       inkscape:swatch="solid"><stop
         style="stop-color:#000000;stop-opacity:0.65148064;"
         offset="0"
         id="stop6" /></linearGradient></defs><g
     inkscape:label="Capa 1"
     inkscape:groupmode="layer"
     id="layer1"><g
       id="g1"
       transform="matrix(0.26458333,0,0,0.26458333,-31.22464,-58.273909)"><path
         d="m 0,0 c 337.92,0 675.84,0 1024,0 0,506.88 0,1013.76 0,1536 -337.92,0 -675.84,0 -1024,0 C 0,1029.12 0,522.24 0,0 Z"
         fill="#fcfaf6"
         id="path1"
         style="fill:#fcfaf6;fill-opacity:0;stroke-width:1.00157481;stroke-dasharray:none" /><path
         d="M 0,0 C 0.33,0.66 0.66,1.32 1,2 0.17757813,2.5942578 -0.64484375,3.1885156 -1.4921875,3.8007813 -18.505943,16.328067 -30.343649,32.367101 -38,52 c -0.258296,0.648721 -0.516592,1.297441 -0.782715,1.96582 C -46.573968,74.572359 -46.289622,103.61561 -38,124 c 0.3271,0.80454 0.654199,1.60907 0.991211,2.43799 C -32.809127,136.44738 -27.965584,145.61934 -21,154 c 0.687151,0.84087 0.687151,0.84087 1.388184,1.69873 1.525055,1.86098 3.064526,3.70875 4.611816,5.55127 0.474133,0.56695 0.948267,1.13389 1.436768,1.71802 C -0.13403433,178.58564 18.240367,189.99306 36,200 c 0.791646,0.45004 1.583291,0.90009 2.398926,1.36377 C 55.303791,210.89401 72.991452,218.00042 92,222 c 0.926836,0.2243 1.853672,0.44859 2.808594,0.67969 7.077756,1.49978 14.172786,1.52462 21.378906,1.57031 1.53334,0.014 1.53334,0.014 3.09766,0.0283 10.54826,0.15336 10.54826,0.15336 19.83984,-4.02832 1.23026,-3.16352 0.91896,-5.04854 -0.125,-8.25 -2.85922,-1.81492 -5.72902,-2.49071 -9.02344,-3.15625 C 103.22154,203.19735 78.223111,194.74184 54,182 53.177095,181.56736 52.354189,181.13472 51.506348,180.68896 43.924796,176.65595 36.685248,172.43176 30,167 c 1,-3 1,-3 2.635498,-4.02393 0.701653,-0.30405 1.403306,-0.60811 2.126221,-0.92138 0.78238,-0.34998 1.56476,-0.69996 2.370849,-1.06055 1.264692,-0.55397 1.264692,-0.55397 2.554932,-1.11914 16.348451,-7.45713 30.801297,-17.57578 44.023437,-29.76953 2.018176,-1.85631 4.07499,-3.64269 6.164063,-5.41797 3.484782,-3.02201 6.707757,-6.27384 9.9375,-9.5625 5.41233,-5.47592 11.06611,-10.44102 17.1875,-15.125 0.52288,-0.404604 1.04575,-0.809209 1.58447,-1.226074 C 136.38583,85.103617 160.98702,72.37896 184,73 c -2.76979,3.408215 -5.4027,6.532549 -8.875,9.25 -10.78014,8.663619 -18.34478,24.21443 -20.125,37.75 -1.53868,20.21549 2.52334,36.75382 15.76172,52.53516 28.13965,30.98799 74.55705,43.67391 115.07297,45.65207 8.98441,0.29024 17.97086,0.37052 26.95938,0.42404 5.71951,0.0366 11.43882,0.0968 17.15811,0.15849 1.98155,0.019 3.96317,0.0303 5.94478,0.0414 1.18376,0.0103 2.36753,0.0205 3.58717,0.0311 1.04458,0.006 2.08916,0.013 3.16539,0.0197 C 345,219 345,219 346,220 c 0.10499,1.72273 0.13965,3.44977 0.14717,5.17567 0.0107,1.68387 0.0107,1.68387 0.0217,3.40175 0.004,1.86446 0.004,1.86446 0.008,3.76657 0.01,1.9514 0.01,1.9514 0.0199,3.94222 0.0211,4.33297 0.0314,8.66594 0.0414,12.99895 0.004,1.49448 0.008,2.98897 0.0124,4.48345 0.0191,7.0341 0.0333,14.06819 0.0416,21.10231 0.01,8.09186 0.0359,16.18344 0.0765,24.2752 0.0303,6.26688 0.045,12.53369 0.0483,18.80065 0.002,3.73528 0.0111,7.47027 0.0365,11.20547 0.16736,25.97807 -1.68659,46.28199 -20.20349,65.97276 -12.31552,11.89004 -29.12943,18.22241 -46.13704,18.13227 -1.2772,0.005 -1.2772,0.005 -2.5802,0.0106 -2.84249,0.009 -5.68478,0.004 -8.52728,-4.6e-4 -2.06289,0.004 -4.12578,0.008 -6.18867,0.0137 -5.66098,0.0122 -11.3219,0.012 -16.98289,0.01 -6.1086,-4.1e-4 -12.21718,0.0106 -18.32577,0.0201 -11.96569,0.0166 -23.93136,0.0221 -35.89705,0.0232 -9.72839,9.2e-4 -19.45678,0.005 -29.18516,0.0114 -2.80251,0.002 -5.60502,0.004 -8.40752,0.005 -0.69676,4.4e-4 -1.39352,8.8e-4 -2.1114,10e-4 -19.59469,0.0123 -39.18938,0.0202 -58.784073,0.0193 -1.107773,-5e-5 -1.107773,-5e-5 -2.237926,-9e-5 -3.742906,-1.7e-4 -7.485812,-3.7e-4 -11.228719,-5.7e-4 -0.743322,-4e-5 -1.486645,-8e-5 -2.252492,-1.2e-4 -1.50318,-8e-5 -3.00636,-1.7e-4 -4.50954,-2.5e-4 -23.377135,-10e-4 -46.754212,0.0138 -70.1313305,0.0411 -26.2793555,0.0307 -52.5586715,0.0479 -78.8380465,0.0461 -2.804706,-1.4e-4 -5.609412,-2.4e-4 -8.414118,-3e-4 -1.035842,-4e-5 -1.035842,-4e-5 -2.09261,-7e-5 -11.092066,-7e-5 -22.184085,0.0127 -33.276135,0.0299 -11.15758,0.017 -22.31509,0.0186 -33.47269,0.006 -6.03943,-0.007 -12.07868,-0.007 -18.1181,0.0107 -5.53643,0.0158 -11.07255,0.0128 -16.60898,-0.005 -1.99529,-0.003 -3.99061,5.3e-4 -5.98587,0.0117 -20.87741,0.10925 -39.12257,-3.23036 -54.74936,-18.27652 -0.72832,-0.73734 -1.45664,-1.47468 -2.20703,-2.23437 -0.63551,-0.61359 -1.27102,-1.22719 -1.92578,-1.85938 -14.02158,-14.5501 -15.53478,-33.25445 -15.4148,-52.33325 8.5e-4,-1.90337 3.7e-4,-3.80674 -0.001,-5.71011 -8.6e-4,-5.12932 0.0167,-10.25843 0.0377,-15.3877 0.0188,-5.37446 0.0205,-10.74893 0.0241,-16.12342 0.009,-10.16046 0.0339,-20.32082 0.064,-30.48123 0.0336,-11.57443 0.05,-23.14887 0.0651,-34.72334 0.0313,-23.79391 0.084,-47.58773 0.15097,-71.38157 3.10434,-1.04718 6.19207,-2.05379 9.34766,-2.9375 24.61901,-7.0414 47.05854,-20.38718 65.99243,-37.55933 1.26971,-1.14981 2.54943,-2.28859 3.83349,-3.42236 6.21425,-5.51466 12.16294,-11.26189 18.02295,-17.14697 1.49652,-1.50191 2.99835,-2.99835 4.50074,-4.494387 4.01584,-4.01328 8.01299,-8.016218 11.70117,-12.337891 4.64261,-5.418809 9.7468,-10.395705 14.79858,-15.428955 1.73692,-1.731554 3.46842,-3.468391 5.19946,-5.20581 C -128.90349,60.763195 -123.15422,55.217374 -117,50 c 0.95262,-0.857227 1.90523,-1.714453 2.88672,-2.597656 C -81.98395,19.12674 -42.657156,2.6144709 0,0 Z"
         fill="#fcfaf6"
         transform="translate(473,542)"
         id="path2"
         style="fill:#fcfaf6;fill-opacity:0;stroke-width:1.00157481;stroke-dasharray:none" /><path
         d="m 0,0 c 2.0521334,-0.00346167 4.1042649,-0.00822965 6.1563926,-0.01418173 5.6079734,-0.01246956 11.2157934,-0.006358 16.8237674,0.0029587 6.060076,0.00680676 12.120125,-0.0036988 18.180195,-0.01193976 11.174861,-0.0125532 22.349674,-0.01148785 33.524535,-0.0032656 10.325109,0.0075593 20.650201,0.0095109 30.97531,0.0059321 1.02903,-3.4373e-4 1.02903,-3.4373e-4 2.07885,-6.9441e-4 2.78508,-9.3408e-4 5.57016,-0.0018893 8.35523,-0.0028793 26.10352,-0.0091683 52.207,-8.7052e-4 78.31052,0.01529069 23.16981,0.01423585 46.33957,0.01296192 69.50938,-0.00138297 26.05707,-0.0160787 52.11412,-0.02242565 78.17119,-0.01316321 2.77988,9.6209e-4 5.55976,0.0019006 8.33963,0.0028292 0.68443,2.3723e-4 1.36886,4.7447e-4 2.07404,7.1889e-4 10.3163,0.0034063 20.63258,-5.67e-4 30.94888,-0.0081575 11.7351,-0.0085916 23.47014,-0.0061161 35.20523,0.0098422 5.98451,0.0078707 11.96891,0.01099478 17.95341,0.0010525 5.48367,-0.0089722 10.96714,-0.0039724 16.45078,0.01193265 1.97828,0.0033371 3.95658,0.00167802 5.93485,-0.00562736 22.7334,-0.07747716 41.23165,4.44757361 58.4176,20.19637291 17.81352,18.335533 18.74435,40.892471 18.61173,64.977886 -0.0154,3.606458 -0.007,7.212879 -0.002,10.819356 0.006,7.03946 -0.009,14.07872 -0.0307,21.11814 -0.0248,8.20058 -0.0276,16.40112 -0.0294,24.60174 -0.004,14.62267 -0.0263,29.24525 -0.0598,43.86789 -0.0325,14.19206 -0.0537,28.38407 -0.0615,42.57617 -7.3e-4,1.31459 -7.3e-4,1.31459 -10e-4,2.65574 -0.002,3.52265 -0.004,7.0453 -0.006,10.56795 -0.008,13.53371 -0.0231,27.06741 -0.0405,40.60111 -0.005,4.08858 -0.0102,8.17717 -0.0144,12.26576 -0.009,8.58747 -0.0206,17.17492 -0.0416,25.76237 -0.009,3.55053 -0.0157,7.10104 -0.0185,10.65158 -0.003,3.83925 -0.014,7.67846 -0.0259,11.51769 1.9e-4,1.134 3.7e-4,2.26801 5.6e-4,3.43637 -0.004,1.01973 -0.009,2.03946 -0.0135,3.09008 -0.002,0.88709 -0.004,1.77418 -0.005,2.68814 -0.1288,1.99734 -0.1288,1.99734 -1.1288,2.99734 -2.06645,0.11008 -4.1367,0.14914 -6.20605,0.16113 -0.64917,0.005 -1.29833,0.01 -1.96717,0.015 -2.16622,0.0147 -4.33238,0.0214 -6.49865,0.0269 -0.74515,0.003 -1.4903,0.006 -2.25804,0.009 -3.9664,0.015 -7.93276,0.0242 -11.89919,0.0285 -3.24491,0.004 -6.48954,0.018 -9.73437,0.041 -39.14183,0.27177 -81.29777,-2.97242 -111.47168,-31.17969 -10.29512,-11.01147 -13.51801,-21.87847 -13.23047,-36.67968 0.6029,-13.77217 7.64975,-25.43175 17.51562,-34.73438 12.76635,-10.48743 26.55343,-16.55422 42.98438,-18.23047 2.90037,-0.20354 2.90037,-0.20354 4.76562,-2.45703 0.10608,-3.81869 -1.07253,-5.07759 -3.6875,-7.875 -14.39071,-11.4829 -32.56707,-15.49947 -50.54248,-15.44067 -2.00282,0.003 -4.00562,-0.0211 -6.0083,-0.0457 -8.95541,-0.004 -17.10158,1.10562 -25.76172,3.36133 -1.15629,0.29814 -1.15629,0.29814 -2.33593,0.6023 -29.38576,8.03516 -58.83,25.73558 -78.25391,49.49926 -1.99817,2.40298 -3.89679,4.34894 -6.28516,6.33594 -2.57881,2.19128 -4.98766,4.41748 -7.3125,6.875 -14.91216,15.08124 -35.76375,28.12616 -56.8125,31.6875 -3.25743,-0.17417 -4.52596,-0.57421 -6.95703,-2.75781 -8.95472,-11.42433 -14.70636,-23.12287 -18.04297,-37.24219 -0.17434,-0.60658 -0.34869,-1.21317 -0.52832,-1.83813 -3.06035,-14.02663 -1.17331,-30.72201 3.52832,-44.16187 0.35063,-1.04801 0.70125,-2.09601 1.0625,-3.17578 8.19811,-21.94702 26.31874,-38.42884 47.15625,-48.14063 8.45877,-3.81023 16.70041,-6.26603 25.8125,-8.07031 3.00559,-0.56013 3.00559,-0.56013 5.96875,-1.61328 0.32115,-3.61841 0.32115,-3.61841 -1.25781,-6.77344 -9.68868,-8.31037 -21.43965,-13.1798 -33.74219,-16.22656 -0.6484,-0.17733 -1.29679,-0.35465 -1.96484,-0.53735 -7.93649,-1.91839 -15.92064,-1.79978 -24.03613,-1.77832 -2.46629,0.003 -4.93133,-0.0203 -7.39746,-0.0457 -14.86823,-0.0603 -29.15319,2.02996 -43.47657,6.04883 -0.91217,0.25346 -1.82434,0.50692 -2.76416,0.76807 -15.46819,4.4496 -30.22681,10.87833 -44.360837,18.54443 -0.595225,0.31985 -1.19045,0.6397 -1.803711,0.96924 -16.299259,8.89091 -31.191497,20.67732 -44.559571,33.50732 -2.161296,2.06844 -4.353669,4.03094 -6.636718,5.96094 -7.87366,6.8205 -15.27416,14.37121 -22.023438,22.30078 -4.550938,5.2075 -9.352473,10.19492 -14.0830078,15.23877 -1.8935738,2.02297 -3.781232,4.05129 -5.6669922,6.08154 -0.6141577,0.66057 -1.2283154,1.32113 -1.8610839,2.00171 -1.16187204,1.24998 -2.32290727,2.50073 -3.4829102,3.75245 -6.312156,6.78147 -12.8310089,13.17767 -19.8825679,19.18725 -0.873985,0.76313 -1.747969,1.52625 -2.648438,2.3125 -14.376789,12.33398 -32.473937,25.77009 -51.351562,29.6875 -0.99,-0.33 -1.98,-0.66 -3,-1 -0.06851,-30.87988 -0.121567,-61.75975 -0.153196,-92.63969 -0.0038,-3.64972 -0.0076,-7.29945 -0.0116,-10.94918 -7.87e-4,-0.72656 -0.0016,-1.45312 -0.0024,-2.2017 -0.01304,-11.74806 -0.03668,-23.49608 -0.06428,-35.24412 -0.0281,-12.06406 -0.04473,-24.12811 -0.05081,-36.19221 -0.0037,-6.77222 -0.01269,-13.54435 -0.03493,-20.31653 -0.02042,-6.379148 -0.02663,-12.758151 -0.02213,-19.137325 -8.22e-4,-2.3364 -0.0068,-4.672806 -0.01829,-7.009178 -0.101846,-21.694988 2.690615,-39.927023 18.357617,-56.310066 5.304552,-5.161186 11.225535,-8.907132 17.75,-12.3125001 0.606503,-0.3256494 1.213007,-0.6512988 1.83789,-0.9868164 C -27.979729,-0.30019955 -14.004943,-0.05171762 0,0 Z"
         fill="#fcfaf6"
         transform="translate(283.4574,380.61905)"
         id="path3"
         style="fill:#fcfaf6;fill-opacity:0;stroke-width:1.00157481;stroke-dasharray:none" /><path
         d="m 0,0 c 0.83930781,-0.00175304 1.6786156,-0.00350607 2.543357,-0.00531223 2.8251408,-0.00466865 5.6502302,-0.00219226 8.475373,2.3391e-4 2.040952,-0.00186754 4.081903,-0.00416802 6.122854,-0.00686532 5.61879,-0.0061316 11.237565,-0.0059828 16.856357,-0.0048056 6.056117,2.0367e-4 12.112228,-0.0053116 18.168342,-0.01005757 11.870309,-0.0083151 23.740614,-0.0110682 35.610926,-0.01161238 9.649371,-4.5947e-4 19.298741,-0.0025174 28.948111,-0.0057006 2.7772,-8.9755e-4 5.55441,-0.0017874 8.33161,-0.0026749 1.03564,-3.3157e-4 1.03564,-3.3157e-4 2.0922,-6.6985e-4 19.42465,-0.0061555 38.84929,-0.01010044 58.27394,-0.0096567 0.73254,1.558e-5 1.46508,3.116e-5 2.21982,4.721e-5 3.71283,8.311e-5 7.42566,1.8215e-4 11.13849,2.8471e-4 0.73738,1.994e-5 1.47476,3.989e-5 2.23449,6.044e-5 1.49116,4.044e-5 2.98233,8.223e-5 4.47349,1.2539e-4 23.18847,6.1245e-4 46.37692,-0.0068876 69.56538,-0.02057256 26.05333,-0.01536931 52.10664,-0.02396567 78.15997,-0.02303678 2.77972,7.463e-5 5.55944,1.2333e-4 8.33916,1.5431e-4 1.02665,1.749e-5 1.02665,1.749e-5 2.07404,3.532e-5 11.0036,3.074e-5 22.00719,-0.006349 33.01078,-0.0149676 11.06615,-0.008488 22.13228,-0.009286 33.19843,-0.002891 5.9924,0.003265 11.98476,0.003322 17.97715,-0.005353 5.4901,-0.007866 10.98012,-0.006432 16.47021,0.002284 1.9819,0.001535 3.96381,-2.803e-4 5.9457,-0.00586 29.88819,-0.0785458 55.29354,6.9393095 77.22202,27.9116948 20.12457,21.085839 26.88894,46.440525 26.72386,74.939606 0.004,1.89757 0.01,3.79514 0.0168,5.6927 0.0146,5.15768 0.005,10.31505 -0.01,15.47272 -0.0112,5.58424 8.5e-4,11.16845 0.01,16.75269 0.0139,10.91659 0.006,21.83306 -0.009,32.74965 -0.0169,12.7286 -0.0136,25.45716 -0.01,38.18577 0.006,23.40411 -0.01,46.80816 -0.0352,70.21225 -0.0231,21.33123 -0.0285,42.6624 -0.0183,63.99364 0.003,5.4648 0.005,10.92961 0.008,16.39442 3e-4,0.67294 6e-4,1.34588 9e-4,2.03921 0.008,17.86607 10e-4,35.73213 -0.01,53.5982 -0.002,2.56276 -0.003,5.12551 -0.005,7.68827 -7.5e-4,1.26073 -0.002,2.52146 -0.002,3.8204 -0.005,8.86088 -0.003,17.72174 10e-4,26.58262 0.005,10.80495 -10e-4,21.60983 -0.0209,32.41477 -0.01,5.50694 -0.015,11.01378 -0.007,16.52073 0.007,5.05064 1.4e-4,10.10106 -0.0176,15.15166 -0.004,1.81735 -0.003,3.63472 0.004,5.45206 0.0971,29.19605 -7.83524,53.39952 -28.33486,74.93238 -6.55591,6.31263 -14.09583,10.94907 -22,15.375 -0.61223,0.36022 -1.22445,0.72043 -1.85523,1.09156 -14.83226,8.01551 -31.27944,9.01702 -47.75274,8.91163 -2.10937,0.005 -4.21872,0.0123 -6.32807,0.0215 -5.74306,0.0188 -11.4857,0.007 -17.22875,-0.0107 -6.21407,-0.0135 -12.42809,0.002 -18.64216,0.0138 -11.45058,0.0173 -22.90097,0.012 -34.35154,-0.005 -10.57849,-0.0156 -21.15693,-0.0214 -31.73543,-0.0177 -0.70355,2.4e-4 -1.4071,4.8e-4 -2.13198,7.2e-4 -2.8564,9.8e-4 -5.7128,0.002 -8.5692,0.003 -26.75345,0.0101 -53.50683,-0.008 -80.26027,-0.0397 -23.74127,-0.0279 -47.48245,-0.0328 -71.22373,-0.0178 -6.08288,0.004 -12.16576,0.008 -18.24863,0.0112 -0.74901,4.4e-4 -1.49801,8.8e-4 -2.2697,10e-4 -19.87323,0.0113 -39.74645,0.004 -59.61967,-0.009 -2.1394,-10e-4 -4.2788,-0.003 -6.4182,-0.004 -1.41905,-9.1e-4 -2.8381,-0.002 -4.25715,-0.003 -10.57165,-0.007 -21.143271,-0.004 -31.71492,0.003 -12.023366,0.008 -24.046603,9.5e-4 -36.069956,-0.0242 -6.130501,-0.0125 -12.260832,-0.0187 -18.39134,-0.007 -5.618038,0.0101 -11.235736,0.002 -16.8537328,-0.0216 -2.0259248,-0.005 -4.0518803,-0.004 -6.0777915,0.005 -26.3342787,0.10758 -48.9203137,-7.90782 -68.1755927,-26.55136 -20.619146,-20.79161 -26.21187,-46.50592 -26.147415,-74.93355 -0.003,-1.90135 -0.0069,-3.8027 -0.01159,-5.70405 -0.01024,-5.19589 -0.0081,-10.3917 -0.0038,-15.58759 0.0025,-5.615 -0.0066,-11.22998 -0.01404,-16.84497 -0.01273,-10.98924 -0.01454,-21.97845 -0.0122,-32.96769 0.0018,-8.93501 3e-5,-17.87 -0.0042,-26.80501 -5.95e-4,-1.27306 -0.0012,-2.54612 -0.0018,-3.85776 -0.0012,-2.58646 -0.0024,-5.17293 -0.0036,-7.75939 -0.0078,-17.3587 -0.01171,-34.71738 -0.0077,-52.07608 1.56e-4,-0.67813 3.13e-4,-1.35627 4.74e-4,-2.05496 8.05e-4,-3.43668 0.0017,-6.87336 0.0025,-10.31004 1.71e-4,-0.68248 3.42e-4,-1.36495 5.18e-4,-2.06811 3.47e-4,-1.38013 6.96e-4,-2.76026 10e-4,-4.14039 0.0054,-21.47122 -0.0026,-42.94239 -0.02103,-64.41361 -0.02074,-24.15083 -0.03141,-48.30163 -0.02742,-72.45247 0.0019,-12.7771 -5.61e-4,-25.55415 -0.01471,-38.33124 -0.01193,-10.87721 -0.0133,-21.75437 -0.0012,-32.63158 0.0059,-5.54527 0.007,-11.09042 -0.005,-16.63568 -0.01089,-5.08473 -0.0077,-10.16927 0.0063,-15.25399 0.0026,-1.83098 3.08e-4,-3.66197 -0.0077,-5.492924 -0.111987,-27.410651 6.862991,-50.54296 26.386007,-70.655482 0.612305,-0.685781 1.224609,-1.371562 1.855469,-2.078125 C -49.589977,12.099793 -31.472088,5.0430753 -13.325142,1.1286344 -12.599016,0.95057709 -11.87289,0.77251973 -11.12476,0.58906668 -7.4125465,-0.02145328 -3.7503677,-0.00989621 0,0 Z m -29.575142,32.816134 c -0.668379,0.348853 -1.336758,0.697706 -2.025391,1.057129 -16.081991,8.650869 -27.035077,22.544054 -32.299758,40.013001 -2.459668,10.138513 -1.81661,20.638591 -1.765427,31.003116 8.47e-4,2.40568 3.69e-4,4.81136 -0.0013,7.21704 -7.69e-4,5.82979 0.01218,11.65944 0.03131,17.4892 0.02154,6.78957 0.02594,13.57911 0.02936,20.3687 0.0065,12.10591 0.02647,24.21176 0.05491,36.31763 0.02758,11.75261 0.04879,23.50519 0.06152,35.25782 7.88e-4,0.72567 0.0016,1.45135 0.0024,2.19901 0.0039,3.64087 0.0077,7.28173 0.01144,10.9226 0.03105,30.15579 0.08407,60.31152 0.150971,90.46725 6.34421,2.11474 14.88076,-2.9308 20.765625,-5.76562 23.896628,-12.0452 46.5317333,-31.87206 63.734375,-52.23438 2.245579,-2.60647 4.545515,-5.08934 7,-7.5 2.29326,-2.25797 4.46428,-4.55996 6.5625,-7 11.138324,-12.89436 22.941115,-25.46791 35.9375,-36.5 0.908789,-0.79793 1.817578,-1.59585 2.753906,-2.41796 13.04984,-11.38092 26.950099,-21.52085 42.304691,-29.56446 1.91697,-1.00477 3.81939,-2.034 5.72266,-3.06445 14.125,-7.49793 29.23449,-12.89702 44.71874,-16.82813 0.7512,-0.19102 1.5024,-0.38204 2.27637,-0.57885 12.4463,-2.97143 24.77846,-3.9193 37.52636,-3.91675 2.43106,-0.004 4.86028,-0.0408 7.29102,-0.0786 20.2951,-0.14668 42.05166,4.25558 57.40625,18.44921 2,2 2,2 2.125,4.625 -0.0413,0.78375 -0.0825,1.5675 -0.125,2.375 -0.70383,0.17016 -1.40766,0.34032 -2.13281,0.51563 -3.29423,0.8085 -6.58036,1.64634 -9.86719,2.48437 -1.10602,0.26684 -2.21203,0.53368 -3.35156,0.8086 -14.00424,3.62178 -26.43009,10.06668 -37.64844,19.1914 -0.83918,0.66387 -1.67836,1.32774 -2.54297,2.01172 -15.43345,12.94496 -25.53421,32.15311 -28.45703,51.98828 -1.63018,26.06264 3.33338,47.57753 20,68 0.66,0.66 1.32,1.32 2,2 26.14271,-0.98651 50.38002,-20.93948 67.78125,-38.78125 1.7852,-1.7852 3.56023,-3.39997 5.53125,-4.96875 2.44752,-2.04907 4.30779,-4.18696 6.30078,-6.66406 2.80553,-3.20858 6.13312,-5.84749 9.38672,-8.58594 0.87656,-0.76441 1.75313,-1.52882 2.65625,-2.3164 31.47763,-27.03522 66.94985,-38.76519 108.34375,-36.6836 5.60703,0.62938 10.70315,2.04011 16,4 1.07637,0.37383 2.15273,0.74766 3.26173,1.13282 7.812,2.96013 16.31531,7.29976 21.73827,13.86718 -0.3125,2.6875 -0.3125,2.6875 -1,5 -4.2017,1.33691 -8.18804,2.17611 -12.5625,2.75 -12.08056,1.96309 -22.03283,7.63954 -31.4375,15.25 -0.71801,0.5427 -1.43602,1.0854 -2.17577,1.64454 -9.52824,7.60408 -15.73778,18.38792 -17.82423,30.35546 -1.34852,13.77766 0.53282,24.85678 9,36 0.42926,0.59426 0.85852,1.18852 1.30078,1.80079 13.89084,17.82453 40.3172,26.87169 61.69922,31.19921 0.62358,0.12625 1.24717,0.2525 1.88965,0.38257 17.53346,3.37828 35.17418,3.00753 52.94336,2.88172 3.26411,-0.0193 6.52816,-0.0232 9.79231,-0.0267 3.90097,-0.005 7.80187,-0.0196 11.7028,-0.0344 0.74063,-0.002 1.48124,-0.004 2.2443,-0.006 2.07392,-0.007 4.14766,-0.0204 6.22153,-0.0363 1.17798,-0.007 2.35596,-0.0137 3.56964,-0.0207 2.56064,0.15816 2.56064,0.15816 3.63642,-1.14045 0.10055,-1.55922 0.13107,-3.12301 0.13422,-4.68547 0.004,-1.01973 0.009,-2.03946 0.0135,-3.09008 -1.9e-4,-1.13401 -3.7e-4,-2.26801 -5.6e-4,-3.43637 0.006,-1.79132 0.006,-1.79132 0.0111,-3.61883 0.009,-3.33033 0.0137,-6.66061 0.0164,-9.99095 0.004,-3.58656 0.0135,-7.1731 0.0222,-10.75966 0.0198,-8.67456 0.0298,-17.34912 0.0387,-26.0237 0.004,-4.08683 0.01,-8.17366 0.015,-12.26049 0.017,-13.59241 0.0315,-27.18483 0.0388,-40.77725 0.002,-3.53044 0.004,-7.06089 0.006,-10.59133 4.9e-4,-0.87747 9.7e-4,-1.75493 10e-4,-2.65899 0.008,-14.18643 0.0336,-28.37277 0.0661,-42.55916 0.0331,-14.57275 0.0511,-29.14546 0.0543,-43.71825 0.002,-8.17857 0.0108,-16.35702 0.0365,-24.53555 0.0218,-6.97254 0.0297,-13.94493 0.02,-20.9175 -0.005,-3.5524 -0.003,-7.10448 0.0168,-10.65684 0.12721,-24.483473 -1.78194,-45.117438 -19.49028,-63.719576 -13.70794,-13.049301 -29.8093,-19.174295 -48.58406,-19.131427 -0.84301,-0.0021 -1.68601,-0.0041 -2.55456,-0.0062 -2.82568,-0.0057 -5.65131,-0.0042 -8.477,-0.0028 -2.04609,-0.0026 -4.09218,-0.0056 -6.13827,-0.009 -5.62374,-0.0081 -11.24746,-0.0099 -16.87121,-0.0106 -6.06496,-0.0019 -12.12992,-0.0094 -18.19488,-0.01614 -13.954,-0.01429 -27.908,-0.02011 -41.862,-0.02469 -6.89868,-0.0023 -13.79735,-0.0059 -20.69602,-0.0097 -23.6246,-0.01283 -47.2492,-0.02355 -70.87381,-0.027 -1.48246,-2.22e-4 -2.96492,-4.44e-4 -4.44738,-6.66e-4 -1.486,-2.2e-4 -2.97199,-4.41e-4 -4.45799,-6.61e-4 -2.98105,-4.43e-4 -5.96211,-8.9e-4 -8.94316,-0.0013 -1.10869,-1.64e-4 -1.10869,-1.64e-4 -2.23978,-3.31e-4 -23.96077,-0.0036 -47.92152,-0.01955 -71.88228,-0.04286 -25.34523,-0.02461 -50.69044,-0.03832 -76.03568,-0.03951 -2.78392,-1.72e-4 -5.56783,-3.87e-4 -8.35175,-6.35e-4 -0.68546,-5.6e-5 -1.37092,-1.11e-4 -2.07714,-1.69e-4 -11.01632,-0.0011 -22.03261,-0.01216 -33.048917,-0.02672 -11.079367,-0.01439 -22.158703,-0.01734 -33.238079,-0.0096 -5.998637,0.0039 -11.997169,0.003 -17.995792,-0.01106 -5.496887,-0.01275 -10.993592,-0.01153 -16.490479,5.9e-4 -1.983204,0.002 -3.966422,-0.0011 -5.949609,-0.0098 -13.8671781,-0.05718 -27.314032,0.342189 -39.840161,7.067828 z M 202.67486,187.12863 c -36.28223,3.11929 -68.29419,13.39653 -98,35 -0.87528,0.63551 -1.75055,1.27102 -2.65235,1.92579 -2.164801,1.64024 -4.261477,3.33511 -6.347652,5.07421 -1.467598,1.21043 -1.467598,1.21043 -2.964844,2.44532 -12.414094,10.3163 -23.987219,21.41492 -35.410156,32.80468 -0.522282,0.51961 -1.044564,1.03921 -1.582672,1.57456 -5.230938,5.21059 -10.354574,10.45077 -15.160004,16.06167 -3.847928,4.32106 -7.969534,8.38692 -12.060058,12.47681 -1.560869,1.56305 -3.113545,3.13394 -4.666016,4.70532 -6.390086,6.42583 -13.011206,12.33791 -20.1562499,17.93164 -1.4404065,1.13792 -1.4404065,1.13792 -2.90991212,2.29883 -18.11822898,14.18108 -38.04486798,24.33201 -60.09008798,30.70117 -2.0018,0.66125 -4.002096,1.32708 -6,2 -0.09364,24.88771 -0.164078,49.77539 -0.207249,74.66324 -0.02058,11.55714 -0.04862,23.11417 -0.09451,34.67124 -0.04,10.07891 -0.06571,20.15775 -0.0746,30.23675 -0.0052,5.33153 -0.0173,10.66283 -0.04657,15.99428 -0.02738,5.02985 -0.03548,10.05938 -0.02951,15.08929 -0.0011,1.83484 -0.0089,3.66969 -0.02439,5.50446 -0.158268,19.74288 3.100485,36.77612 17.215103,51.56731 1.119551,1.12535 1.119551,1.12535 2.261719,2.27343 0.59168,0.62649 1.183359,1.25297 1.792969,1.89844 4.131432,4.03111 8.806671,6.71735 13.894531,9.35156 0.622698,0.32952 1.245396,0.65904 1.886963,0.99854 12.790182,6.30241 26.0050539,6.18503 39.907806,6.13914 2.067058,0.004 4.134113,0.01 6.201163,0.0163 5.653904,0.0144 11.307662,0.0102 16.961573,0.003 6.107832,-0.005 12.215633,0.008 18.323455,0.018 11.265177,0.0162 22.530308,0.0186 33.79549,0.0137 10.409526,-0.005 20.819029,-0.004 31.228559,0.002 1.39835,7.6e-4 2.79669,0.002 4.19504,0.002 2.10739,10e-4 4.21478,0.002 6.32218,0.003 19.58255,0.0107 39.1651,0.0154 58.74766,0.008 0.73758,-3e-4 1.47515,-6e-4 2.23508,-9e-4 5.98897,-0.002 11.97794,-0.005 17.96691,-0.008 23.35765,-0.0101 46.71521,-0.002 70.07284,0.0215 26.26656,0.0261 52.53308,0.0389 78.79965,0.0318 2.80266,-7.2e-4 5.60532,-10e-4 8.40798,-0.002 1.03507,-2.6e-4 1.03507,-2.6e-4 2.09104,-5.2e-4 10.39913,-0.002 20.79823,0.006 31.19735,0.0188 11.83135,0.0149 23.66262,0.0154 35.49397,-0.002 6.03326,-0.009 12.06634,-0.0107 18.09958,0.005 5.52945,0.0139 11.05856,0.009 16.58799,-0.0102 1.99381,-0.004 3.98764,-8.5e-4 5.98143,0.01 20.57115,0.10024 39.33829,-3.60794 54.74726,-18.32516 16.02102,-15.94477 20.43075,-33.3954 20.54156,-55.48149 0.0101,-4.25407 -0.0126,-8.50768 -0.0415,-12.76164 -0.0215,-3.76575 -0.0207,-7.53149 -0.0227,-11.29729 -0.006,-6.30294 -0.0275,-12.60569 -0.0591,-18.90855 -0.0406,-8.09758 -0.0577,-16.19504 -0.0673,-24.2927 -0.008,-6.97561 -0.0255,-13.9512 -0.045,-20.92678 -0.004,-1.49537 -0.008,-2.99074 -0.0112,-4.48611 -0.0112,-4.89768 -0.0314,-9.79523 -0.0561,-14.69285 -0.004,-1.86445 -0.004,-1.86445 -0.008,-3.76657 -0.0107,-1.68387 -0.0107,-1.68387 -0.0217,-3.40175 -0.004,-0.98121 -0.009,-1.96242 -0.013,-2.97336 0.11147,-2.17755 0.11147,-2.17755 -1.13422,-3.20232 -1.83621,-0.10783 -3.67653,-0.14627 -5.51587,-0.15771 -1.18377,-0.0103 -2.36754,-0.0205 -3.58717,-0.0311 -1.2976,-0.007 -2.5952,-0.0146 -3.93212,-0.0221 -1.35356,-0.013 -2.70711,-0.0268 -4.06065,-0.0414 -5.74395,-0.0613 -11.4879,-0.11481 -17.23207,-0.14901 -22.01412,-0.13855 -43.89558,-0.84883 -65.35962,-6.28614 -1.02561,-0.25491 -2.05122,-0.50982 -3.10791,-0.77246 -21.38522,-5.52878 -43.01226,-14.41279 -60.20459,-28.54004 -0.84692,-0.68449 -1.69383,-1.36898 -2.56641,-2.07421 -12.42672,-10.56746 -23.2267,-25.61692 -24.63696,-42.33692 -0.82198,-21.4498 3.93951,-38.57976 18.46899,-54.72558 2.97123,-3.11131 6.02854,-5.98521 9.3711,-8.69141 0.44988,-0.38672 0.89976,-0.77344 1.36328,-1.17188 0,-0.33 0,-0.66 0,-1 -28.24726,0.59869 -54.51303,15.59967 -75,34 -0.87141,0.76184 -1.74281,1.52368 -2.64063,2.3086 -4.43495,3.91196 -8.65354,7.97188 -12.79687,12.1914 -5.21472,5.26614 -10.75991,9.90237 -16.5625,14.5 -0.74121,0.63165 -1.48242,1.26329 -2.2461,1.91407 -13.10371,11.0371 -28.10895,19.27507 -43.7539,26.08593 0,1.32 0,2.64 0,4 25.25814,21.71237 63.65538,33.15326 95.52173,40.04737 1.04728,0.228 2.09456,0.456 3.17358,0.69092 0.92829,0.19634 1.85657,0.39268 2.81299,0.59497 2.42584,0.64912 4.37401,1.31692 6.4917,2.66674 1.04395,3.20147 1.35525,5.08649 0.125,8.25 -8.3332,6.86264 -25.12535,4.39683 -35.125,3.75 -6.79157,-0.77749 -13.39744,-2.2566 -20,-4 -0.69497,-0.18191 -1.38993,-0.36383 -2.10596,-0.55127 -43.05383,-11.62858 -88.78198,-39.75214 -111.84619,-78.625 -3.12572,-5.44014 -5.7683,-10.97836 -8.04785,-16.82373 -0.38745,-0.97308 -0.38745,-0.97308 -0.78272,-1.96582 -7.79765,-20.62347 -7.49011,-49.63064 0.78272,-70.03418 0.48267,-1.19882 0.48267,-1.19882 0.9751,-2.42187 4.39174,-10.57797 9.58697,-19.82915 17.0249,-28.57813 0.70769,-0.86882 1.41539,-1.73765 2.14453,-2.63281 5.57494,-6.56939 11.83307,-11.44794 18.85547,-16.36719 -0.33,-0.66 -0.66,-1.32 -1,-2 z"
         fill="#2ca98a"
         transform="translate(270.32514,354.87137)"
         id="path4"
         style="stroke-width:1.00157481;stroke-dasharray:none;fill:#5bc878;fill-opacity:1" /><path
         d="m 0,0 c 6.27,0 12.54,0 19,0 3.375235,9.0006276 3.375235,9.0006276 4.42627,13.143311 0.236794,0.924232 0.473589,1.848465 0.717559,2.800705 0.243865,0.971092 0.487729,1.942184 0.738983,2.942703 0.389605,1.530054 0.389605,1.530054 0.787079,3.091018 0.544922,2.143362 1.087703,4.287268 1.628449,6.431687 0.826996,3.279409 1.660223,6.557185 2.494629,9.834717 0.530309,2.089101 1.060269,4.17829 1.589843,6.267578 0.247913,0.977165 0.495826,1.954329 0.751252,2.961105 0.345735,1.372164 0.345735,1.372164 0.698456,2.772049 0.201909,0.799717 0.403819,1.599435 0.611846,2.423386 C 34.024319,55.102056 34.523877,57.543966 35,60 c 0.66,0 1.32,0 2,0 0.21769,-0.978479 0.435381,-1.956958 0.659668,-2.965088 2.498987,-11.025983 5.470952,-21.879376 8.65918,-32.724609 0.819847,-2.794483 1.627691,-5.59227 2.435058,-8.390381 0.521424,-1.784713 1.043533,-3.569227 1.566406,-5.353516 0.239615,-0.8331722 0.47923,-1.6663447 0.726105,-2.5247648 C 52.77067,2.2293302 52.77067,2.2293302 55,0 c 2.531165,-0.25223659 4.905766,-0.37023663 7.4375,-0.375 0.68127,-0.0244922 1.362539,-0.0489844 2.064453,-0.0742188 C 66.496094,-0.4609375 66.496094,-0.4609375 70,0 c 2.69266,2.827904 3.693575,5.6574231 4.717529,9.3793945 0.300085,1.0743635 0.60017,2.1487265 0.909348,3.2556455 0.468934,1.731398 0.468934,1.731398 0.947342,3.497772 0.328696,1.188184 0.657391,2.376367 0.996048,3.600556 0.869461,3.150646 1.731007,6.303321 2.589157,9.457062 0.877165,3.213435 1.767099,6.423312 2.655029,9.633789 0.670629,2.436003 1.340575,4.872195 2.009766,7.308593 0.318695,1.158314 0.637391,2.316627 0.965744,3.510041 0.290628,1.068059 0.581256,2.136117 0.880691,3.236542 0.257425,0.942798 0.51485,1.885596 0.780075,2.856964 C 88,58 88,58 88,60 c 0.66,0 1.32,0 2,0 0.109933,-0.589545 0.219866,-1.179089 0.33313,-1.786499 1.274498,-6.621376 2.878951,-13.11133 4.63562,-19.619751 0.280975,-1.046517 0.561951,-2.093035 0.85144,-3.171265 0.589945,-2.192076 1.181643,-4.383681 1.775025,-6.574829 0.909191,-3.363959 1.807548,-6.730699 2.705565,-10.097656 0.57617,-2.135594 1.15297,-4.271017 1.73047,-6.40625 0.26776,-1.008248 0.53552,-2.016497 0.8114,-3.0552978 0.3805,-1.3928522 0.3805,-1.3928522 0.76868,-2.8138428 0.22047,-0.8181116 0.44094,-1.6362232 0.66809,-2.479126 C 105,2 105,2 107,0 c 2.87342,-0.19856972 5.62862,-0.27828946 8.5,-0.25 1.17756,-0.0116016 1.17756,-0.0116016 2.37891,-0.0234375 C 123.74669,-0.2533079 123.74669,-0.2533079 126,2 c -0.38562,5.2518957 -1.78794,10.098572 -3.33594,15.097656 -0.3529,1.163638 -0.3529,1.163638 -0.71293,2.350785 -0.7708,2.539437 -1.54834,5.076754 -2.32613,7.614059 -1.09316,3.586237 -2.18236,7.173663 -3.26953,10.761719 -0.27789,0.916302 -0.55578,1.832604 -0.84209,2.776672 -1.94899,6.45493 -3.82048,12.928948 -5.6501,19.41864 -0.24853,0.877474 -0.49705,1.754948 -0.75311,2.659012 -1.44469,5.102791 -1.44469,5.102791 -2.86694,10.211868 -0.64573,2.338817 -1.30456,4.673583 -1.96589,7.008026 -0.18705,0.693944 -0.3741,1.387888 -0.56681,2.10286 C 102.6544,85.680448 102.30493,86.796712 99,89 c -1.99292,0.227051 -1.99292,0.227051 -4.230469,0.195312 -0.802441,-0.0064 -1.604883,-0.01289 -2.43164,-0.01953 -1.250069,-0.02514 -1.250069,-0.02514 -2.525391,-0.05078 -1.267471,-0.01354 -1.267471,-0.01354 -2.560547,-0.02734 C 85.167848,89.074107 83.083888,89.038236 81,89 77.768465,82.306154 75.538546,75.553165 73.546875,68.402344 73.24179,67.327472 72.936705,66.2526 72.622375,65.145157 71.658648,61.74434 70.704186,58.341005 69.75,54.9375 69.094363,52.617665 68.438119,50.298002 67.78125,47.978516 66.180478,42.320973 64.587285,36.66134 63,31 c -1.714966,3.32074 -2.856659,6.553815 -3.917969,10.144531 -0.54624,1.836552 -0.54624,1.836552 -1.103515,3.710205 -0.190379,0.646274 -0.380757,1.292547 -0.576905,1.958405 -0.593264,2.013455 -1.191084,4.025504 -1.790283,6.037201 -0.812347,2.727884 -1.623348,5.456161 -2.433105,8.184814 C 51.466698,66.798671 49.738783,72.557153 48,78.3125 c -0.290281,0.971067 -0.580562,1.942134 -0.879639,2.942627 -0.399891,1.321974 -0.399891,1.321974 -0.807861,2.670654 -0.230742,0.767395 -0.461484,1.53479 -0.699219,2.32544 C 45,88 45,88 44,89 c -2.972773,0.180258 -5.900153,0.278122 -8.875,0.3125 -1.243301,0.04351 -1.243301,0.04351 -2.511719,0.08789 -1.196894,0.01257 -1.196894,0.01257 -2.417969,0.02539 -0.732026,0.01458 -1.464052,0.02917 -2.218261,0.04419 C 25.158668,88.800004 24.56204,87.389489 23,85 22.130341,82.822662 22.130341,82.822662 21.425293,80.432129 21.153976,79.527242 20.882658,78.622356 20.603119,77.690048 20.176958,76.223123 20.176958,76.223123 19.742187,74.726562 19.437375,73.702407 19.132562,72.678252 18.818512,71.623062 17.829278,68.292702 16.851783,64.959032 15.875,61.625 15.201851,59.345258 14.528021,57.065718 13.853516,54.786377 12.845773,51.380389 11.8387,47.97422 10.835022,44.567032 8.9264144,38.09425 6.9805678,31.635261 4.9765625,25.191406 4.5456072,23.796752 4.1147743,22.40206 3.684082,21.007324 2.9148654,18.525847 2.1376414,16.046833 1.3510742,13.570801 0.85244873,11.948274 0.85244873,11.948274 0.34375,10.292969 0.05693359,9.3805542 -0.22988281,8.4681397 -0.52539062,7.5280762 -1,5 -1,5 0,0 Z"
         fill="#2ba889"
         transform="translate(200,1061)"
         id="path5"
         style="stroke-width:1.00157481;stroke-dasharray:none;fill:#5bc878;fill-opacity:1" /><path
         d="m 0,0 c 7.7322106,5.7047774 11.74037,13.098118 14.125,22.3125 0.511074,4.805071 0.492111,9.554756 0.425781,14.382812 -0.0049,1.349513 -0.0082,2.699033 -0.01,4.048554 -0.0076,2.802079 -0.02795,5.603634 -0.05913,8.405548 -0.03995,3.59693 -0.05768,7.193525 -0.06731,10.790651 -0.0099,3.439295 -0.02981,6.878507 -0.0511,10.317747 -0.0074,1.294632 -0.01477,2.589264 -0.02238,3.923127 -0.01284,1.185685 -0.02567,2.371371 -0.0389,3.592987 -0.0098,1.048259 -0.01969,2.096519 -0.02983,3.176544 C 14.125,83.3125 14.125,83.3125 13.125,84.3125 10.428451,84.3857 7.7580854,84.40493 5.0625,84.375 4.3038867,84.3705 3.5452734,84.366 2.7636719,84.36133 0.88408129,84.34951 -0.99546899,84.33157 -2.875,84.3125 c -2,-5.625 -2,-5.625 -2,-9 -3.416208,2.020443 -3.416208,2.020443 -6.726563,4.207031 -8.460472,5.762174 -16.968267,7.558759 -27.128906,6.425781 C -46.99031,84.283084 -53.747699,79.996558 -58.875,73.3125 c -3.521723,-6.081794 -4.86325,-13.031442 -4,-20 1.891993,-7.001581 5.784428,-12.233578 12,-16 7.529938,-3.291079 15.699236,-4.316852 23.75,-5.625 2.578194,-0.429273 5.156322,-0.858944 7.734375,-1.289063 1.697212,-0.277712 1.697212,-0.277712 3.428711,-0.561035 2.707825,-0.460441 5.397191,-0.969511 8.086914,-1.524902 0.2932171,-4.984691 0.1833893,-8.048206 -3,-12 -5.284521,-3.794015 -10.531121,-4.833558 -17,-4 -4.615014,1.487343 -7.363942,3.078177 -10.15625,7.125 -1.604797,2.001176 -2.405289,2.772841 -4.928955,3.36084 -2.434421,0.104111 -4.79548,0.03887 -7.227295,-0.11084 -1.253936,-0.0406 -1.253936,-0.0406 -2.533203,-0.08203 -2.052549,-0.07037 -4.103763,-0.177986 -6.154297,-0.292969 -1,-3 -1,-3 -0.179687,-5.269531 C -53.499988,6.216293 -47.00409,-0.04058531 -35.625,-4.5625 -24.132589,-7.9676588 -10.203842,-6.2517698 0,0 Z"
         fill="#2ca98a"
         transform="translate(393.875,1065.6875)"
         id="path6"
         style="stroke-width:1.00157481;stroke-dasharray:none;fill:#5bc878;fill-opacity:1" /><path
         d="m 0,0 c 9.795345,7.0312265 15.527342,16.651972 18.3125,28.3125 0.265625,3.894531 0.265625,3.894531 0.25,7.8125 0.0077,1.95873 0.0077,1.95873 0.01563,3.957031 C 18.3125,43.3125 18.3125,43.3125 16.3125,45.3125 c -2.480377,0.240509 -2.480377,0.240509 -5.643066,0.227051 -1.1810737,-1.51e-4 -2.362147,-3.02e-4 -3.5790104,-4.58e-4 -1.2802304,-0.01032 -2.5604608,-0.02065 -3.8794861,-0.03128 -1.9601051,-0.0042 -1.9601051,-0.0042 -3.95980835,-0.0086 -3.47544995,-0.0076 -6.95073295,-0.02729 -10.42611715,-0.04941 -3.545814,-0.02045 -7.091656,-0.02959 -10.637512,-0.03967 -6.958402,-0.02146 -13.916693,-0.05559 -20.875,-0.09766 0.460818,1.598822 0.92663,3.196205 1.394531,4.792969 0.25886,0.889695 0.51772,1.779389 0.784424,2.696045 2.275799,6.960033 6.551575,10.279699 12.821045,13.510986 6.244399,2.081466 11.438872,1.583349 17.375,-1.25 2.7049261,-1.391105 4.3021861,-2.25302 5.9685059,-4.818359 C -2.6875,58.3125 -2.6875,58.3125 -0.51098633,57.858398 c 0.82218018,0.02095 1.64436033,0.04189 2.49145503,0.06348 0.8926758,0.01289 1.7853516,0.02578 2.7050782,0.03906 0.9287695,0.03352 1.857539,0.06703 2.8144531,0.101563 1.4105566,0.02707 1.4105566,0.02707 2.849609,0.05469 2.32199,0.04715 4.641928,0.112931 6.962891,0.195313 -1.098685,8.802108 -6.12765,14.957538 -12.8632813,20.5 -3.49691197,2.454871 -7.1181993,4.084628 -11.1367187,5.5 -0.6355078,0.225586 -1.2710156,0.451172 -1.9257813,0.683594 C -19.07603,88.137085 -29.808519,86.633037 -39.6875,82.3125 -50.773794,75.904565 -58.104178,66.923572 -61.777344,54.679687 -62.912387,49.930747 -63.031923,45.303192 -63,40.4375 c 0.0049,-0.884055 0.0098,-1.76811 0.01489,-2.678955 0.11212,-6.229866 0.638903,-11.733569 3.297607,-17.446045 0.351914,-0.761836 0.703828,-1.523672 1.066406,-2.308594 C -52.989258,6.9818655 -44.908593,0.02167298 -33.4375,-4.5625 -22.113003,-7.9297842 -9.9467235,-6.1455346 0,0 Z"
         fill="#2ba889"
         transform="translate(567.6875,1065.6875)"
         id="path7"
         style="stroke-width:1.00157481;stroke-dasharray:none;fill:#5bc878;fill-opacity:1" /><path
         d="M 0,0 C 0.96615234,6.4453e-4 1.9323047,0.00128906 2.9277344,0.00195312 10.04698,0.04697998 10.04698,0.04697998 11.1875,1.1875 c 0.09909,2.3316006 0.129705,4.6662994 0.125,7 0.0039,1.918125 0.0039,1.918125 0.0078,3.875 -0.1328,3.125 -0.1328,3.125 -1.1328,4.125 C 6.6653423,16.647704 3.1382143,17.024783 -0.39453125,17.394531 -4.1660031,18.269513 -5.4535638,19.188852 -7.8125,22.1875 c -1.2027282,2.405456 -1.1007147,3.94997 -1.0625,6.625 0.00902,0.817266 0.018047,1.634531 0.027344,2.476562 0.011602,0.626485 0.023203,1.252969 0.035156,1.898438 0.5650928,0.01982 1.1301856,0.03964 1.7124023,0.06006 2.5546777,0.09512 5.1085231,0.204852 7.6625977,0.314941 0.8894531,0.03094 1.7789063,0.06188 2.6953125,0.09375 0.8507812,0.03867 1.7015625,0.07734 2.578125,0.117187 0.7855225,0.03142 1.5710449,0.06284 2.3803711,0.09521 C 10.1875,34.1875 10.1875,34.1875 12.1875,36.1875 c 0.265625,3.1875 0.265625,3.1875 0.25,7 0.0077,1.887188 0.0077,1.887188 0.01563,3.8125 -0.265625,3.1875 -0.265625,3.1875 -2.265625,5.1875 -1.9711914,0.318848 -1.9711914,0.318848 -4.3515625,0.414062 -0.8507813,0.03867 -1.7015625,0.07734 -2.578125,0.117188 -0.8894531,0.03094 -1.7789062,0.06188 -2.6953125,0.09375 -1.34578125,0.05801 -1.34578125,0.05801 -2.71875,0.117187 -2.2185427,0.09441 -4.437074,0.17998 -6.65625,0.257813 -0.00809,0.847468 -0.016174,1.694936 -0.024506,2.568085 -0.07785,7.975659 -0.1651114,15.951148 -0.2630215,23.926588 -0.050006,4.100536 -0.096335,8.201047 -0.1343479,12.301714 -0.036799,3.955295 -0.083144,7.910372 -0.1361885,11.865483 -0.018573,1.51108 -0.03367,3.0222 -0.045281,4.53335 -0.016813,2.11207 -0.045835,4.22365 -0.077808,6.33554 -0.013324,1.20357 -0.026647,2.40714 -0.040375,3.64719 C -9.8125,121.1875 -9.8125,121.1875 -11.8125,123.1875 c -2.891322,0.17179 -5.674421,0.23229 -8.5625,0.1875 -0.793418,-6.4e-4 -1.586836,-0.001 -2.404297,-0.002 -5.892948,-0.0453 -5.892948,-0.0453 -7.033203,-1.18555 -0.123969,-2.14668 -0.178007,-4.29742 -0.205322,-6.44751 -0.0099,-0.67314 -0.0198,-1.34628 -0.03,-2.03983 -0.0317,-2.23465 -0.05641,-4.46932 -0.08109,-6.70407 -0.02056,-1.54557 -0.04156,-3.09114 -0.06297,-4.6367 -0.05529,-4.075397 -0.104671,-8.150846 -0.152848,-12.226333 -0.05016,-4.155727 -0.105875,-8.31138 -0.161132,-12.467041 -0.107672,-8.159442 -0.209097,-16.318947 -0.306641,-24.478516 -1.390254,-0.09088 -1.390254,-0.09088 -2.808594,-0.183594 C -34.818633,52.920117 -36.016172,52.836328 -37.25,52.75 -38.444961,52.668789 -39.639922,52.587578 -40.871094,52.503906 -43.8125,52.1875 -43.8125,52.1875 -44.8125,51.1875 c -0.09981,-2.677314 -0.138799,-5.323042 -0.125,-8 -0.0039,-0.750234 -0.0077,-1.500469 -0.01172,-2.273438 0.01011,-5.599951 0.01011,-5.599951 1.136719,-6.726562 2.015946,-0.234278 4.038474,-0.413361 6.0625,-0.5625 1.104727,-0.08379 2.209453,-0.167578 3.347656,-0.253906 0.854649,-0.06059 1.709297,-0.121172 2.589844,-0.183594 0.0026,-1.038984 0.0052,-2.077969 0.0078,-3.148438 C -31.625613,21.211447 -31.036746,14.030138 -24.8125,7.1875 -17.285541,0.88759999 -9.5229947,-0.12317012 0,0 Z"
         fill="#29a888"
         transform="translate(698.8125,1026.8125)"
         id="path8"
         style="stroke-width:1.00157481;stroke-dasharray:none;fill:#5bc878;fill-opacity:1" /><path
         d="m 0,0 c 3.1039898,-0.08710289 6.2076655,-0.14042309 9.3125,-0.1875 0.881074,-0.0251367 1.762148,-0.0502734 2.669922,-0.0761719 1.271338,-0.0145019 1.271338,-0.0145019 2.568359,-0.0292969 1.170429,-0.0235657 1.170429,-0.0235657 2.364502,-0.0476074 C 19.59722,0.09756672 20.268554,0.93710732 22,3 c 0.858612,1.9927063 0.858612,1.9927063 1.546387,4.293457 0.263925,0.8658573 0.527851,1.7317145 0.799774,2.6238099 0.275064,0.9373801 0.550127,1.8747601 0.833526,2.8405461 0.294642,0.976454 0.589283,1.952909 0.892853,2.958953 0.94314,3.133463 1.872914,6.270715 2.80246,9.408234 0.617624,2.058854 1.236105,4.11745 1.855469,6.175781 1.492512,4.968786 2.971507,9.94145 4.444214,14.916138 0.790862,2.666893 1.587136,5.332109 2.384887,7.996948 0.462061,1.551063 0.923985,3.102167 1.385742,4.65332 0.211074,0.702147 0.422148,1.404293 0.639618,2.127717 C 41,65.772094 41,65.772094 41,68 c 2.277647,-0.857478 2.277647,-0.857478 2.986328,-3.574448 0.344824,-1.146465 0.689649,-2.29293 1.044922,-3.474136 0.192151,-0.630916 0.384302,-1.261831 0.582275,-1.911865 0.417019,-1.37292 0.830441,-2.746937 1.240723,-4.121886 0.64897,-2.17454 1.307227,-4.34607 1.968018,-6.517045 C 50.223491,43.790506 51.612141,39.176652 53,34.5625 c 1.608118,-5.342003 3.221303,-10.682406 4.844482,-16.019854 0.649002,-2.142233 1.290127,-4.286721 1.930909,-6.431425 0.39743,-1.311189 0.795198,-2.6222752 1.193359,-3.9332425 C 61.313574,7.0307179 61.658398,5.8834573 62.013672,4.7014313 63,2 63,2 65,0 c 2.870647,-0.1721221 5.632523,-0.23223075 8.5,-0.1875 1.177559,9.668e-4 1.177559,9.668e-4 2.378906,0.001953 C 81.719063,-0.14046848 81.719063,-0.14046848 84,1 c -0.535943,6.9003246 -2.488332,12.78073 -4.902344,19.242187 -0.393738,1.074051 -0.787476,2.148102 -1.193146,3.2547 -1.272072,3.46261 -2.55653,6.920461 -3.84201,10.378113 -0.872789,2.364245 -1.745103,4.728666 -2.616943,7.093262 C 68.97762,47.650721 66.491984,54.326477 64,61 c -0.319728,0.857629 -0.639456,1.715259 -0.968872,2.598877 -1.683612,4.514192 -3.380309,9.023096 -5.093628,13.526123 -0.385994,1.020776 -0.771987,2.041553 -1.169678,3.093262 -0.347483,0.899926 -0.694966,1.799853 -1.052978,2.72705 -0.287542,0.747818 -0.575083,1.495635 -0.871338,2.266114 C 54,87 54,87 52,89 c -3.457281,0.50271 -6.947791,0.416659 -10.4375,0.4375 -0.967441,0.03287 -1.934883,0.06574 -2.931641,0.09961 -1.393154,0.01063 -1.393154,0.01063 -2.814453,0.02148 -0.851345,0.01345 -1.70269,0.02691 -2.579834,0.04077 C 31,89 31,89 29.439209,87.099609 27.42717,82.766301 25.778349,78.33956 24.15625,73.847656 23.790181,72.847157 23.424113,71.846659 23.046951,70.815842 21.859437,67.566596 20.679327,64.314725 19.5,61.0625 18.283874,57.720408 17.066706,54.378696 15.849442,51.037018 15.04179,48.819307 14.234812,46.601351 13.428513,44.383148 11.103175,37.993687 8.7418475,31.619763 6.3320312,25.261719 5.5623323,23.218111 4.7933292,21.174243 4.0244141,19.130341 3.3279631,17.290842 2.6191938,15.456022 1.9101562,13.621338 1.5028125,12.534578 1.0954687,11.447817 0.67578125,10.328125 0.1485144,8.9499561 0.1485144,8.9499561 -0.3894043,7.5439453 -1.0798784,4.6672 -0.788284,2.8247109 0,0 Z"
         fill="#2ba889"
         transform="translate(416,1061)"
         id="path9"
         style="stroke-width:1.00157481;stroke-dasharray:none;fill:#5bc878;fill-opacity:1" /><path
         d="M 0,0 C 1.2742383,-0.00193359 1.2742383,-0.00193359 2.5742188,-0.00390625 3.9141992,0.00189453 3.9141992,0.00189453 5.28125,0.0078125 6.1745703,0.00394531 7.0678906,7.813e-5 7.9882812,-0.00390625 8.8377734,-0.00261719 9.6872656,-0.00132813 10.5625,0 c 0.784395,0.00112793 1.568789,0.00225586 2.376953,0.00341797 1.841797,0.12939453 1.841797,0.12939453 2.841797,1.12939453 0.156862,1.5594854 0.250766,3.1254267 0.316406,4.6914062 0.0419,0.9442383 0.08379,1.8884766 0.126953,2.8613282 0.03932,0.9932226 0.07863,1.9864451 0.119141,3.0097661 0.04318,0.997089 0.08637,1.994179 0.130859,3.021484 0.106444,2.471857 0.20846,4.943819 0.306641,7.416015 0.590149,0.01982 1.180298,0.03964 1.78833,0.06006 2.675171,0.09529 5.349565,0.204951 8.02417,0.314941 0.92877,0.03094 1.857539,0.06187 2.814453,0.09375 0.892676,0.03867 1.785352,0.07734 2.705078,0.117188 0.82218,0.03142 1.644361,0.06284 2.491455,0.09521 2.176514,0.318847 2.176514,0.318847 5.176514,2.318847 0.363281,3.1875 0.363281,3.1875 0.3125,7 -0.0039,1.258125 -0.0077,2.51625 -0.01172,3.8125 -0.300781,3.1875 -0.300781,3.1875 -2.300781,5.1875 -2.047119,0.302979 -2.047119,0.302979 -4.535156,0.378907 -0.891387,0.03416 -1.782774,0.06832 -2.701172,0.103515 -1.398955,0.03964 -1.398955,0.03964 -2.826172,0.08008 -1.84519,0.05969 -3.690259,0.123275 -5.535156,0.191407 -0.819925,0.02393 -1.639849,0.04786 -2.484619,0.07251 -1.925538,-0.0321 -1.925538,-0.0321 -2.917725,1.173583 -0.126164,3.020671 -0.188721,6.017163 -0.203125,9.039063 -0.0085,1.371326 -0.0085,1.371326 -0.01727,2.770355 -0.0095,1.941934 -0.01599,3.883884 -0.01984,5.825836 -0.0097,2.956509 -0.04064,5.912309 -0.07227,8.868653 -0.0065,1.886714 -0.01178,3.773434 -0.01563,5.660156 -0.01235,0.879433 -0.02469,1.758865 -0.03741,2.664948 0.01964,5.479222 0.693909,9.34656 3.36554,14.170989 3.635753,2.423836 5.797041,2.353656 10.125,2.5625 6.777045,0.339546 6.777045,0.339546 7.875,1.4375 0.09932,2.310742 0.129696,4.62463 0.125,6.9375 0.0039,1.90073 0.0039,1.90073 0.0078,3.83985 -0.132812,3.22265 -0.132812,3.22265 -1.132812,5.22265 -8.651808,2.88394 -20.880026,1.85376 -29.1445313,-2 -5.93595,-3.34792 -9.6070762,-7.49617 -11.8947753,-13.916992 -1.4123247,-5.081928 -1.296895,-10.20966 -1.3395996,-15.450195 -0.025492,-1.612995 -0.025492,-1.612995 -0.051499,-3.258575 -0.052911,-3.416354 -0.093358,-6.832696 -0.1320953,-10.249238 -0.043897,-3.437906 -0.0905,-6.875718 -0.142807,-10.313507 -0.032021,-2.135567 -0.058891,-4.27122 -0.080231,-6.406921 -0.01349,-0.958347 -0.02698,-1.916695 -0.040878,-2.904083 -0.00951,-0.847146 -0.019024,-1.694292 -0.028824,-2.567108 0.06613,-1.939936 0.06613,-1.939936 -1.1447601,-2.933381 -2.8082324,-0.283978 -5.6164664,-0.448466 -8.4335944,-0.621093 -2.566406,-0.378907 -2.566406,-0.378907 -4.566406,-2.378907 -0.265625,-3.1875 -0.265625,-3.1875 -0.25,-7 -0.0052,-1.258125 -0.01031,-2.51625 -0.01563,-3.8125 0.265625,-3.1875 0.265625,-3.1875 2.265625,-5.1875 2.820312,-0.414062 2.820312,-0.414062 6.125,-0.625 1.095703,-0.07477 2.1914066,-0.149531 3.3203129,-0.226562 0.8430469,-0.04898 1.6860938,-0.09797 2.5546875,-0.148438 0.025056,-0.630915 0.050112,-1.261831 0.075928,-1.911865 0.1156137,-2.842103 0.2384955,-5.683845 0.3615723,-8.525634 0.058975,-1.489834 0.058975,-1.489834 0.1191406,-3.0097661 0.041895,-0.9442383 0.083789,-1.8884766 0.1269532,-2.8613282 0.036658,-0.8745483 0.073315,-1.7490966 0.1110839,-2.6501464 C -5.0501015,-0.54384634 -3.3150085,0.00476686 0,0 Z"
         fill="#2aa889"
         transform="translate(779.21875,1037.8672)"
         id="path10"
         style="stroke-width:1.00157481;stroke-dasharray:none;fill:#5bc878;fill-opacity:1" /><path
         d="M 0,0 C 1.2742383,-0.00193359 1.2742383,-0.00193359 2.5742188,-0.00390625 3.9141992,0.00189453 3.9141992,0.00189453 5.28125,0.0078125 6.1745703,0.00394531 7.0678906,7.813e-5 7.9882812,-0.00390625 8.8377734,-0.00261719 9.6872656,-0.00132813 10.5625,0 c 0.784395,0.00112793 1.568789,0.00225586 2.376953,0.00341797 1.841797,0.12939453 1.841797,0.12939453 2.841797,1.12939453 0.105752,2.6366198 0.14678,5.2471812 0.145264,7.8845215 0.0034,0.8259869 0.0067,1.651974 0.01018,2.502991 0.0095,2.744542 0.01145,5.489023 0.01253,8.233581 0.0032,1.899501 0.0066,3.799002 0.01009,5.698502 0.006,3.987305 0.0078,7.974589 0.0072,11.961899 -1.02e-4,5.119451 0.01355,10.238765 0.03077,15.358184 0.0111,3.924685 0.01315,7.849336 0.01262,11.774035 0.0012,1.887918 0.0056,3.775836 0.01333,5.663738 0.0098,2.636311 0.0069,5.272317 8.95e-4,7.908632 0.0056,0.786052 0.01124,1.572103 0.01703,2.381974 -0.03163,5.403627 -0.03163,5.403627 -2.259949,7.631942 -2.873421,0.19857 -5.6286199,0.27829 -8.5,0.25 -1.1775586,0.0116 -1.1775586,0.0116 -2.3789062,0.02344 -5.8677859,-0.02013 -5.8677859,-0.02013 -8.1210938,-2.273438 -0.1932732,-2.705335 -0.2622654,-5.307883 -0.2429199,-8.013916 -0.0019,-0.827739 -0.0038,-1.655478 -0.00575,-2.5083 -0.00371,-2.743992 0.007,-5.487721 0.018204,-8.23169 0.00119,-1.900466 0.00164,-3.800934 0.00139,-5.701401 0.00157,-3.985556 0.00986,-7.971023 0.02327,-11.956558 0.017002,-5.12061 0.020814,-10.241121 0.020055,-15.361756 2.713e-4,-3.924646 0.00575,-7.849269 0.013001,-11.773908 0.00319,-1.888737 0.00516,-3.777477 0.00589,-5.666218 0.00216,-2.633953 0.010887,-5.2678 0.021597,-7.901731 C -5.3644669,8.2292586 -5.36492,7.4411832 -5.365387,6.6292267 -5.3258166,0.00765832 -5.3258166,0.00765832 0,0 Z"
         fill="#29a888"
         transform="translate(730.21875,1061.8672)"
         id="path11"
         style="stroke-width:1.00157481;stroke-dasharray:none;fill:#5bc878;fill-opacity:1" /><path
         d="M 0,0 C 1.2875317,0.00607269 1.2875317,0.00607269 2.6010742,0.01226807 3.9214771,0.00939789 3.9214771,0.00939789 5.2685547,0.00646973 7.1313506,0.00510755 8.9941559,0.00880625 10.856934,0.01715088 13.714572,0.02785 16.571581,0.01725675 19.429199,0.00445557 21.236492,0.00577716 23.043785,0.00833954 24.851074,0.01226807 25.709429,0.0082196 26.567783,0.00417114 27.452148,0 c 6.044009,0.04797562 6.044009,0.04797562 8.273926,2.2778931 0.171709,2.7269722 0.232457,5.3390646 0.1875,8.0624999 -6.44e-4,0.745723 -0.0013,1.491445 -0.002,2.259766 -0.04526,5.537452 -0.04526,5.537452 -1.185547,6.677734 -3.090814,0.101169 -6.158825,0.139686 -9.25,0.132813 -0.928447,9.56e-4 -1.856894,0.0019 -2.813476,0.0029 -1.967123,6.82e-4 -3.934249,-0.0012 -5.901368,-0.0053 -3.022186,-0.0053 -6.044224,-5.5e-5 -9.0664058,0.0063 -1.9062503,-6.61e-4 -3.8125005,-0.0019 -5.71875,-0.0039 -1.36560057,0.003 -1.36560057,0.003 -2.75878904,0.0061 -6.37626126,-0.024 -6.37626126,-0.024 -7.49121096,-1.138947 -0.1265822,-2.658227 -0.1852021,-5.278874 -0.1875,-7.9375 C -8.4736719,9.5985376 -8.485918,8.8566821 -8.4985352,8.0923462 -8.5038106,6.1527568 -8.3958148,4.213656 -8.2739258,2.2778931 -5.6132237,-0.38280898 -3.619129,0.02872762 0,0 Z"
         fill="#2aa888"
         transform="translate(609.27393,1094.7221)"
         id="path12"
         style="stroke-width:1.00157481;stroke-dasharray:none;fill:#5bc878;fill-opacity:1" /><path
         d="m 0,0 c 1.0310418,12.697089 1.0310418,12.697089 -2.25,16.9375 -5.8969723,5.550092 -13.50835,9.351365 -21.625,9.75 -3.392336,-0.225502 -5.922325,-0.699488 -8.75,-2.625 C -35.719355,20.07241 -36.354573,16.991303 -36,12 -35.044612,8.929111 -34.027182,7.6758418 -31.355469,5.9179687 -26.467349,3.4225044 -21.295042,2.2855801 -15.9375,1.25 -15.277258,1.1222217 -14.617017,0.99444336 -13.936768,0.86279297 -9.2154123,0.03157257 -4.7704057,-0.10636356 0,0 Z"
         transform="translate(388,1109)"
         id="path13"
         style="fill-opacity:1;fill:#515151;stroke-width:1.00157481;stroke-dasharray:none" /><path
         id="path14"
         style="fill:#515151;fill-opacity:1;stroke-width:1.00157481;stroke-dasharray:none"
         d="M -9.2629495 -1.7853445 C -16.034736 -1.4757999 -22.451831 2.2394511 -26.483653 8.3357494 C -28.59641 12.228432 -29.420228 14.050143 -28.186778 18.374812 C -23.700452 18.395322 -19.214152 18.41259 -14.727793 18.42364 C -12.90162 18.42771 -11.075449 18.432312 -9.2492776 18.437312 C -6.5490259 18.450012 -3.8499447 18.462962 -1.1496681 18.468562 C -0.28211721 18.470062 0.56103157 18.471068 1.4030663 18.472468 C 3.005827 18.482438 4.6088681 18.487934 6.2116601 18.488093 C 9.8134667 18.374568 9.8132224 18.374812 10.813223 17.374812 C 11.000723 15.062312 11.000723 15.062312 10.813223 12.374812 C 8.8933376 6.9642274 4.9541191 2.7441298 0.00072252107 -0.00018824666 C -3.0323858 -1.3628064 -6.1848649 -1.9260466 -9.2629495 -1.7853445 z "
         transform="translate(555.1875,1078.625)" /><path
         d="m 0,0 c 3.6577418,3.1473592 5.4087432,5.4408474 6.125,10.25 -0.6956724,4.869707 -2.9539071,7.826173 -6.6875,10.9375 -3.6435376,1.490538 -6.9072438,1.816847 -10.75,1.125 -3.752123,-2.015029 -5.636441,-3.454661 -8,-7 -0.699209,-4.796898 -0.714821,-8.7745928 1.75,-13 C -12.165118,-2.4851727 -6.4837025,-3.3030183 0,0 Z"
         fill="#2ca889"
         transform="translate(742.3125,1027.6875)"
         id="path15"
         style="stroke-width:1.00157481;stroke-dasharray:none;fill:#5bc878;fill-opacity:1" /><path
         d="m 0,0 c 2,2 2,2 2.2472382,4.5495758 -0.00143,1.076201 -0.00285,2.152402 -0.00432,3.2612152 0.00308,1.2178871 0.00615,2.435774 0.00932,3.690567 -0.0069,1.334185 -0.014164,2.668367 -0.021774,4.002548 -0.00119,1.362381 -0.00165,2.724762 -0.00139,4.087143 -0.00156,2.855689 -0.00986,5.711253 -0.02327,8.56691 -0.017006,3.6678 -0.020814,7.335462 -0.020055,11.003297 -2.713e-4,2.812894 -0.00575,5.625757 -0.013001,8.438641 -0.00319,1.352849 -0.00515,2.7057 -0.00589,4.058552 -0.00216,1.886731 -0.011688,3.773449 -0.021597,5.660155 -0.00572,1.613108 -0.00572,1.613108 -0.011551,3.258804 C 2,63 2,63 1,64 c -2.6773138,0.09981 -5.3230417,0.138799 -8,0.125 -1.1253516,0.0058 -1.1253516,0.0058 -2.2734375,0.01172 C -14.873389,64.126611 -14.873389,64.126611 -16,63 c -0.04081,-1.999584 -0.04254,-4.000453 0,-6 0.33,0 0.66,0 1,0 0,1.65 0,3.3 0,5 4.95,0 9.9,0 15,0 C 0,41.54 0,21.08 0,0 Z"
         fill="#149d7a"
         transform="translate(406,1086)"
         id="path16"
         style="stroke-width:1.00157481;stroke-dasharray:none;fill:#5bc878;fill-opacity:1" /><path
         d="m 0,0 c 3.1458142,-0.02888514 6.2915947,-0.04675923 9.4375,-0.0625 0.897832,-0.0083789 1.795664,-0.01675781 2.720703,-0.02539062 0.854004,-0.0032227 1.708008,-0.0064453 2.587891,-0.0097656 1.186139,-0.0078552 1.186139,-0.0078552 2.39624,-0.01586914 C 19,0 19,0 20,1 20.04064,2.6661711 20.04272,4.3338809 20,6 19.34,5.01 18.68,4.02 18,3 15.064025,2.6161549 12.319726,2.396157 9.375,2.3125 8.5732031,2.2783398 7.7714062,2.2441797 6.9453125,2.2089844 4.9640368,2.1264312 2.9820396,2.0615408 1,2 1,3.65 1,5.3 1,7 0.34,6.34 -0.32,5.68 -1,5 -0.625,2.375 -0.625,2.375 0,0 Z"
         fill="#169e7a"
         transform="translate(200,1061)"
         id="path17"
         style="stroke-width:1.00157481;stroke-dasharray:none;fill:#5bc878;fill-opacity:1" /><path
         d="M 0,0 C 0.33,0.66 0.66,1.32 1,2 0.06421005,4.3598181 -0.93347808,6.6963126 -2,9 0.62506802,9.026908 3.2498617,9.046794 5.875,9.0625 6.6213672,9.07088 7.3677344,9.079258 8.1367188,9.087891 12.198456,9.2068808 12.198456,9.2068808 16,8 15.67,8.99 15.34,9.98 15,11 9.06,11 3.12,11 -3,11 -4,8 -4,8 -3.2226563,5.9570312 -2.8398047,5.2493359 -2.4569531,4.5416406 -2.0625,3.8125 -1.6822266,3.0970703 -1.3019531,2.3816406 -0.91015625,1.6445312 -0.60980469,1.1018359 -0.30945313,0.55914063 0,0 Z"
         fill="#149975"
         transform="translate(338,1077)"
         id="path18"
         style="stroke-width:1.00157481;stroke-dasharray:none;fill:#5bc878;fill-opacity:1" /><path
         d="m 0,0 c 1,3 1,3 0,6 -0.09435979,1.9982073 -0.12990301,3.999572 -0.125,6 -0.002578,1.051875 -0.005156,2.10375 -0.007813,3.1875 C -0.12353635,18.081269 -0.12353635,18.081269 1,21 0.01,20.67 -0.98,20.34 -2,20 -3.8976216,12.409514 -3.4356143,6.8712286 0,0 Z m 2,17 c 0.66,0 1.32,0 2,0 -0.33,0.99 -0.66,1.98 -1,3 -0.66,0 -1.32,0 -2,0 0.33,-0.99 0.66,-1.98 1,-3 z"
         fill="#24a381"
         transform="translate(334,1112)"
         id="path21"
         style="stroke-width:1.00157481;stroke-dasharray:none;fill:#5bc878;fill-opacity:1" /><path
         d="m 0,0 c 2.97,0.99 5.94,1.98 9,3 0,0.66 0,1.32 0,2 4.455,0.99 4.455,0.99 9,2 0,0.66 0,1.32 0,2 C 10.794804,7.8563181 5.694531,5.6175512 0,1 0,0.67 0,0.34 0,0 Z"
         fill="#20a17f"
         transform="translate(521,1142)"
         id="path23"
         style="stroke-width:1.00157481;stroke-dasharray:none;fill:#5bc878;fill-opacity:1" /><path
         d="M 0,0 C 0.33,0 0.66,0 1,0 1.1845102,10.558087 1.1845102,10.558087 0,15 -2,13 -2,13 -2.25,9.75 -2.0087915,6.1318718 -1.311628,3.3610468 0,0 Z"
         fill="#1fa381"
         transform="translate(184,419)"
         id="path24"
         style="stroke-width:1.00157481;stroke-dasharray:none" /><path
         d="M 0,0 C -0.47814814,1.6083164 -0.86823189,2.7831106 -1.4906117,3.7965536 -2.1129916,4.8099965 -2.9676675,5.6620883 -4.375,6.625 L -5.6875,7.3125 -7,8 C -7.6731592,8.4912243 -8.3442624,8.9854156 -9.0115242,9.4847053 -9.6787861,9.9839949 -10.342207,10.488383 -11,11 -10.30125,9.4208244 -9.5382542,8.0901424 -8.6439439,6.8508452 -7.7496337,5.6115481 -6.7240088,4.4636359 -5.5,3.25 L -4.578125,2.3203125 -3.65625,1.390625 C -2.828125,0.6953125 -2.4140625,0.34765625 -1.9570313,0.17382812 -1.5,0 -1,0 0,0 Z"
         fill="#169d7a"
         transform="translate(302,610)"
         id="path27"
         style="stroke-width:1.00157;stroke-dasharray:none"
         sodipodi:nodetypes="cscccscscccsc" /><path
         d="M 0,0 C 0.99,0.33 1.98,0.66 3,1 1.02,3.97 1.02,3.97 -1,7 -1.66,6.34 -2.32,5.68 -3,5 -2.75,2.9375 -2.75,2.9375 -2,1 -1.34,0.67 -0.68,0.34 0,0 Z"
         fill="#21a383"
         transform="translate(269,1098)"
         id="path29"
         style="stroke-width:1.00157481;stroke-dasharray:none;fill:#50c878;fill-opacity:1" /><path
         d="M 0,0 C 3,0 3,0 5,1 L -2.4346808,6.6522554 -4,6 C -2.1875,3 -2.1875,3 0,0 Z"
         fill="#189e7a"
         transform="translate(586,641)"
         id="path30"
         style="fill:#5bc878;fill-opacity:1;stroke-width:1.00157;stroke-dasharray:none"
         sodipodi:nodetypes="ccccc" /><path
         d="M 0,0 C 0.33,0.66 0.66,1.32 1,2 -0.32,3.65 -1.64,5.3 -3,7 -3.99,6.67 -4.98,6.34 -6,6 -4.02,4.02 -2.04,2.04 0,0 Z"
         fill="#149d78"
         transform="translate(280,631)"
         id="path32"
         style="stroke-width:1.00157481;stroke-dasharray:none" /></g></g></svg>
