<?xml version="1.0" encoding="UTF-8" standalone="no"?>
<!-- Created with Inkscape (http://www.inkscape.org/) -->

<svg
   width="190mm"
   height="200mm"
   viewBox="0 0 190 200"
   version="1.1"
   id="svg1"
   xml:space="preserve"
   inkscape:version="1.4.2 (f4327f4, 2025-05-13)"
   sodipodi:docname="logo-solo.svg"
   xmlns:inkscape="http://www.inkscape.org/namespaces/inkscape"
   xmlns:sodipodi="http://sodipodi.sourceforge.net/DTD/sodipodi-0.dtd"
   xmlns="http://www.w3.org/2000/svg"
   xmlns:svg="http://www.w3.org/2000/svg"><sodipodi:namedview
     id="namedview1"
     pagecolor="#505050"
     bordercolor="#eeeeee"
     borderopacity="1"
     inkscape:showpageshadow="0"
     inkscape:pageopacity="0"
     inkscape:pagecheckerboard="0"
     inkscape:deskcolor="#505050"
     inkscape:document-units="mm"
     inkscape:zoom="0.71891836"
     inkscape:cx="139.09785"
     inkscape:cy="374.86871"
     inkscape:window-width="1920"
     inkscape:window-height="1009"
     inkscape:window-x="-8"
     inkscape:window-y="-8"
     inkscape:window-maximized="1"
     inkscape:current-layer="g1" /><defs
     id="defs1"><linearGradient
       id="swatch6"
       inkscape:swatch="solid"><stop
         style="stop-color:#000000;stop-opacity:0.65148064;"
         offset="0"
         id="stop6" /></linearGradient></defs><g
     inkscape:label="Capa 1"
     inkscape:groupmode="layer"
     id="layer1"><g
       id="g1"
       transform="matrix(0.26458333,0,0,0.26458333,-34.694076,-86.785271)"><path
         d="m 229.10072,328.16335 c 0.90645,-0.002 1.8129,-0.005 2.74682,-0.006 3.05115,-0.006 6.10225,-0.002 9.15341,2.7e-4 2.20423,-0.002 4.40845,-0.005 6.61268,-0.008 6.0683,-0.007 12.13657,-0.007 18.20487,-0.006 6.54061,2.4e-4 13.08121,-0.006 19.62182,-0.0122 12.81993,-0.01 25.63987,-0.0134 38.45981,-0.014 10.42132,-5.6e-4 20.84264,-0.004 31.26396,-0.007 2.99938,-10e-4 5.99877,-0.002 8.99815,-0.004 1.11849,-4.1e-4 1.11849,-4.1e-4 2.25957,-8.1e-4 20.97863,-0.007 41.95725,-0.0122 62.93587,-0.0121 0.79115,1e-5 1.58229,4e-5 2.39741,6e-5 4.00986,10e-5 8.01971,2.2e-4 12.02957,3.4e-4 0.79637,2e-5 1.59274,5e-5 2.41325,7e-5 1.61046,5e-5 3.22092,1e-4 4.83137,1.6e-4 25.04356,7.4e-4 50.08709,-0.008 75.13063,-0.0249 28.13761,-0.0186 56.27519,-0.029 84.41279,-0.0278 3.0021,9e-5 6.0042,1.5e-4 9.0063,1.9e-4 1.10878,2e-5 1.10878,2e-5 2.23996,4e-5 11.88389,4e-5 23.76777,-0.007 35.65165,-0.0181 11.95145,-0.01 23.90287,-0.0109 35.85432,-0.004 6.47179,0.004 12.94354,0.004 19.41532,-0.006 5.92931,-0.01 11.85854,-0.007 17.78784,0.002 2.14045,0.002 4.28091,-3.4e-4 6.42135,-0.007 32.27926,-0.0948 59.71704,8.3804 83.39981,33.70814 21.73454,25.46476 29.04006,56.08489 28.86177,90.50241 0.004,2.29164 0.0108,4.58328 0.0181,6.87491 0.0158,6.22878 0.005,12.45719 -0.0108,18.68596 -0.0121,6.74392 9.2e-4,13.48781 0.0108,20.23174 0.015,13.18365 0.006,26.36716 -0.01,39.55081 -0.0182,15.37196 -0.0147,30.74388 -0.0108,46.11585 0.006,28.26447 -0.0108,56.52887 -0.038,84.79331 -0.0249,25.76112 -0.0308,51.52216 -0.0198,77.28328 0.003,6.59968 0.005,13.19938 0.009,19.79907 3.2e-4,0.81269 6.5e-4,1.62538 9.7e-4,2.46269 0.009,21.57634 10e-4,43.15267 -0.0108,64.72901 -0.002,3.09497 -0.003,6.18993 -0.005,9.2849 -8.1e-4,1.52255 -0.002,3.04509 -0.002,4.61379 -0.005,10.70103 -0.003,21.40203 10e-4,32.10306 0.005,13.04883 -10e-4,26.09757 -0.0226,39.14639 -0.0108,6.65057 -0.0162,13.30102 -0.008,19.95161 0.008,6.09951 1.5e-4,12.19875 -0.019,18.29822 -0.004,2.19476 -0.003,4.38955 0.004,6.58429 0.10487,35.25915 -8.46206,64.48909 -30.60166,90.49369 -7.08038,7.6236 -15.2235,13.2229 -23.76,18.5679 -0.66121,0.4351 -1.32241,0.8701 -2.00365,1.3183 -16.01885,9.6801 -33.78181,10.8896 -51.57298,10.7623 -2.27812,0.01 -4.55621,0.015 -6.83431,0.026 -6.20251,0.023 -12.40456,0.01 -18.60706,-0.013 -6.7112,-0.016 -13.42234,0 -20.13354,0.017 -12.36663,0.021 -24.73305,0.014 -37.09967,-0.01 -11.42477,-0.019 -22.84949,-0.026 -34.27427,-0.021 -0.75984,3e-4 -1.51967,6e-4 -2.30254,9e-4 -3.08491,0 -6.16983,0 -9.25474,0 -28.89373,0.012 -57.78739,-0.01 -86.68111,-0.048 -25.64058,-0.034 -51.28106,-0.04 -76.92165,-0.022 -6.56952,0 -13.13903,0.01 -19.70853,0.014 -0.80893,5e-4 -1.61785,10e-4 -2.45128,0 -21.46309,0.014 -42.92617,0 -64.38926,-0.011 -2.31055,0 -4.6211,0 -6.93165,0 -1.53258,0 -3.06515,0 -4.59773,0 -11.41738,-0.01 -22.83474,0 -34.25212,0 -12.98524,0.01 -25.97034,0 -38.95556,-0.029 -6.62095,-0.015 -13.2417,-0.023 -19.86265,-0.01 -6.06749,0.012 -12.1346,0 -18.20204,-0.026 -2.188,-0.01 -4.37603,0 -6.56402,0.01 -28.44103,0.1299 -52.83395,-9.5501 -73.62966,-32.0654 -22.26868,-25.1094 -28.30882,-56.16384 -28.23921,-90.49505 -0.003,-2.2962 -0.007,-4.59241 -0.0125,-6.88862 -0.0111,-6.27492 -0.009,-12.54975 -0.004,-18.82468 0.003,-6.78107 -0.007,-13.56212 -0.0152,-20.34318 -0.0137,-13.27139 -0.0157,-26.54275 -0.0132,-39.81413 0.002,-10.79056 3e-5,-21.58109 -0.005,-32.37164 -6.4e-4,-1.53744 -0.001,-3.07488 -0.002,-4.65891 -0.001,-3.12359 -0.003,-6.2472 -0.004,-9.37079 -0.008,-20.9636 -0.0127,-41.92718 -0.008,-62.89078 1.7e-4,-0.81896 3.4e-4,-1.63793 5.1e-4,-2.48172 8.7e-4,-4.15038 0.002,-8.30076 0.003,-12.45114 1.9e-4,-0.82421 3.7e-4,-1.64841 5.6e-4,-2.49759 3.8e-4,-1.66675 7.6e-4,-3.33349 0.001,-5.00023 0.006,-25.93018 -0.003,-51.86029 -0.0227,-77.79046 -0.0224,-29.16627 -0.0339,-58.33249 -0.0296,-87.49877 0.002,-15.43053 -6.1e-4,-30.86101 -0.0159,-46.29153 -0.0129,-13.13609 -0.0144,-26.27213 -0.001,-39.40822 0.006,-6.69686 0.008,-13.39358 -0.005,-20.09043 -0.0118,-6.14068 -0.008,-12.28114 0.007,-18.42181 0.003,-2.21122 3.3e-4,-4.42245 -0.008,-6.63364 -0.12094,-33.10306 7.41204,-61.03927 28.4969,-85.3286 0.66129,-0.82819 1.32258,-1.65639 2.00391,-2.50968 13.91045,-16.84762 33.47777,-25.36981 53.07648,-30.09717 0.78421,-0.21503 1.56843,-0.43007 2.37641,-0.65162 4.00919,-0.7373 7.96435,-0.72335 12.01475,-0.7114 z m -31.94117,39.63109 c -0.72185,0.42131 -1.4437,0.8426 -2.18742,1.27667 -17.36855,10.4474 -29.19789,27.22581 -34.88375,48.32254 -2.65644,12.244 -1.96194,24.92465 -1.90666,37.44158 9.2e-4,2.90527 4e-4,5.81054 -0.001,8.71581 -8.3e-4,7.04047 0.0131,14.08077 0.0338,21.1212 0.0233,8.19957 0.028,16.3991 0.0317,24.5987 0.007,14.61995 0.0286,29.23984 0.0593,43.85975 0.0298,14.19329 0.0527,28.38654 0.0665,42.57985 8.5e-4,0.87638 0.002,1.75276 0.003,2.65569 0.004,4.39697 0.008,8.79393 0.0123,13.19091 0.0335,36.41827 0.0908,72.83648 0.16305,109.25469 6.85175,2.55391 16.07123,-3.53945 22.42688,-6.96298 25.80837,-14.54664 50.25429,-38.49096 68.83314,-63.08195 2.42523,-3.14776 4.90916,-6.14625 7.56001,-9.05754 2.47672,-2.72688 4.82142,-5.50693 7.0875,-8.45369 12.02939,-15.57215 24.77641,-30.75687 38.81251,-44.08 0.98149,-0.96364 1.96298,-1.92727 2.97422,-2.9201 14.09383,-13.74441 29.10611,-25.99011 45.68908,-35.70415 2.07032,-1.21343 4.12494,-2.4564 6.18047,-3.70085 15.25501,-9.05503 31.57326,-15.57536 48.29625,-20.32285 0.8113,-0.23069 1.6226,-0.46138 2.45848,-0.69906 13.44201,-3.58851 26.76075,-4.73322 40.52848,-4.73014 2.62555,-0.005 5.24911,-0.0493 7.87431,-0.0949 21.91871,-0.17714 45.4158,5.13935 61.99876,22.28058 2.16,2.41535 2.16,2.41535 2.295,5.58548 -0.0446,0.94651 -0.0891,1.89303 -0.135,2.86822 -0.76013,0.2055 -1.52027,0.411 -2.30343,0.62271 -3.55777,0.97641 -7.10679,1.98824 -10.65657,3.00031 -1.1945,0.32225 -2.38899,0.64451 -3.61969,0.97652 -15.12458,4.37392 -28.5445,12.15724 -40.66032,23.1769 -0.90632,0.80174 -1.81263,1.60347 -2.74641,2.4295 -16.66813,15.63325 -27.57695,38.83038 -30.7336,62.78474 -1.7606,31.4751 3.60005,57.45802 21.60001,82.12165 0.7128,0.79706 1.4256,1.59412 2.16,2.41534 28.23413,-1.19138 54.41043,-25.28801 73.20376,-46.835 1.92802,-2.15594 3.84505,-4.10605 5.97376,-6.00062 2.64332,-2.4746 4.65241,-5.05647 6.80484,-8.04799 3.02997,-3.87491 6.62377,-7.06185 10.13766,-10.36899 0.94669,-0.92316 1.89338,-1.84631 2.86875,-2.79745 33.99585,-32.64966 72.30586,-46.81561 117.01128,-44.30173 6.0556,0.76008 11.55941,2.46378 17.28001,4.83069 1.16248,0.45146 2.32495,0.90292 3.52267,1.36807 8.43696,3.57486 17.62054,8.81571 23.47733,16.74699 -0.3375,3.24562 -0.3375,3.24562 -1.08,6.03836 -4.53783,1.61455 -8.84308,2.62802 -13.5675,3.32109 -13.04701,2.37077 -23.79546,9.22606 -33.95251,18.41699 -0.77545,0.6554 -1.5509,1.31081 -2.34983,1.98606 -10.2905,9.18323 -16.99681,22.20657 -19.25017,36.65942 -1.45641,16.63888 0.57544,30.01882 9.72,43.47616 0.4636,0.71767 0.9272,1.43534 1.40484,2.17476 15.00211,21.52618 43.54259,32.45217 66.63518,37.67839 0.67346,0.15247 1.34694,0.30494 2.04082,0.46202 18.93614,4.07985 37.98812,3.63211 57.17884,3.48017 3.52524,-0.0233 7.05042,-0.028 10.5757,-0.0322 4.21305,-0.006 8.42602,-0.0237 12.63903,-0.0416 0.79988,-0.002 1.59974,-0.005 2.42384,-0.007 2.23984,-0.008 4.47948,-0.0246 6.71926,-0.0438 1.27221,-0.008 2.54443,-0.0166 3.85521,-0.025 2.76549,0.191 2.76549,0.191 3.92733,-1.37729 0.1086,-1.88302 0.14156,-3.77157 0.14496,-5.65851 0.004,-1.2315 0.01,-2.46299 0.0146,-3.7318 -2e-4,-1.36951 -4e-4,-2.73901 -6e-4,-4.15 0.006,-2.16333 0.006,-2.16333 0.012,-4.37036 0.01,-4.02194 0.0148,-8.04383 0.0177,-12.06578 0.004,-4.33139 0.0146,-8.66275 0.024,-12.99413 0.0214,-10.47602 0.0322,-20.95204 0.0418,-31.42808 0.004,-4.93554 0.0108,-9.87109 0.0162,-14.80664 0.0184,-16.41516 0.034,-32.83033 0.0419,-49.24551 0.002,-4.26361 0.004,-8.52723 0.006,-12.79084 5.3e-4,-1.0597 10e-4,-2.11938 10e-4,-3.21119 0.009,-17.13254 0.0363,-34.26497 0.0714,-51.39747 0.0358,-17.59909 0.0552,-35.19813 0.0586,-52.79727 0.002,-9.87702 0.0117,-19.7539 0.0394,-29.63088 0.0236,-8.42053 0.0321,-16.84089 0.0216,-25.26146 -0.005,-4.29013 -0.003,-8.57988 0.0181,-12.86996 0.13738,-29.56798 -1.9245,-54.48703 -21.04951,-76.9523 -14.80458,-15.75926 -32.19405,-23.15624 -52.4708,-23.10447 -0.91045,-0.002 -1.82089,-0.005 -2.75892,-0.007 -3.05174,-0.007 -6.10342,-0.005 -9.15517,-0.004 -2.20977,-0.004 -4.41955,-0.007 -6.62933,-0.0109 -6.07364,-0.01 -12.14726,-0.0121 -18.22091,-0.0128 -6.55016,-0.002 -13.10032,-0.0109 -19.65048,-0.0195 -15.07032,-0.0173 -30.14064,-0.0243 -45.21097,-0.0298 -7.45058,-0.002 -14.90114,-0.007 -22.35171,-0.0121 -25.51457,-0.0155 -51.02915,-0.0285 -76.54373,-0.0326 -1.60106,-2.7e-4 -3.20212,-5.4e-4 -4.80317,-8.1e-4 -1.60488,-2.7e-4 -3.20975,-5.3e-4 -4.81463,-8e-4 -3.21954,-5.3e-4 -6.43908,-10e-4 -9.65862,-10e-4 -1.19738,-1.9e-4 -1.19738,-1.9e-4 -2.41896,-3.9e-4 -25.87764,-0.005 -51.75526,-0.0236 -77.63288,-0.0518 -27.37286,-0.0297 -54.74569,-0.0463 -82.11856,-0.0477 -3.00664,-2e-4 -6.01326,-4.7e-4 -9.01989,-7.7e-4 -0.7403,-6e-5 -1.4806,-1.3e-4 -2.24331,-1.9e-4 -11.89763,-0.001 -23.79523,-0.0147 -35.69284,-0.0322 -11.96572,-0.0174 -23.93141,-0.0209 -35.89714,-0.0121 -6.47853,0.005 -12.95695,0.004 -19.43546,-0.0134 -5.93664,-0.0153 -11.87308,-0.0139 -17.80972,7.1e-4 -2.14186,0.002 -4.28374,-10e-4 -6.42558,-0.0121 -14.97656,-0.0691 -29.49916,0.41324 -43.02739,8.5356 z M 447.98962,554.1532 c -39.18482,3.76708 -73.75774,16.17861 -105.84003,42.26849 -0.9453,0.76749 -1.89059,1.53498 -2.86454,2.32573 -2.33798,1.98087 -4.60239,4.02771 -6.85546,6.12797 -1.58501,1.4618 -1.58501,1.4618 -3.20203,2.95314 -13.40723,12.4587 -25.90621,25.86219 -38.24298,39.61727 -0.56407,0.62752 -1.12813,1.25503 -1.70929,1.90155 -5.64941,6.29268 -11.18294,12.6211 -16.37281,19.39722 -4.15576,5.21842 -8.6071,10.12864 -13.02486,15.06788 -1.68574,1.88765 -3.36263,3.78477 -5.0393,5.68248 -6.9013,7.76029 -14.05211,14.90014 -21.76876,21.65553 -1.55564,1.37423 -1.55564,1.37423 -3.1427,2.77623 -19.5677,17.12608 -41.08847,29.38507 -64.89732,37.07692 -2.16194,0.79857 -4.32226,1.60267 -6.48,2.41534 -0.10113,30.05617 -0.1772,60.1123 -0.22383,90.16864 -0.0222,13.95723 -0.0525,27.91432 -0.10207,41.87146 -0.0432,12.17201 -0.071,24.34394 -0.0806,36.51605 -0.006,6.43874 -0.0187,12.8772 -0.0503,19.31584 -0.0296,6.0744 -0.0383,12.14842 -0.0319,18.2229 -0.001,2.21588 -0.01,4.43178 -0.0263,6.64757 -0.17093,23.84295 3.34852,44.41349 18.59231,62.27639 1.20912,1.3591 1.20912,1.3591 2.44266,2.7456 0.63902,0.7566 1.27803,1.5131 1.93641,2.2927 4.46195,4.8682 9.51121,8.1123 15.0061,11.2936 0.67251,0.3979 1.34502,0.7959 2.03792,1.2059 13.8134,7.6112 28.08546,7.4695 43.10044,7.414 2.23242,0 4.46484,0.012 6.69726,0.02 6.10621,0.017 12.21227,0.012 18.3185,0 6.59646,-0.01 13.19289,0.01 19.78934,0.022 12.16639,0.02 24.33273,0.022 36.49913,0.016 11.2423,-0.01 22.48456,0 33.72686,0 1.51022,10e-4 3.02042,0 4.53064,0 2.27598,0 4.55197,0 6.82796,0 21.14916,0.013 42.29832,0.019 63.44749,0.01 0.79658,-3e-4 1.59316,-7e-4 2.41388,-10e-4 6.46809,0 12.93618,-0.01 19.40427,-0.01 25.22627,-0.012 50.45244,0 75.67869,0.026 28.36789,0.032 56.73574,0.047 85.10364,0.038 3.02688,-9e-4 6.05375,0 9.08062,0 1.11788,-3e-4 1.11788,-3e-4 2.25833,-6e-4 11.23106,0 22.46209,0.01 33.69315,0.023 12.77786,0.018 25.55563,0.019 38.33349,0 6.51593,-0.011 13.03165,-0.013 19.54755,0.01 5.97181,0.017 11.94325,0.011 17.91504,-0.012 2.15331,0 4.30665,-10e-4 6.45994,0.012 22.21685,0.1211 42.48537,-4.3572 59.12706,-22.1308 17.30271,-19.256 22.06522,-40.33064 22.18489,-67.0034 0.0109,-5.13752 -0.0136,-10.27448 -0.0448,-15.41186 -0.0232,-4.54779 -0.0223,-9.09557 -0.0245,-13.64342 -0.006,-7.61188 -0.0297,-15.22352 -0.0638,-22.83531 -0.0438,-9.77921 -0.0623,-19.55828 -0.0727,-29.33759 -0.009,-8.42424 -0.0275,-16.84846 -0.0486,-25.27267 -0.004,-1.80592 -0.009,-3.61183 -0.0121,-5.41775 -0.0121,-5.91478 -0.0339,-11.82941 -0.0606,-17.74413 -0.004,-2.25164 -0.004,-2.25164 -0.009,-4.54878 -0.0116,-2.03356 -0.0116,-2.03356 -0.0234,-4.10819 -0.004,-1.18498 -0.01,-2.36996 -0.014,-3.59084 0.12039,-2.62977 0.12039,-2.62977 -1.22495,-3.86735 -1.98311,-0.13023 -3.97066,-0.17665 -5.95715,-0.19046 -1.27847,-0.0124 -2.55694,-0.0248 -3.87414,-0.0376 -1.40141,-0.008 -2.80282,-0.0176 -4.24669,-0.0267 -1.46185,-0.0157 -2.92368,-0.0324 -4.3855,-0.05 -6.20347,-0.074 -12.40694,-0.13865 -18.61064,-0.17996 -23.77526,-0.16732 -47.40724,-1.0251 -70.58841,-7.59159 -1.10766,-0.30784 -2.21532,-0.61569 -3.35655,-0.93287 -23.09604,-6.67695 -46.45325,-17.40591 -65.02097,-34.46699 -0.91467,-0.82664 -1.82934,-1.65328 -2.77172,-2.50496 -13.42087,-12.76202 -25.08485,-30.93682 -26.60793,-51.12908 -0.88774,-25.90431 4.25467,-46.59167 19.94652,-66.09051 3.20893,-3.75744 6.51082,-7.22816 10.12079,-10.49636 0.48587,-0.46703 0.97174,-0.93406 1.47234,-1.41525 0,-0.39853 0,-0.79706 0,-1.20767 -30.50705,0.72302 -58.87409,18.83927 -81.00002,41.06082 -0.94112,0.92005 -1.88224,1.84011 -2.85188,2.78803 -4.78975,4.72436 -9.34583,9.62741 -13.82063,14.7232 -5.6319,6.35977 -11.6207,11.95881 -17.8875,17.51124 -0.80051,0.76282 -1.60101,1.52563 -2.42579,2.31156 -14.15201,13.32919 -30.35767,23.27795 -47.25422,31.50323 0,1.59413 0,3.18825 0,4.83068 27.27879,26.22141 68.74782,40.03824 103.16349,48.36406 1.13106,0.27535 2.26213,0.5507 3.42747,0.8344 1.00255,0.23712 2.0051,0.47423 3.03803,0.71853 2.61991,0.78393 4.72393,1.59041 7.01104,3.22055 1.12746,3.86632 1.46367,6.1428 0.135,9.96328 -8.99986,8.28782 -27.13539,5.30993 -37.93501,4.52877 -7.3349,-0.93895 -14.46924,-2.72523 -21.60001,-4.83068 -0.75057,-0.21969 -1.50112,-0.43939 -2.27444,-0.66576 -46.49814,-14.0435 -95.88456,-48.00751 -120.79391,-94.95314 -3.37578,-6.5699 -6.22977,-13.25825 -8.69168,-20.31754 -0.41845,-1.17516 -0.41845,-1.17516 -0.84534,-2.37406 -8.42147,-24.90637 -8.08932,-59.9375 0.84534,-84.57826 0.52128,-1.44779 0.52128,-1.44779 1.0531,-2.92483 4.74309,-12.77471 10.35394,-23.94709 18.3869,-34.51298 0.76431,-1.04925 1.52862,-2.09851 2.31609,-3.17957 6.02094,-7.93366 12.77972,-13.82535 20.36392,-19.76618 -0.3564,-0.79707 -0.7128,-1.59413 -1.08,-2.41535 z"
         fill="#2ca98a"
         id="path4"
         style="fill:#5bc878;fill-opacity:1;stroke-width:1.14384;stroke-dasharray:none" /></g></g></svg>
