<?xml version="1.0" encoding="UTF-8" standalone="no"?>
<!-- Created with Inkscape (http://www.inkscape.org/) -->

<svg
   width="210mm"
   height="297mm"
   viewBox="0 0 210 297"
   version="1.1"
   id="svg1"
   xml:space="preserve"
   inkscape:version="1.4.2 (f4327f4, 2025-05-13)"
   sodipodi:docname="logo2.svg"
   xmlns:inkscape="http://www.inkscape.org/namespaces/inkscape"
   xmlns:sodipodi="http://sodipodi.sourceforge.net/DTD/sodipodi-0.dtd"
   xmlns="http://www.w3.org/2000/svg"
   xmlns:svg="http://www.w3.org/2000/svg"><sodipodi:namedview
     id="namedview1"
     pagecolor="#505050"
     bordercolor="#eeeeee"
     borderopacity="1"
     inkscape:showpageshadow="0"
     inkscape:pageopacity="0"
     inkscape:pagecheckerboard="0"
     inkscape:deskcolor="#505050"
     inkscape:document-units="mm"
     inkscape:zoom="1.0167041"
     inkscape:cx="254.25293"
     inkscape:cy="352.60997"
     inkscape:window-width="1920"
     inkscape:window-height="1009"
     inkscape:window-x="-8"
     inkscape:window-y="-8"
     inkscape:window-maximized="1"
     inkscape:current-layer="g1" /><defs
     id="defs1"><linearGradient
       id="swatch6"
       inkscape:swatch="solid"><stop
         style="stop-color:#000000;stop-opacity:0.65148064;"
         offset="0"
         id="stop6" /></linearGradient></defs><g
     inkscape:label="Capa 1"
     inkscape:groupmode="layer"
     id="layer1"><g
       id="g1"
       transform="matrix(0.26458333,0,0,0.26458333,-34.694076,-86.785271)"><path
         d="m 267.9275,354.89819 c 0.916,-0.002 1.83199,-0.005 2.77574,-0.006 3.08328,-0.006 6.1665,-0.002 9.24978,2.7e-4 2.22744,-0.002 4.45486,-0.005 6.6823,-0.008 6.13219,-0.007 12.26435,-0.007 18.39653,-0.006 6.60948,2.4e-4 13.21894,-0.006 19.82841,-0.0122 12.9549,-0.01 25.90982,-0.0134 38.86473,-0.014 10.53103,-5.6e-4 21.06208,-0.004 31.59311,-0.007 3.03096,-10e-4 6.06193,-0.002 9.09289,-0.004 1.13027,-4.1e-4 1.13027,-4.1e-4 2.28335,-8.1e-4 21.1995,-0.007 42.39899,-0.0122 63.59848,-0.0121 0.79948,10e-6 1.59895,4e-5 2.42265,6e-5 4.05207,10e-5 8.10414,2.2e-4 12.15623,3.4e-4 0.80474,2e-5 1.6095,5e-5 2.43864,7e-5 1.62743,5e-5 3.25484,10e-5 4.88224,1.6e-4 25.30723,7.4e-4 50.61442,-0.008 75.92163,-0.0249 28.43385,-0.0186 56.86767,-0.029 85.30151,-0.0278 3.0337,9e-5 6.06742,1.5e-4 9.10112,1.9e-4 1.12045,2e-5 1.12045,2e-5 2.26354,4e-5 12.00901,4e-5 24.01801,-0.007 36.027,-0.0181 12.07729,-0.01 24.15453,-0.0109 36.23181,-0.004 6.53992,0.004 13.07981,0.004 19.61972,-0.006 5.99174,-0.01 11.98339,-0.007 17.97512,0.002 2.16299,0.002 4.32598,-3.4e-4 6.48896,-0.007 32.6191,-0.0948 60.34575,8.3804 84.27786,33.70814 21.96337,25.46476 29.3458,56.08489 29.16564,90.50241 0.004,2.29164 0.0109,4.58328 0.0183,6.87491 0.0159,6.22878 0.005,12.45719 -0.0109,18.68596 -0.0122,6.74392 9.3e-4,13.48781 0.0109,20.23174 0.0152,13.18365 0.006,26.36716 -0.0101,39.55081 -0.0184,15.37196 -0.0149,30.74388 -0.0109,46.11585 0.006,28.26447 -0.0109,56.52887 -0.0384,84.79331 -0.0252,25.76112 -0.0311,51.52216 -0.02,77.28328 0.003,6.59968 0.005,13.19938 0.009,19.79907 3.3e-4,0.81269 6.6e-4,1.62538 9.9e-4,2.46269 0.009,21.57634 9.8e-4,43.15267 -0.0109,64.72901 -0.002,3.09497 -0.003,6.18993 -0.005,9.2849 -8.2e-4,1.52255 -0.002,3.04509 -0.002,4.61379 -0.005,10.70103 -0.003,21.40203 9.8e-4,32.10306 0.005,13.04883 -9.8e-4,26.09757 -0.0228,39.14639 -0.0109,6.65057 -0.0163,13.30102 -0.008,19.95161 0.008,6.09951 1.5e-4,12.19875 -0.0192,18.29822 -0.004,2.19476 -0.003,4.38955 0.004,6.58429 0.10598,35.25915 -8.55116,64.48905 -30.92385,90.49365 -7.15492,7.6236 -15.38377,13.2229 -24.01015,18.5679 -0.66817,0.4351 -1.33633,0.8701 -2.02474,1.3183 -16.1875,9.6801 -34.13747,10.8896 -52.11596,10.7623 -2.3021,0.01 -4.60417,0.015 -6.90626,0.026 -6.26781,0.023 -12.53516,0.01 -18.80296,-0.013 -6.78186,-0.016 -13.56365,0 -20.34551,0.017 -12.49683,0.021 -24.99345,0.014 -37.49027,-0.01 -11.54505,-0.019 -23.09005,-0.026 -34.63511,-0.021 -0.76785,3e-4 -1.53567,6e-4 -2.32678,9e-4 -3.11739,0 -6.23479,0 -9.35218,0 -29.19793,0.012 -58.39579,-0.01 -87.59371,-0.048 -25.91054,-0.034 -51.82096,-0.04 -77.7315,-0.022 -6.63869,0 -13.27737,0.01 -19.91603,0.014 -0.81745,5e-4 -1.63488,10e-4 -2.47709,0 -21.68905,0.014 -43.37811,0 -65.06717,-0.011 -2.33487,0 -4.66975,0 -7.00462,0 -1.54872,0 -3.09743,0 -4.64614,0 -11.53759,-0.01 -23.07515,0 -34.61273,0 -13.12196,0.01 -26.24376,0 -39.3657,-0.029 -6.69065,-0.015 -13.38111,-0.023 -20.07177,-0.01 -6.13137,0.012 -12.26235,0 -18.39368,-0.026 -2.21103,-0.01 -4.4221,0 -6.63312,0.01 -28.74047,0.1299 -53.3902,-9.5501 -74.40485,-32.0654 -22.50313,-25.1094 -28.60687,-56.1638 -28.53653,-90.49501 -0.003,-2.2962 -0.007,-4.59241 -0.0126,-6.88862 -0.0112,-6.27492 -0.009,-12.54975 -0.004,-18.82468 0.003,-6.78107 -0.007,-13.56212 -0.0154,-20.34318 -0.0139,-13.27139 -0.0159,-26.54275 -0.0133,-39.81413 0.002,-10.79056 3e-5,-21.58109 -0.005,-32.37164 -6.5e-4,-1.53744 -9.9e-4,-3.07488 -0.002,-4.65891 -9.9e-4,-3.12359 -0.003,-6.2472 -0.004,-9.37079 -0.008,-20.9636 -0.0128,-41.92718 -0.008,-62.89078 1.8e-4,-0.81896 3.5e-4,-1.63793 5.2e-4,-2.48172 8.8e-4,-4.15038 0.002,-8.30076 0.003,-12.45114 1.9e-4,-0.82421 3.7e-4,-1.64841 5.7e-4,-2.49759 3.8e-4,-1.66675 7.7e-4,-3.33349 9.8e-4,-5.00023 0.006,-25.93018 -0.003,-51.86029 -0.0229,-77.79046 -0.0226,-29.16627 -0.0343,-58.33249 -0.0299,-87.49877 0.002,-15.43053 -6.2e-4,-30.86101 -0.0161,-46.29153 -0.013,-13.13609 -0.0146,-26.27213 -9.9e-4,-39.40822 0.006,-6.69686 0.008,-13.39358 -0.005,-20.09043 -0.0119,-6.14068 -0.008,-12.28114 0.007,-18.42181 0.003,-2.21122 3.4e-4,-4.42245 -0.008,-6.63364 -0.12222,-33.10306 7.49007,-61.03927 28.79692,-85.3286 0.66825,-0.82819 1.3365,-1.65639 2.02501,-2.50968 14.05689,-16.84762 33.83023,-25.36981 53.63528,-30.09717 0.79246,-0.21503 1.58494,-0.43007 2.40143,-0.65162 4.0514,-0.7373 8.04819,-0.72335 12.14124,-0.7114 z m -32.27745,39.63109 c -0.72945,0.42131 -1.4589,0.8426 -2.21046,1.27667 -17.5514,10.4474 -29.50529,27.22581 -35.25101,48.32254 -2.68441,12.244 -1.98259,24.92465 -1.92673,37.44158 9.3e-4,2.90527 4e-4,5.81054 -9.9e-4,8.71581 -8.4e-4,7.04047 0.0132,14.08077 0.0342,21.1212 0.0235,8.19957 0.0283,16.3991 0.032,24.5987 0.007,14.61995 0.0289,29.23984 0.06,43.85975 0.0301,14.19329 0.0533,28.38654 0.0673,42.57985 8.6e-4,0.87638 0.002,1.75276 0.003,2.65569 0.004,4.39697 0.008,8.79393 0.0124,13.19091 0.0339,36.41827 0.0918,72.83648 0.16477,109.25469 6.92389,2.55391 16.24044,-3.53945 22.663,-6.96298 26.08009,-14.54664 50.78338,-38.49096 69.55783,-63.08195 2.45077,-3.14776 4.96085,-6.14625 7.63961,-9.05754 2.50279,-2.72688 4.87217,-5.50693 7.16212,-8.45369 12.15603,-15.57215 25.03726,-30.75687 39.22113,-44.08 0.99182,-0.96364 1.98365,-1.92727 3.00553,-2.9201 14.24222,-13.74441 29.41255,-25.99011 46.17011,-35.70415 2.09212,-1.21343 4.16837,-2.4564 6.24554,-3.70085 15.41562,-9.05503 31.90567,-15.57536 48.80472,-20.32285 0.81985,-0.23069 1.63969,-0.46138 2.48437,-0.69906 13.58353,-3.58851 27.04249,-4.73322 40.95517,-4.73014 2.6532,-0.005 5.30438,-0.0493 7.95722,-0.0949 22.14948,-0.17714 45.89395,5.13935 62.6515,22.28058 2.18273,2.41535 2.18273,2.41535 2.31916,5.58548 -0.0451,0.94651 -0.0901,1.89303 -0.13643,2.86822 -0.76812,0.2055 -1.53627,0.411 -2.32768,0.62271 -3.59522,0.97641 -7.1816,1.98824 -10.76876,3.00031 -1.20708,0.32225 -2.41414,0.64451 -3.6578,0.97652 -15.28382,4.37392 -28.84502,12.15724 -41.0884,23.1769 -0.91586,0.80174 -1.83171,1.60347 -2.77533,2.4295 -16.84361,15.63325 -27.86728,38.83038 -31.05716,62.78474 -1.77915,31.4751 3.63795,57.45802 21.82742,82.12165 0.72029,0.79706 1.4406,1.59412 2.18273,2.41534 28.53139,-1.19138 54.98328,-25.28801 73.97448,-46.835 1.94831,-2.15594 3.88553,-4.10605 6.03665,-6.00062 2.67115,-2.4746 4.70139,-5.05647 6.87648,-8.04799 3.06187,-3.87491 6.6935,-7.06185 10.24439,-10.36899 0.95666,-0.92316 1.91331,-1.84631 2.89895,-2.79745 34.35377,-32.64966 73.06712,-46.81561 118.24321,-44.30173 6.11935,0.76008 11.68111,2.46378 17.46194,4.83069 1.17472,0.45146 2.34942,0.90292 3.55975,1.36807 8.5258,3.57486 17.80606,8.81571 23.72451,16.74699 -0.34105,3.24562 -0.34105,3.24562 -1.09137,6.03836 -4.5856,1.61455 -8.93618,2.62802 -13.71035,3.32109 -13.18437,2.37077 -24.04598,9.22606 -34.30996,18.41699 -0.78362,0.6554 -1.56724,1.31081 -2.37457,1.98606 -10.39884,9.18323 -17.17576,22.20657 -19.45284,36.65942 -1.47175,16.63888 0.58149,30.01882 9.82233,43.47616 0.46848,0.71767 0.93697,1.43534 1.41963,2.17476 15.16006,21.52618 44.00102,32.45217 67.33673,37.67839 0.68056,0.15247 1.36113,0.30494 2.06231,0.46202 19.13551,4.07985 38.38807,3.63211 57.78084,3.48017 3.56235,-0.0233 7.12464,-0.028 10.68704,-0.0322 4.25741,-0.006 8.51473,-0.0237 12.7721,-0.0416 0.8083,-0.002 1.61658,-0.005 2.44936,-0.007 2.26341,-0.008 4.52663,-0.0246 6.78999,-0.0438 1.28561,-0.008 2.57123,-0.0166 3.8958,-0.025 2.79461,0.191 2.79461,0.191 3.96868,-1.37729 0.10974,-1.88302 0.14305,-3.77157 0.14649,-5.65851 0.004,-1.2315 0.0101,-2.46299 0.0148,-3.7318 -2e-4,-1.36951 -4.1e-4,-2.73901 -6e-4,-4.15 0.006,-2.16333 0.006,-2.16333 0.0121,-4.37036 0.0101,-4.02194 0.015,-8.04383 0.0179,-12.06578 0.004,-4.33139 0.0148,-8.66275 0.0242,-12.99413 0.0217,-10.47602 0.0326,-20.95204 0.0422,-31.42808 0.004,-4.93554 0.0109,-9.87109 0.0163,-14.80664 0.0186,-16.41516 0.0344,-32.83033 0.0423,-49.24551 0.002,-4.26361 0.004,-8.52723 0.006,-12.79084 5.3e-4,-1.0597 9.9e-4,-2.11938 9.9e-4,-3.21119 0.009,-17.13254 0.0367,-34.26497 0.0722,-51.39747 0.0361,-17.59909 0.0558,-35.19813 0.0593,-52.79727 0.002,-9.87702 0.0118,-19.7539 0.0398,-29.63088 0.0238,-8.42053 0.0325,-16.84089 0.0219,-25.26146 -0.005,-4.29013 -0.003,-8.57988 0.0183,-12.86996 0.13882,-29.56798 -1.94476,-54.48703 -21.27112,-76.9523 -14.96045,-15.75926 -32.533,-23.15624 -53.02323,-23.10447 -0.92004,-0.002 -1.84006,-0.005 -2.78797,-0.007 -3.08387,-0.007 -6.16768,-0.005 -9.25156,-0.004 -2.23303,-0.004 -4.46608,-0.007 -6.69912,-0.0109 -6.13759,-0.01 -12.27515,-0.0121 -18.41274,-0.0128 -6.61912,-0.002 -13.23825,-0.0109 -19.85737,-0.0195 -15.22899,-0.0173 -30.45797,-0.0243 -45.68696,-0.0298 -7.52902,-0.002 -15.05803,-0.007 -22.58704,-0.0121 -25.78319,-0.0155 -51.5664,-0.0285 -77.3496,-0.0326 -1.61792,-2.7e-4 -3.23584,-5.4e-4 -4.85374,-8.1e-4 -1.62177,-2.7e-4 -3.24354,-5.3e-4 -4.86531,-8e-4 -3.25344,-5.3e-4 -6.50688,-10e-4 -9.76032,-10e-4 -1.20999,-1.9e-4 -1.20999,-1.9e-4 -2.44443,-3.9e-4 -26.15008,-0.005 -52.30015,-0.0236 -78.45021,-0.0518 -27.66106,-0.0297 -55.32207,-0.0463 -82.98313,-0.0477 -3.03829,-2e-4 -6.07657,-4.7e-4 -9.11485,-7.7e-4 -0.74809,-6e-5 -1.4962,-1.3e-4 -2.26693,-1.9e-4 -12.02289,-10e-4 -24.04576,-0.0147 -36.06862,-0.0322 -12.0917,-0.0174 -24.18337,-0.0209 -36.27508,-0.0121 -6.54674,0.005 -13.09336,0.004 -19.64008,-0.0134 -5.99914,-0.0153 -11.99808,-0.0139 -17.99722,7.1e-4 -2.16442,0.002 -4.32885,-10e-4 -6.49323,-0.0121 -15.13425,-0.0691 -29.80974,0.41324 -43.4804,8.5356 z m 253.47088,186.35876 c -39.59738,3.76708 -74.53429,16.17861 -106.95435,42.26849 -0.95526,0.76749 -1.91049,1.53498 -2.89469,2.32573 -2.3626,1.98087 -4.65085,4.02771 -6.92765,6.12797 -1.60169,1.4618 -1.60169,1.4618 -3.23573,2.95314 -13.54839,12.4587 -26.17897,25.86219 -38.64562,39.61727 -0.57,0.62752 -1.14001,1.25503 -1.72728,1.90155 -5.7089,6.29268 -11.30068,12.6211 -16.54519,19.39722 -4.19952,5.21842 -8.69772,10.12864 -13.16199,15.06788 -1.70348,1.88765 -3.39803,3.78477 -5.09236,5.68248 -6.97396,7.76029 -14.20005,14.90014 -21.99794,21.65553 -1.57202,1.37423 -1.57202,1.37423 -3.17578,2.77623 -19.77372,17.12608 -41.52107,29.38507 -65.58058,37.07692 -2.18471,0.79857 -4.36777,1.60267 -6.54823,2.41534 -0.1022,30.05617 -0.17906,60.1123 -0.22619,90.16864 -0.0225,13.95723 -0.0531,27.91432 -0.10314,41.87146 -0.0436,12.17201 -0.0718,24.34394 -0.0814,36.51605 -0.006,6.43874 -0.0189,12.8772 -0.0508,19.31584 -0.0299,6.0744 -0.0387,12.14842 -0.0322,18.2229 -9.8e-4,2.21588 -0.0101,4.43178 -0.0266,6.64757 -0.17273,23.84295 3.38377,44.41345 18.78806,62.27635 1.22185,1.3591 1.22185,1.3591 2.46837,2.7456 0.64575,0.7566 1.29148,1.5131 1.9568,2.2927 4.50892,4.8682 9.61134,8.1123 15.16408,11.2936 0.6796,0.3979 1.35919,0.7959 2.05938,1.2059 13.95883,7.6112 28.38116,7.4695 43.55421,7.414 2.25593,0 4.51185,0.012 6.76777,0.02 6.17051,0.017 12.34085,0.012 18.51136,0 6.66592,-0.01 13.33179,0.01 19.99769,0.022 12.29448,0.02 24.58892,0.022 36.88341,0.016 11.36066,-0.01 22.72128,0 34.08194,0 1.52612,10e-4 3.05222,0 4.57834,0 2.29994,0 4.5999,0 6.89984,0 21.37183,0.013 42.74365,0.019 64.11549,0.01 0.80496,-3e-4 1.60994,-7e-4 2.43929,-10e-4 6.53619,0 13.07238,-0.01 19.60857,-0.01 25.49185,-0.012 50.98361,0 76.47545,0.026 28.66656,0.032 57.33307,0.047 85.99963,0.038 3.05875,-9e-4 6.11749,0 9.17622,0 1.12966,-3e-4 1.12966,-3e-4 2.28211,-6e-4 11.34931,0 22.69858,0.01 34.04788,0.023 12.9124,0.018 25.82469,0.019 38.73708,0 6.58453,-0.011 13.16885,-0.013 19.75335,0.01 6.03469,0.017 12.069,0.011 18.10365,-0.012 2.17598,0 4.352,-10e-4 6.52796,0.012 22.45075,0.1211 42.93266,-4.3572 59.74956,-22.1308 17.48488,-19.256 22.29753,-40.3306 22.41846,-67.00336 0.011,-5.13752 -0.0138,-10.27448 -0.0453,-15.41186 -0.0234,-4.54779 -0.0225,-9.09557 -0.0248,-13.64342 -0.006,-7.61188 -0.03,-15.22352 -0.0645,-22.83531 -0.0442,-9.77921 -0.0629,-19.55828 -0.0734,-29.33759 -0.009,-8.42424 -0.0278,-16.84846 -0.0491,-25.27267 -0.004,-1.80592 -0.009,-3.61183 -0.0122,-5.41775 -0.0122,-5.91478 -0.0343,-11.82941 -0.0612,-17.74413 -0.004,-2.25164 -0.004,-2.25164 -0.009,-4.54878 -0.0117,-2.03356 -0.0117,-2.03356 -0.0236,-4.10819 -0.004,-1.18498 -0.0101,-2.36996 -0.0142,-3.59084 0.12165,-2.62977 0.12165,-2.62977 -1.23785,-3.86735 -2.00399,-0.13023 -4.01246,-0.17665 -6.01987,-0.19046 -1.29193,-0.0124 -2.58386,-0.0248 -3.91493,-0.0376 -1.41616,-0.008 -2.83233,-0.0176 -4.2914,-0.0267 -1.47724,-0.0157 -2.95446,-0.0324 -4.43167,-0.05 -6.26878,-0.074 -12.53757,-0.13865 -18.80658,-0.17996 -24.02557,-0.16732 -47.90636,-1.0251 -71.33158,-7.59159 -1.11932,-0.30784 -2.23865,-0.61569 -3.39189,-0.93287 -23.3392,-6.67695 -46.94232,-17.40591 -65.70552,-34.46699 -0.92431,-0.82664 -1.84861,-1.65328 -2.80091,-2.50496 -13.56217,-12.76202 -25.34895,-30.93682 -26.88806,-51.12908 -0.89709,-25.90431 4.29946,-46.59167 20.15652,-66.09051 3.24272,-3.75744 6.57937,-7.22816 10.22734,-10.49636 0.49099,-0.46703 0.98198,-0.93406 1.48785,-1.41525 0,-0.39853 0,-0.79706 0,-1.20767 -30.82824,0.72302 -59.49394,18.83927 -81.85282,41.06082 -0.95103,0.92005 -1.90205,1.84011 -2.8819,2.78803 -4.84018,4.72436 -9.44422,9.62741 -13.96613,14.7232 -5.6912,6.35977 -11.74305,11.95881 -18.07583,17.51124 -0.80894,0.76282 -1.61787,1.52563 -2.45133,2.31156 -14.301,13.32919 -30.67728,23.27795 -47.75172,31.50323 0,1.59413 0,3.18825 0,4.83068 27.56598,26.22141 69.47161,40.03824 104.24961,48.36406 1.14298,0.27535 2.28595,0.5507 3.46356,0.8344 1.01311,0.23712 2.02621,0.47423 3.07001,0.71853 2.6475,0.78393 4.77367,1.59041 7.08486,3.22055 1.13933,3.86632 1.47908,6.1428 0.13642,9.96328 -9.09461,8.28782 -27.42108,5.30993 -38.3344,4.52877 -7.41212,-0.93895 -14.62157,-2.72523 -21.82742,-4.83068 -0.75847,-0.21969 -1.51692,-0.43939 -2.29838,-0.66576 -46.98769,-14.0435 -96.89406,-48.00751 -122.06567,-94.95314 -3.41131,-6.5699 -6.29535,-13.25825 -8.78318,-20.31754 -0.42285,-1.17516 -0.42285,-1.17516 -0.85424,-2.37406 -8.51013,-24.90637 -8.17449,-59.9375 0.85424,-84.57826 0.52677,-1.44779 0.52677,-1.44779 1.06418,-2.92483 4.79304,-12.77471 10.46295,-23.94709 18.58048,-34.51298 0.77237,-1.04925 1.54472,-2.09851 2.34049,-3.17957 6.08432,-7.93366 12.91426,-13.82535 20.57831,-19.76618 -0.36015,-0.79707 -0.7203,-1.59413 -1.09138,-2.41535 z"
         fill="#2ca98a"
         id="path4"
         style="opacity:0.925847;fill:#5bc878;fill-opacity:1;stroke-width:1.14984;stroke-dasharray:none" /><path
         d="m 207.58143,932.0185 c 6.49594,0 12.99191,0 19.68472,0 3.49686,9.0006 3.49686,9.0006 4.58578,13.1433 0.24532,0.9242 0.49066,1.8484 0.74342,2.8007 0.25264,0.9711 0.50529,1.9422 0.76561,2.9427 0.40364,1.53 0.40364,1.53 0.81543,3.091 0.56458,2.1434 1.12691,4.2873 1.68715,6.4317 0.8568,3.2794 1.72005,6.5572 2.58453,9.8347 0.54942,2.0891 1.09848,4.1783 1.64713,6.2676 0.25686,0.9772 0.51369,1.9543 0.77833,2.9611 0.3582,1.3722 0.3582,1.3722 0.72364,2.772 0.20918,0.7998 0.41836,1.59946 0.63388,2.42336 0.60087,2.4338 1.11842,4.8757 1.6117,7.3318 0.68379,0 1.36758,0 2.07209,0 0.22552,-0.9785 0.45106,-1.957 0.68342,-2.9651 2.58906,-11.02596 5.66813,-21.87936 8.97124,-32.72456 0.8494,-2.7945 1.68637,-5.5923 2.52281,-8.3904 0.54023,-1.7847 1.08116,-3.5692 1.62285,-5.3535 0.24826,-0.8332 0.49651,-1.6664 0.75228,-2.5248 1.78641,-5.8123 1.78641,-5.8123 4.09606,-8.0416 2.62239,-0.2523 5.08256,-0.3703 7.70554,-0.375 0.70582,-0.024 1.41163,-0.049 2.13885,-0.074 2.06601,-0.012 2.06601,-0.012 5.69619,0.4493 2.78969,2.8279 3.82667,5.6574 4.88754,9.3794 0.31089,1.0743 0.6218,2.1487 0.94211,3.2556 0.48584,1.7314 0.48584,1.7314 0.98149,3.4978 0.34055,1.1882 0.68108,2.3763 1.03194,3.6005 0.9008,3.1507 1.79338,6.3034 2.68246,9.4571 0.9088,3.2134 1.8308,6.4233 2.75072,9.6338 0.6948,2.436 1.38888,4.8722 2.0822,7.3086 0.33017,1.1583 0.66037,2.3166 1.00054,3.51 0.30112,1.0681 0.60221,2.13606 0.91245,3.23656 0.26668,0.9428 0.53339,1.8856 0.80818,2.8569 0.56906,2.2637 0.56906,2.2637 0.56906,4.2637 0.68378,0 1.36757,0 2.07208,0 0.11389,-0.5896 0.22779,-1.1791 0.34512,-1.7865 1.32043,-6.6214 2.98272,-13.11136 4.8027,-19.61976 0.29108,-1.0465 0.58219,-2.093 0.8821,-3.1712 0.61121,-2.1921 1.22425,-4.3837 1.839,-6.5749 0.94195,-3.3639 1.87269,-6.7307 2.80307,-10.0976 0.59694,-2.1356 1.19452,-4.271 1.79284,-6.4063 0.2774,-1.0082 0.55481,-2.0165 0.84065,-3.0553 0.3942,-1.3928 0.3942,-1.3928 0.79637,-2.8138 0.22841,-0.8181 0.45684,-1.6362 0.69217,-2.4791 0.74655,-1.9955 0.74655,-1.9955 2.81862,-3.9955 2.97697,-0.1986 5.83146,-0.2783 8.80633,-0.25 1.21998,-0.012 1.21998,-0.012 2.46464,-0.024 6.07925,0.02 6.07925,0.02 8.41374,2.2735 -0.3995,5.2519 -1.85235,10.0985 -3.45614,15.0976 -0.36563,1.1637 -0.36563,1.1637 -0.73863,2.3508 -0.79858,2.5394 -1.60413,5.0768 -2.40996,7.6141 -1.13256,3.5862 -2.26101,7.1736 -3.38736,10.7617 -0.2879,0.9163 -0.5758,1.8326 -0.87243,2.7767 -2.01922,6.4549 -3.95815,12.92886 -5.85371,19.41856 -0.2575,0.8775 -0.51498,1.7549 -0.78026,2.659 -1.49675,5.1028 -1.49675,5.1028 -2.97026,10.21194 -0.66901,2.3388 -1.35158,4.6736 -2.03674,7.008 -0.19379,0.6939 -0.38759,1.3879 -0.58724,2.1029 -1.0942,3.6791 -1.45626,4.7954 -4.88029,6.9987 -2.06473,0.227 -2.06473,0.227 -4.38292,0.1953 -0.83136,-0.01 -1.66274,-0.013 -2.51927,-0.019 -1.29512,-0.025 -1.29512,-0.025 -2.61639,-0.051 -1.31317,-0.014 -1.31317,-0.014 -2.65284,-0.027 -2.15922,-0.023 -4.31829,-0.059 -6.47726,-0.098 -3.348,-6.6939 -5.65828,-13.4469 -7.72173,-20.5977 -0.31605,-1.07494 -0.63217,-2.14974 -0.95781,-3.25724 -0.99846,-3.4008 -1.98732,-6.8041 -2.97587,-10.2076 -0.67928,-2.3199 -1.35917,-4.63946 -2.03971,-6.95896 -1.65847,-5.6576 -3.30909,-11.3172 -4.95357,-16.9785 -1.77677,3.3207 -2.95961,6.5538 -4.05916,10.1445 -0.56593,1.8366 -0.56593,1.8366 -1.1433,3.7102 -0.19721,0.6463 -0.39445,1.2926 -0.59769,1.9584 -0.61465,2.0135 -1.234,4.0255 -1.85479,6.03716 -0.84162,2.7279 -1.68186,5.4562 -2.52079,8.1848 -1.77321,5.7635 -3.56339,11.52204 -5.36483,17.27744 -0.30075,0.971 -0.60149,1.9421 -0.91135,2.9426 -0.41428,1.322 -0.41428,1.322 -0.83697,2.6706 -0.23906,0.7674 -0.47813,1.5348 -0.72442,2.3255 -0.63538,1.7488 -0.63538,1.7488 -1.67143,2.7488 -3.0799,0.1802 -6.11279,0.2781 -9.19483,0.3125 -1.28809,0.043 -1.28809,0.043 -2.60223,0.088 -1.24003,0.013 -1.24003,0.013 -2.5051,0.025 -0.75843,0.015 -1.51682,0.029 -2.29822,0.044 -2.91996,-0.6699 -3.53807,-2.0804 -5.15639,-4.4699 -0.90102,-2.1774 -0.90102,-2.1774 -1.63147,-4.5679 -0.28111,-0.9049 -0.5622,-1.8098 -0.85179,-2.7421 -0.44154,-1.4669 -0.44154,-1.4669 -0.89199,-2.9635 -0.31577,-1.0241 -0.63156,-2.0483 -0.95695,-3.1035 -1.02489,-3.3303 -2.03758,-6.66404 -3.04958,-9.99804 -0.69741,-2.2798 -1.39553,-4.5593 -2.09433,-6.8387 -1.04406,-3.4059 -2.08745,-6.81206 -3.12728,-10.21926 -1.97739,-6.4728 -3.99338,-12.9318 -6.0696,-19.3756 -0.44647,-1.3947 -0.89286,-2.7894 -1.33905,-4.1841 -0.79694,-2.4815 -1.60218,-4.9605 -2.41709,-7.4365 -0.5166,-1.6226 -0.5166,-1.6226 -1.04363,-3.2779 -0.29715,-0.9124 -0.59431,-1.8248 -0.90045,-2.7649 -0.49172,-2.528 -0.49172,-2.528 0.54433,-7.528 z"
         fill="#2ba889"
         id="path5"
         style="opacity:0.925847;fill:#5bc878;fill-opacity:1;stroke-width:1.01946;stroke-dasharray:none" /><path
         id="path6"
         style="opacity:0.925847;fill:#5bc878;fill-opacity:1;stroke-width:1.01946;stroke-dasharray:none"
         d="m 385.6568,930.4418 c -4.83826,-0.1325 -9.65711,0.4243 -14.1221,1.7012 -11.78917,4.5219 -18.51915,10.7788 -24.27402,21.6055 -0.84989,2.2695 -0.84989,2.2695 0.18615,5.2695 2.12444,0.115 4.24956,0.2226 6.37608,0.293 1.32538,0.041 1.32538,0.041 2.62451,0.082 2.51945,0.1497 4.96483,0.2154 7.48698,0.1113 2.6146,-0.588 3.44472,-1.3601 5.10734,-3.3613 2.89294,-4.0468 5.74094,-5.6377 10.52227,-7.125 6.70201,-0.8336 12.13768,0.206 17.61264,4 3.29812,3.9518 3.4119,7.0153 3.10811,12 -2.78665,0.5554 -5.57395,1.0649 -8.37935,1.5254 l -3.55126,0.5605 c -2.67097,0.4301 -5.342,0.8598 -8.01313,1.2891 -8.34089,1.3081 -16.80457,2.3339 -24.60588,5.625 -6.43957,3.7664 -10.47229,8.9984 -12.43246,15.99996 -0.89437,6.9686 0.49551,13.91824 4.14415,20.00004 5.31207,6.6841 12.31297,10.9706 20.8705,12.6328 10.5268,1.133 19.3412,-0.6636 28.10658,-6.4258 3.42966,-2.1866 3.42966,-2.1866 6.96898,-4.207 0,3.375 0,3.375 2.07207,9 1.94727,0.019 3.89456,0.037 5.84187,0.049 0.80978,0 1.59572,0.01 2.3817,0.014 2.79272,0.03 5.55932,0.011 8.35304,-0.062 1.03603,-1 1.03537,-0.9993 1.1878,-3.3613 0.0104,-1.0801 0.0202,-2.1295 0.0303,-3.1778 0.0137,-1.2216 0.0272,-2.4061 0.0405,-3.5918 0.009,-1.3338 0.0165,-2.6292 0.0243,-3.9238 0.0222,-3.4392 0.0425,-6.8771 0.0528,-10.31644 0.0104,-3.5971 0.0274,-7.1941 0.0688,-10.791 0.0324,-2.80186 0.0548,-5.60416 0.0626,-8.40626 0.002,-1.3495 0.006,-2.6993 0.0104,-4.0488 0.0687,-4.8281 0.0883,-9.5777 -0.44114,-14.3828 -2.47057,-9.2144 -6.62316,-16.6077 -14.63402,-22.3125 -6.60724,-3.9074 -14.72301,-6.0428 -22.78678,-6.2637 z m 16.70004,49.5762 c 1.06821,12.69706 1.06821,12.69706 -2.33109,16.93746 -6.10948,5.55014 -13.99517,9.35144 -22.40432,9.75004 -3.51459,-0.2255 -6.13574,-0.6995 -9.06532,-2.625 -3.20587,-3.9901 -3.86398,-7.07124 -3.49664,-12.06254 0.98982,-3.0709 2.04393,-4.3242 4.81192,-6.082 5.06428,-2.4955 10.42298,-3.63236 15.97359,-4.66796 l 2.07208,-0.3867 c 4.89151,-0.8312 9.49747,-0.9697 14.43978,-0.8633 z" /><path
         id="path7"
         style="opacity:0.925847;fill:#5bc878;fill-opacity:1;stroke-width:1.01946;stroke-dasharray:none"
         d="m 567.27711,930.4867 c -4.47776,-0.1444 -8.99998,0.3936 -13.39969,1.6563 -11.8845,4.5842 -20.25637,11.5444 -26.09117,22.5664 l -1.10484,2.3086 c -2.75452,5.7125 -3.30155,11.2174 -3.4177,17.4473 -0.006,0.9108 -0.0101,1.7936 -0.0143,2.6777 -0.033,4.8657 0.0908,9.49316 1.2667,14.24216 3.80554,12.24394 11.4001,21.22494 22.88593,27.63284 10.23499,4.3205 21.35427,5.8246 32.19407,2.6836 l 1.99518,-0.6836 c 4.16334,-1.4154 7.91513,-3.0451 11.53807,-5.5 6.97837,-5.5425 12.18857,-11.6979 13.32686,-20.50004 -2.40462,-0.082 -4.80816,-0.1482 -7.21383,-0.1953 -1.49092,-0.028 -1.49092,-0.028 -2.95231,-0.055 -0.9914,-0.034 -1.95364,-0.068 -2.91589,-0.1016 l -2.80256,-0.039 c -0.87763,-0.022 -1.73018,-0.042 -2.58201,-0.062 -2.25494,0.4541 -2.25391,0.4531 -3.97011,2.3847 -1.72637,2.5654 -3.38146,3.42734 -6.18385,4.81844 -6.15007,2.8333 -11.53171,3.3315 -18.00117,1.25 -6.4954,-3.23134 -10.92655,-6.54974 -13.28435,-13.50984 l -0.81143,-2.6972 c -0.48477,-1.5968 -0.96736,-3.1942 -1.44478,-4.79296 7.20906,0.042 14.41812,0.076 21.62728,0.098 3.67365,0.01 7.34645,0.021 11.02005,0.041 3.60063,0.022 7.20081,0.041 10.8015,0.049 2.07179,0 2.07295,0 4.10369,0.01 1.36656,0.011 2.69232,0.021 4.0187,0.031 h 3.7091 c 3.27666,0.013 3.27616,0.014 5.84591,-0.2266 2.07209,-2 2.07208,-2 2.34727,-5.2305 -0.009,-1.9983 -0.009,-1.9983 -0.0161,-3.957 0.0161,-3.918 0.0161,-3.918 -0.259,-7.8125 -2.88555,-11.6605 -8.82409,-21.2813 -18.97245,-28.3125 -6.44073,-3.841 -13.77991,-5.978 -21.24282,-6.2188 z m -1.30315,17.3711 c 3.18902,-0.1407 6.45309,0.4226 9.59551,1.7852 5.1319,2.7443 9.21308,6.9644 11.20216,12.375 0.19424,2.6875 0.19424,2.6875 0,5 -1.03605,1 -1.0358,0.9997 -4.76741,1.1133 -1.66055,-2e-4 -3.32137,-0.01 -4.98189,-0.016 -0.87237,0 -1.7459,0 -2.64471,0 -2.7976,-0.01 -5.59395,-0.019 -8.39151,-0.031 -1.89199,0 -3.78398,-0.01 -5.67596,-0.014 -4.64805,-0.011 -9.29601,-0.028 -13.94402,-0.049 -1.27789,-4.3247 -0.42439,-6.1464 1.76452,-10.0391 4.1771,-6.0963 10.82748,-9.8115 17.84331,-10.1211 z" /><path
         d="m 724.37014,897.831 c 1.00096,6e-4 2.00194,0 3.03324,0 7.37582,0.045 7.37582,0.045 8.55744,1.1856 0.10267,2.3316 0.13437,4.6663 0.1295,7 0.004,1.9181 0.004,1.9181 0.009,3.875 -0.13759,3.125 -0.13759,3.125 -1.17364,4.125 -3.64907,0.4602 -7.30332,0.8373 -10.96338,1.207 -3.90739,0.875 -5.24136,1.7943 -7.68529,4.793 -1.24607,2.4054 -1.1404,3.9499 -1.10079,6.625 0.0102,0.8172 0.0187,1.6345 0.0283,2.4765 0.012,0.6265 0.024,1.253 0.0363,1.8985 0.58546,0.02 1.17091,0.04 1.77411,0.06 2.64673,0.095 5.29261,0.2049 7.93873,0.315 0.92151,0.031 1.84303,0.062 2.79244,0.094 0.88146,0.039 1.76289,0.077 2.67103,0.1172 0.81386,0.031 1.62769,0.063 2.46617,0.095 2.04222,0.3189 2.04222,0.3189 4.11431,2.3189 0.27519,3.1875 0.27519,3.1875 0.259,7 0.009,1.8872 0.009,1.8872 0.0161,3.8125 -0.27522,3.1875 -0.27522,3.1875 -2.34728,5.1875 -2.04223,0.3188 -2.04223,0.3188 -4.50838,0.414 -0.88145,0.039 -1.76289,0.077 -2.67104,0.1172 -0.92151,0.031 -1.84301,0.062 -2.79244,0.094 -1.39429,0.058 -1.39429,0.058 -2.81674,0.1172 -2.2985,0.094 -4.59696,0.1799 -6.89612,0.2578 -0.009,0.8474 -0.0168,1.6949 -0.0255,2.5681 -0.0807,7.9756 -0.17108,15.9511 -0.27251,23.9265 -0.0519,4.1006 -0.0998,8.20106 -0.13919,12.30176 -0.0382,3.9553 -0.0863,7.9103 -0.1411,11.86544 -0.0192,1.5111 -0.035,3.0222 -0.0469,4.5334 -0.0174,2.1121 -0.0475,4.2236 -0.0806,6.3355 -0.0138,1.2036 -0.0277,2.4072 -0.0418,3.6472 -0.28852,2.8221 -0.28852,2.8221 -2.3606,4.8221 -2.99552,0.1718 -5.87892,0.2323 -8.87106,0.1875 -0.82202,-7e-4 -1.64404,-10e-4 -2.49095,0 -6.10532,-0.045 -6.10532,-0.045 -7.28667,-1.1856 -0.12844,-2.1467 -0.18441,-4.2974 -0.21273,-6.4475 -0.0103,-0.6731 -0.0205,-1.3463 -0.0312,-2.0398 -0.0328,-2.2347 -0.0585,-4.4693 -0.084,-6.7041 -0.0214,-1.5456 -0.043,-3.0911 -0.0654,-4.6367 -0.0572,-4.07544 -0.10843,-8.15084 -0.15833,-12.22634 -0.0521,-4.1558 -0.1097,-8.31136 -0.16696,-12.46706 -0.11155,-8.1594 -0.21662,-16.3189 -0.31768,-24.4785 -1.44036,-0.091 -1.44036,-0.091 -2.90982,-0.1836 -1.24069,-0.084 -2.48137,-0.1675 -3.75967,-0.2538 -1.23801,-0.081 -2.47606,-0.1625 -3.75161,-0.2461 -3.04739,-0.3164 -3.04739,-0.3164 -4.08344,-1.3164 -0.10338,-2.6773 -0.14379,-5.3231 -0.12949,-8 -0.004,-0.7503 -0.009,-1.5005 -0.012,-2.2735 0.0104,-5.5999 0.0104,-5.5999 1.17767,-6.7265 2.0886,-0.2343 4.18403,-0.4134 6.28101,-0.5625 1.14452,-0.084 2.28906,-0.1676 3.46829,-0.2539 0.88543,-0.061 1.77088,-0.1212 2.68317,-0.1836 0.003,-1.039 0.006,-2.078 0.009,-3.1485 0.18554,-8.8276 0.79563,-16.0089 7.24419,-22.8515 7.79821,-6.2999 15.8405,-7.3107 25.7067,-7.1875 z"
         fill="#29a888"
         id="path8"
         style="opacity:0.925847;fill:#5bc878;fill-opacity:1;stroke-width:1.01946;stroke-dasharray:none" /><path
         d="m 431.36564,932.0185 c 3.21585,-0.087 6.43136,-0.1405 9.64809,-0.1875 0.91283,-0.025 1.82566,-0.05 2.76616,-0.076 1.31715,-0.014 1.31715,-0.014 2.66091,-0.029 1.21262,-0.024 1.21262,-0.024 2.44971,-0.048 2.77859,0.4381 3.47411,1.2777 5.26796,3.3406 0.88955,1.9927 0.88955,1.9927 1.60211,4.2934 0.27344,0.8659 0.54688,1.7317 0.82859,2.6238 0.28499,0.9374 0.56996,1.8748 0.86356,2.8406 0.30528,0.9764 0.61055,1.9529 0.92505,2.9589 0.97714,3.1335 1.94041,6.2707 2.90346,9.4083 0.63987,2.0588 1.28065,4.1174 1.92233,6.1757 1.5463,4.9688 3.07859,9.9415 4.60437,14.9162 0.81936,2.6669 1.64434,5.33206 2.47084,7.99686 0.47871,1.5511 0.95728,3.1022 1.43567,4.6534 0.21869,0.7021 0.43738,1.4042 0.66267,2.1277 1.46607,4.7772 1.46607,4.7772 1.46607,7.00514 2.35973,-0.85754 2.35973,-0.85754 3.09394,-3.57454 0.35727,-1.1464 0.71451,-2.2929 1.08259,-3.4741 0.19908,-0.6309 0.39815,-1.2618 0.60326,-1.9119 0.43203,-1.3729 0.86037,-2.7469 1.28542,-4.1219 0.67237,-2.1745 1.35435,-4.34596 2.03895,-6.51696 1.45173,-4.6101 2.89043,-9.224 4.3283,-13.8381 1.66607,-5.342 3.33738,-10.6824 5.01907,-16.0199 0.67239,-2.1422 1.33662,-4.2867 2.00049,-6.4314 0.41175,-1.3112 0.82386,-2.6223 1.23638,-3.9333 0.35724,-1.1472 0.71449,-2.2945 1.08257,-3.4765 1.02186,-2.7014 1.02186,-2.7014 3.09395,-4.7014 2.9741,-0.1722 5.83551,-0.2323 8.80632,-0.1875 1.21999,9e-4 1.21999,9e-4 2.46463,0 6.05062,0.045 6.05062,0.045 8.41378,1.1856 -0.55527,6.9003 -2.57802,12.7807 -5.07904,19.2422 -0.40792,1.074 -0.81583,2.1481 -1.23612,3.2547 -1.31793,3.4626 -2.64867,6.9204 -3.98048,10.3781 -0.90424,2.3642 -1.80799,4.7286 -2.71127,7.0932 -2.55686,6.6825 -5.13206,13.35816 -7.71386,20.03176 -0.33125,0.8576 -0.6625,1.7152 -1.0038,2.5988 -1.74427,4.51424 -3.50212,9.02314 -5.27718,13.52624 -0.39991,1.0207 -0.79982,2.0415 -1.21183,3.0932 -0.36,0.9 -0.72001,1.7999 -1.09092,2.7271 -0.29791,0.7478 -0.59581,1.4956 -0.90275,2.2661 -0.8739,1.7886 -0.8739,1.7886 -2.94599,3.7886 -3.58187,0.5027 -7.19818,0.4166 -10.81363,0.4375 -1.0023,0.033 -2.00462,0.066 -3.0373,0.1 -1.44337,0.011 -1.44337,0.011 -2.91589,0.021 -0.88202,0.013 -1.76404,0.027 -2.67279,0.041 -2.31717,-0.5993 -2.31717,-0.5993 -3.93421,-2.4997 -2.08455,-4.3333 -3.79279,-8.7601 -5.47335,-13.252 -0.37926,-1.0005 -0.75851,-2.001 -1.14928,-3.0318 -1.2303,-3.24924 -2.45294,-6.50114 -3.67478,-9.75334 -1.25996,-3.3421 -2.52098,-6.6838 -3.78211,-10.02546 -0.83676,-2.2177 -1.67283,-4.4357 -2.50817,-6.6539 -2.40914,-6.3894 -4.85558,-12.7634 -7.35223,-19.1214 -0.79744,-2.0436 -1.59415,-4.0875 -2.39078,-6.1314 -0.72155,-1.8395 -1.45586,-3.6743 -2.19046,-5.509 -0.42201,-1.0868 -0.84404,-2.1735 -1.27885,-3.2932 -0.54627,-1.3782 -0.54627,-1.3782 -1.10357,-2.7842 -0.71535,-2.8767 -0.41327,-4.7192 0.40344,-7.5439 z"
         fill="#2ba889"
         id="path9"
         style="opacity:0.925847;fill:#5bc878;fill-opacity:1;stroke-width:1.01946;stroke-dasharray:none" /><path
         d="m 807.67408,908.8857 c 1.32017,0 1.32017,0 2.66699,0 1.38826,0.01 1.38826,0.01 2.80459,0.012 0.92551,0 1.85102,-0.01 2.80458,-0.012 0.8801,0 1.76021,0 2.66698,0 0.81266,0 1.62533,0 2.46263,0 1.90817,0.1294 1.90817,0.1294 2.94419,1.1294 0.16252,1.5595 0.25981,3.1254 0.32782,4.6914 0.0433,0.9442 0.0868,1.8885 0.13153,2.8613 0.0407,0.9932 0.0814,1.9865 0.12343,3.0098 0.0448,0.9971 0.0895,1.9942 0.13557,3.0215 0.11029,2.4718 0.21598,4.9438 0.3177,7.416 0.61141,0.02 1.22283,0.04 1.85278,0.06 2.77158,0.095 5.54234,0.205 8.31334,0.315 0.96224,0.031 1.92448,0.062 2.91589,0.094 0.92484,0.039 1.84968,0.077 2.80256,0.1172 0.85181,0.031 1.70363,0.063 2.58123,0.095 2.25496,0.3189 2.25496,0.3189 5.36308,2.3189 0.37637,3.1875 0.37637,3.1875 0.32375,7 -0.004,1.2581 -0.009,2.5162 -0.012,3.8125 -0.31161,3.1875 -0.31161,3.1875 -2.38369,5.1875 -2.12088,0.303 -2.12088,0.303 -4.69859,0.3789 -0.92351,0.034 -1.84701,0.068 -2.79852,0.1035 -1.44937,0.04 -1.44937,0.04 -2.92803,0.08 -1.91166,0.06 -3.82323,0.1233 -5.73462,0.1914 -0.84949,0.024 -1.69895,0.048 -2.57416,0.072 -1.99493,-0.032 -1.99493,-0.032 -3.02288,1.1736 -0.13072,3.0206 -0.19553,6.0171 -0.21045,9.039 -0.0101,1.3714 -0.0101,1.3714 -0.018,2.7704 -0.0104,1.9419 -0.0165,3.8839 -0.0205,5.8258 -0.0104,2.9565 -0.042,5.9123 -0.0748,8.8687 -0.008,1.8867 -0.0122,3.7734 -0.0161,5.66006 -0.0127,0.8795 -0.0257,1.7589 -0.0389,2.665 0.0203,5.4792 0.71891,9.3465 3.48682,14.17104 3.76678,2.4238 6.00596,2.3536 10.48989,2.5625 7.02128,0.3395 7.02128,0.3395 8.1588,1.4375 0.10288,2.3107 0.13437,4.6246 0.12949,6.9375 0.004,1.9007 0.004,1.9007 0.009,3.8398 -0.13759,3.2227 -0.13759,3.2227 -1.17362,5.2227 -8.96362,2.8839 -21.63252,1.8537 -30.19485,-2 -6.14988,-3.3479 -9.95332,-7.4962 -12.32346,-13.917 -1.4632,-5.0819 -1.34363,-10.20974 -1.38787,-15.45024 -0.0264,-1.613 -0.0264,-1.613 -0.0533,-3.2586 -0.0548,-3.41626 -0.0967,-6.83266 -0.13684,-10.24916 -0.0456,-3.4379 -0.0937,-6.8757 -0.14796,-10.3135 -0.0331,-2.1356 -0.0611,-4.2712 -0.0831,-6.4069 -0.014,-0.9584 -0.028,-1.9167 -0.0423,-2.9041 -0.0104,-0.8472 -0.0196,-1.6943 -0.0297,-2.5671 0.0685,-1.94 0.0685,-1.94 -1.18602,-2.9334 -2.90943,-0.284 -5.81888,-0.4485 -8.73752,-0.6211 -2.65889,-0.3789 -2.65889,-0.3789 -4.73098,-2.3789 -0.27519,-3.1875 -0.27519,-3.1875 -0.259,-7 -0.006,-1.2581 -0.0107,-2.5163 -0.0161,-3.8125 0.27519,-3.1875 0.27519,-3.1875 2.34727,-5.1875 2.92195,-0.4141 2.92195,-0.4141 6.34574,-0.625 1.1352,-0.075 2.27038,-0.1496 3.43997,-0.2266 0.87343,-0.049 1.74684,-0.098 2.64676,-0.1484 0.026,-0.6309 0.052,-1.2619 0.0787,-1.9119 0.11978,-2.8421 0.2471,-5.6838 0.37461,-8.5256 0.0612,-1.4899 0.0612,-1.4899 0.12343,-3.0098 0.0433,-0.9442 0.0869,-1.8885 0.13153,-2.8613 0.0381,-0.8746 0.0759,-1.7491 0.11508,-2.6502 0.38748,-3.7179 2.18511,-3.1693 5.61958,-3.174 z"
         fill="#2aa889"
         id="path10"
         style="opacity:0.925847;fill:#5bc878;fill-opacity:1;stroke-width:1.01946;stroke-dasharray:none" /><path
         d="m 756.90821,932.8857 c 1.32016,0 1.32016,0 2.667,0 1.38826,0.01 1.38826,0.01 2.80457,0.012 0.92552,0 1.85103,-0.01 2.8046,-0.012 0.88011,0 1.7602,0 2.66699,0 0.81265,0 1.62532,0 2.46261,0 1.90817,0.1294 1.90817,0.1294 2.94422,1.1294 0.10955,2.6366 0.15206,5.2472 0.15047,7.8845 0.003,0.826 0.008,1.652 0.0106,2.503 0.0102,2.7445 0.0118,5.489 0.0129,8.2336 0.003,1.8995 0.008,3.799 0.0105,5.6985 0.007,3.9873 0.009,7.9746 0.008,11.9619 -9e-5,5.1194 0.0141,10.2387 0.032,15.35816 0.0115,3.9246 0.0136,7.8493 0.013,11.774 9.2e-4,1.8879 0.007,3.77584 0.0138,5.66374 0.0104,2.6363 0.008,5.2723 9.3e-4,7.9087 0.007,0.786 0.0117,1.5721 0.0177,2.3819 -0.0326,5.4037 -0.0326,5.4037 -2.34141,7.632 -2.97697,0.1986 -5.83145,0.2783 -8.80631,0.25 -1.22001,0.012 -1.22001,0.012 -2.46465,0.023 -6.07925,-0.02 -6.07925,-0.02 -8.41375,-2.2734 -0.20025,-2.7054 -0.27172,-5.3079 -0.25167,-8.0139 -0.002,-0.8278 -0.004,-1.6555 -0.007,-2.5083 -0.004,-2.744 0.008,-5.4878 0.0189,-8.2317 9.2e-4,-1.90054 0.002,-3.80104 9.2e-4,-5.70144 0.002,-3.9856 0.0103,-7.971 0.0241,-11.95656 0.0177,-5.1206 0.0216,-10.2411 0.0209,-15.3617 2.9e-4,-3.9247 0.007,-7.8493 0.0135,-11.7739 0.003,-1.8888 0.006,-3.7775 0.007,-5.6663 0.002,-2.6339 0.0113,-5.2678 0.0222,-7.9017 -4.3e-4,-0.7881 -8.8e-4,-1.5761 -9.1e-4,-2.3881 0.041,-6.6216 0.041,-6.6216 5.55873,-6.6292 z"
         fill="#29a888"
         id="path11"
         style="opacity:0.925847;fill:#5bc878;fill-opacity:1;stroke-width:1.01946;stroke-dasharray:none" /><path
         d="m 631.60478,965.7406 c 1.33392,0.01 1.33392,0.01 2.69481,0.012 1.36797,0 1.36797,0 2.7636,-0.01 1.92994,0 3.85986,0 5.78977,0.011 2.96063,0.011 5.92061,10e-5 8.88121,-0.013 1.87242,0 3.74484,0 5.61726,0.01 0.8893,0 1.77858,-0.01 2.69481,-0.012 6.26182,0.048 6.26182,0.048 8.5721,2.2779 0.17791,2.7269 0.24084,5.339 0.19426,8.0625 -6.6e-4,0.7457 -9.2e-4,1.4914 -0.002,2.2597 -0.0469,5.53746 -0.0469,5.53746 -1.22828,6.67776 -3.20218,0.1011 -6.38076,0.1396 -9.58335,0.1328 -0.96189,9e-4 -1.9238,0 -2.91485,0 -2.03803,7e-4 -4.07602,0 -6.11404,-0.01 -3.13111,-0.01 -6.26205,-1e-4 -9.39316,0.01 -1.97494,-7e-4 -3.94989,0 -5.92484,0 -1.41481,0 -1.41481,0 -2.85821,0.01 -6.60604,-0.024 -6.60604,-0.024 -7.76118,-1.139 -0.13113,-2.65816 -0.19185,-5.27876 -0.19425,-7.93746 -0.0126,-0.7418 -0.0254,-1.4836 -0.0385,-2.248 -0.006,-1.9396 0.10643,-3.8787 0.2327,-5.8144 2.7566,-2.6607 4.82256,-2.2492 8.57211,-2.2779 z"
         fill="#2aa888"
         id="path12"
         style="opacity:0.925847;fill:#5bc878;fill-opacity:1;stroke-width:1.01946;stroke-dasharray:none" /><path
         d="m 769.4378,898.706 c 3.78955,3.1473 5.60366,5.4408 6.34573,10.25 -0.72076,4.8697 -3.06038,7.8261 -6.9285,10.9375 -3.77485,1.4905 -7.15618,1.8168 -11.13741,1.125 -3.88736,-2.0151 -5.83957,-3.4547 -8.2883,-7 -0.72441,-4.7969 -0.74059,-8.7746 1.81305,-13 5.5919,-4.7977 11.47806,-5.6155 18.19543,-2.3125 z"
         fill="#2ca889"
         id="path15"
         style="opacity:0.925847;fill:#5bc878;fill-opacity:1;stroke-width:1.01946;stroke-dasharray:none" /></g></g></svg>
