<?xml version="1.0" encoding="UTF-8" standalone="no"?>
<!-- Created with Inkscape (http://www.inkscape.org/) -->

<svg
   width="210mm"
   height="297mm"
   viewBox="0 0 210 297"
   version="1.1"
   id="svg1"
   xml:space="preserve"
   inkscape:version="1.4.2 (f4327f4, 2025-05-13)"
   sodipodi:docname="logo1.svg"
   xmlns:inkscape="http://www.inkscape.org/namespaces/inkscape"
   xmlns:sodipodi="http://sodipodi.sourceforge.net/DTD/sodipodi-0.dtd"
   xmlns="http://www.w3.org/2000/svg"
   xmlns:svg="http://www.w3.org/2000/svg"><sodipodi:namedview
     id="namedview1"
     pagecolor="#505050"
     bordercolor="#eeeeee"
     borderopacity="1"
     inkscape:showpageshadow="0"
     inkscape:pageopacity="0"
     inkscape:pagecheckerboard="0"
     inkscape:deskcolor="#505050"
     inkscape:document-units="mm"
     inkscape:zoom="0.71891836"
     inkscape:cx="139.09785"
     inkscape:cy="487.53797"
     inkscape:window-width="1920"
     inkscape:window-height="1009"
     inkscape:window-x="-8"
     inkscape:window-y="-8"
     inkscape:window-maximized="1"
     inkscape:current-layer="g1" /><defs
     id="defs1"><linearGradient
       id="swatch6"
       inkscape:swatch="solid"><stop
         style="stop-color:#000000;stop-opacity:0.65148064;"
         offset="0"
         id="stop6" /></linearGradient></defs><g
     inkscape:label="Capa 1"
     inkscape:groupmode="layer"
     id="layer1"><g
       id="g1"
       transform="matrix(0.26458333,0,0,0.26458333,-34.694076,-86.785271)"><path
         d="m 266.896,354.89819 c 0.90645,-0.002 1.8129,-0.005 2.74682,-0.006 3.05115,-0.006 6.10225,-0.002 9.15341,2.7e-4 2.20423,-0.002 4.40845,-0.005 6.61268,-0.008 6.0683,-0.007 12.13657,-0.007 18.20487,-0.006 6.54061,2.4e-4 13.08121,-0.006 19.62182,-0.0122 12.81993,-0.01 25.63987,-0.0134 38.45981,-0.014 10.42132,-5.6e-4 20.84264,-0.004 31.26396,-0.007 2.99938,-10e-4 5.99877,-0.002 8.99815,-0.004 1.11849,-4.1e-4 1.11849,-4.1e-4 2.25957,-8.1e-4 20.97863,-0.007 41.95725,-0.0122 62.93587,-0.0121 0.79115,10e-6 1.58229,4e-5 2.39741,6e-5 4.00986,10e-5 8.01971,2.2e-4 12.02957,3.4e-4 0.79637,2e-5 1.59274,5e-5 2.41325,7e-5 1.61046,5e-5 3.22092,10e-5 4.83137,1.6e-4 25.04356,7.4e-4 50.08709,-0.008 75.13063,-0.0249 28.13761,-0.0186 56.27519,-0.029 84.41279,-0.0278 3.0021,9e-5 6.0042,1.5e-4 9.0063,1.9e-4 1.10878,2e-5 1.10878,2e-5 2.23996,4e-5 11.88389,4e-5 23.76777,-0.007 35.65165,-0.0181 11.95145,-0.01 23.90287,-0.0109 35.85432,-0.004 6.47179,0.004 12.94354,0.004 19.41532,-0.006 5.92931,-0.01 11.85854,-0.007 17.78784,0.002 2.14045,0.002 4.28091,-3.4e-4 6.42135,-0.007 32.27926,-0.0948 59.71704,8.3804 83.39981,33.70814 21.73454,25.46476 29.04006,56.08489 28.86177,90.50241 0.004,2.29164 0.0108,4.58328 0.0181,6.87491 0.0158,6.22878 0.005,12.45719 -0.0108,18.68596 -0.0121,6.74392 9.2e-4,13.48781 0.0108,20.23174 0.015,13.18365 0.006,26.36716 -0.01,39.55081 -0.0182,15.37196 -0.0147,30.74388 -0.0108,46.11585 0.006,28.26447 -0.0108,56.52887 -0.038,84.79331 -0.0249,25.76112 -0.0308,51.52216 -0.0198,77.28328 0.003,6.59968 0.005,13.19938 0.009,19.79907 3.2e-4,0.81269 6.5e-4,1.62538 9.7e-4,2.46269 0.009,21.57634 10e-4,43.15267 -0.0108,64.72901 -0.002,3.09497 -0.003,6.18993 -0.005,9.2849 -8.1e-4,1.52255 -0.002,3.04509 -0.002,4.61379 -0.005,10.70103 -0.003,21.40203 0.001,32.10306 0.005,13.04883 -0.001,26.09757 -0.0226,39.14639 -0.0108,6.65057 -0.0162,13.30102 -0.008,19.95161 0.008,6.09951 1.5e-4,12.19875 -0.019,18.29822 -0.004,2.19476 -0.003,4.38955 0.004,6.58429 0.10487,35.25915 -8.46206,64.48905 -30.60166,90.49365 -7.08038,7.6236 -15.2235,13.2229 -23.76,18.5679 -0.66121,0.4351 -1.32241,0.8701 -2.00365,1.3183 -16.01885,9.6801 -33.78181,10.8896 -51.57298,10.7623 -2.27812,0.01 -4.55621,0.015 -6.83431,0.026 -6.20251,0.023 -12.40456,0.01 -18.60706,-0.013 -6.7112,-0.016 -13.42234,0 -20.13354,0.017 -12.36663,0.021 -24.73305,0.014 -37.09967,-0.01 -11.42477,-0.019 -22.84949,-0.026 -34.27427,-0.021 -0.75984,3e-4 -1.51967,6e-4 -2.30254,9e-4 -3.08491,0 -6.16983,0 -9.25474,0 -28.89373,0.012 -57.78739,-0.01 -86.68111,-0.048 -25.64058,-0.034 -51.28106,-0.04 -76.92165,-0.022 -6.56952,0 -13.13903,0.01 -19.70853,0.014 -0.80893,5e-4 -1.61785,10e-4 -2.45128,0 -21.46309,0.014 -42.92617,0 -64.38926,-0.011 -2.31055,0 -4.6211,0 -6.93165,0 -1.53258,0 -3.06515,0 -4.59773,0 -11.41738,-0.01 -22.83474,0 -34.25212,0 -12.98524,0.01 -25.97034,0 -38.95556,-0.029 -6.62095,-0.015 -13.2417,-0.023 -19.86265,-0.01 -6.06749,0.012 -12.1346,0 -18.20204,-0.026 -2.188,-0.01 -4.37603,0 -6.56402,0.01 -28.44103,0.1299 -52.83395,-9.5501 -73.62966,-32.0654 -22.26868,-25.1094 -28.30882,-56.1638 -28.23921,-90.49501 -0.003,-2.2962 -0.007,-4.59241 -0.0125,-6.88862 -0.0111,-6.27492 -0.009,-12.54975 -0.004,-18.82468 0.003,-6.78107 -0.007,-13.56212 -0.0152,-20.34318 -0.0137,-13.27139 -0.0157,-26.54275 -0.0132,-39.81413 0.002,-10.79056 3e-5,-21.58109 -0.005,-32.37164 -6.4e-4,-1.53744 -0.001,-3.07488 -0.002,-4.65891 -0.001,-3.12359 -0.003,-6.2472 -0.004,-9.37079 -0.008,-20.9636 -0.0127,-41.92718 -0.008,-62.89078 1.7e-4,-0.81896 3.4e-4,-1.63793 5.1e-4,-2.48172 8.7e-4,-4.15038 0.002,-8.30076 0.003,-12.45114 1.9e-4,-0.82421 3.7e-4,-1.64841 5.6e-4,-2.49759 3.8e-4,-1.66675 7.6e-4,-3.33349 0.001,-5.00023 0.006,-25.93018 -0.003,-51.86029 -0.0227,-77.79046 -0.0224,-29.16627 -0.0339,-58.33249 -0.0296,-87.49877 0.002,-15.43053 -6.1e-4,-30.86101 -0.0159,-46.29153 -0.0129,-13.13609 -0.0144,-26.27213 -0.001,-39.40822 0.006,-6.69686 0.008,-13.39358 -0.005,-20.09043 -0.0118,-6.14068 -0.008,-12.28114 0.007,-18.42181 0.003,-2.21122 3.3e-4,-4.42245 -0.008,-6.63364 -0.12094,-33.10306 7.41204,-61.03927 28.4969,-85.3286 0.66129,-0.82819 1.32258,-1.65639 2.00391,-2.50968 13.91045,-16.84762 33.47777,-25.36981 53.07648,-30.09717 0.78421,-0.21503 1.56843,-0.43007 2.37641,-0.65162 4.00919,-0.7373 7.96435,-0.72335 12.01475,-0.7114 z m -31.94117,39.63109 c -0.72185,0.42131 -1.4437,0.8426 -2.18742,1.27667 -17.36855,10.4474 -29.19789,27.22581 -34.88375,48.32254 -2.65644,12.244 -1.96194,24.92465 -1.90666,37.44158 9.2e-4,2.90527 4e-4,5.81054 -0.001,8.71581 -8.3e-4,7.04047 0.0131,14.08077 0.0338,21.1212 0.0233,8.19957 0.028,16.3991 0.0317,24.5987 0.007,14.61995 0.0286,29.23984 0.0593,43.85975 0.0298,14.19329 0.0527,28.38654 0.0665,42.57985 8.5e-4,0.87638 0.002,1.75276 0.003,2.65569 0.004,4.39697 0.008,8.79393 0.0123,13.19091 0.0335,36.41827 0.0908,72.83648 0.16305,109.25469 6.85175,2.55391 16.07123,-3.53945 22.42688,-6.96298 25.80837,-14.54664 50.25429,-38.49096 68.83314,-63.08195 2.42523,-3.14776 4.90916,-6.14625 7.56001,-9.05754 2.47672,-2.72688 4.82142,-5.50693 7.0875,-8.45369 12.02939,-15.57215 24.77641,-30.75687 38.81251,-44.08 0.98149,-0.96364 1.96298,-1.92727 2.97422,-2.9201 14.09383,-13.74441 29.10611,-25.99011 45.68908,-35.70415 2.07032,-1.21343 4.12494,-2.4564 6.18047,-3.70085 15.25501,-9.05503 31.57326,-15.57536 48.29625,-20.32285 0.8113,-0.23069 1.6226,-0.46138 2.45848,-0.69906 13.44201,-3.58851 26.76075,-4.73322 40.52848,-4.73014 2.62555,-0.005 5.24911,-0.0493 7.87431,-0.0949 21.91871,-0.17714 45.4158,5.13935 61.99876,22.28058 2.16,2.41535 2.16,2.41535 2.295,5.58548 -0.0446,0.94651 -0.0891,1.89303 -0.135,2.86822 -0.76013,0.2055 -1.52027,0.411 -2.30343,0.62271 -3.55777,0.97641 -7.10679,1.98824 -10.65657,3.00031 -1.1945,0.32225 -2.38899,0.64451 -3.61969,0.97652 -15.12458,4.37392 -28.5445,12.15724 -40.66032,23.1769 -0.90632,0.80174 -1.81263,1.60347 -2.74641,2.4295 -16.66813,15.63325 -27.57695,38.83038 -30.7336,62.78474 -1.7606,31.4751 3.60005,57.45802 21.60001,82.12165 0.7128,0.79706 1.4256,1.59412 2.16,2.41534 28.23413,-1.19138 54.41043,-25.28801 73.20376,-46.835 1.92802,-2.15594 3.84505,-4.10605 5.97376,-6.00062 2.64332,-2.4746 4.65241,-5.05647 6.80484,-8.04799 3.02997,-3.87491 6.62377,-7.06185 10.13766,-10.36899 0.94669,-0.92316 1.89338,-1.84631 2.86875,-2.79745 33.99585,-32.64966 72.30586,-46.81561 117.01128,-44.30173 6.0556,0.76008 11.55941,2.46378 17.28001,4.83069 1.16248,0.45146 2.32495,0.90292 3.52267,1.36807 8.43696,3.57486 17.62054,8.81571 23.47733,16.74699 -0.3375,3.24562 -0.3375,3.24562 -1.08,6.03836 -4.53783,1.61455 -8.84308,2.62802 -13.5675,3.32109 -13.04701,2.37077 -23.79546,9.22606 -33.95251,18.41699 -0.77545,0.6554 -1.5509,1.31081 -2.34983,1.98606 -10.2905,9.18323 -16.99681,22.20657 -19.25017,36.65942 -1.45641,16.63888 0.57544,30.01882 9.72,43.47616 0.4636,0.71767 0.9272,1.43534 1.40484,2.17476 15.00211,21.52618 43.54259,32.45217 66.63518,37.67839 0.67346,0.15247 1.34694,0.30494 2.04082,0.46202 18.93614,4.07985 37.98812,3.63211 57.17884,3.48017 3.52524,-0.0233 7.05042,-0.028 10.5757,-0.0322 4.21305,-0.006 8.42602,-0.0237 12.63903,-0.0416 0.79988,-0.002 1.59974,-0.005 2.42384,-0.007 2.23984,-0.008 4.47948,-0.0246 6.71926,-0.0438 1.27221,-0.008 2.54443,-0.0166 3.85521,-0.025 2.76549,0.191 2.76549,0.191 3.92733,-1.37729 0.1086,-1.88302 0.14156,-3.77157 0.14496,-5.65851 0.004,-1.2315 0.01,-2.46299 0.0146,-3.7318 -2e-4,-1.36951 -4e-4,-2.73901 -6e-4,-4.15 0.006,-2.16333 0.006,-2.16333 0.012,-4.37036 0.01,-4.02194 0.0148,-8.04383 0.0177,-12.06578 0.004,-4.33139 0.0146,-8.66275 0.024,-12.99413 0.0214,-10.47602 0.0322,-20.95204 0.0418,-31.42808 0.004,-4.93554 0.0108,-9.87109 0.0162,-14.80664 0.0184,-16.41516 0.034,-32.83033 0.0419,-49.24551 0.002,-4.26361 0.004,-8.52723 0.006,-12.79084 5.3e-4,-1.0597 10e-4,-2.11938 10e-4,-3.21119 0.009,-17.13254 0.0363,-34.26497 0.0714,-51.39747 0.0358,-17.59909 0.0552,-35.19813 0.0586,-52.79727 0.002,-9.87702 0.0117,-19.7539 0.0394,-29.63088 0.0236,-8.42053 0.0321,-16.84089 0.0216,-25.26146 -0.005,-4.29013 -0.003,-8.57988 0.0181,-12.86996 0.13738,-29.56798 -1.9245,-54.48703 -21.04951,-76.9523 -14.80458,-15.75926 -32.19405,-23.15624 -52.4708,-23.10447 -0.91045,-0.002 -1.82089,-0.005 -2.75892,-0.007 -3.05174,-0.007 -6.10342,-0.005 -9.15517,-0.004 -2.20977,-0.004 -4.41955,-0.007 -6.62933,-0.0109 -6.07364,-0.01 -12.14726,-0.0121 -18.22091,-0.0128 -6.55016,-0.002 -13.10032,-0.0109 -19.65048,-0.0195 -15.07032,-0.0173 -30.14064,-0.0243 -45.21097,-0.0298 -7.45058,-0.002 -14.90114,-0.007 -22.35171,-0.0121 -25.51457,-0.0155 -51.02915,-0.0285 -76.54373,-0.0326 -1.60106,-2.7e-4 -3.20212,-5.4e-4 -4.80317,-8.1e-4 -1.60488,-2.7e-4 -3.20975,-5.3e-4 -4.81463,-8e-4 -3.21954,-5.3e-4 -6.43908,-10e-4 -9.65862,-10e-4 -1.19738,-1.9e-4 -1.19738,-1.9e-4 -2.41896,-3.9e-4 -25.87764,-0.005 -51.75526,-0.0236 -77.63288,-0.0518 -27.37286,-0.0297 -54.74569,-0.0463 -82.11856,-0.0477 -3.00664,-2e-4 -6.01326,-4.7e-4 -9.01989,-7.7e-4 -0.7403,-6e-5 -1.4806,-1.3e-4 -2.24331,-1.9e-4 -11.89763,-10e-4 -23.79523,-0.0147 -35.69284,-0.0322 -11.96572,-0.0174 -23.93141,-0.0209 -35.89714,-0.0121 -6.47853,0.005 -12.95695,0.004 -19.43546,-0.0134 -5.93664,-0.0153 -11.87308,-0.0139 -17.80972,7.1e-4 -2.14186,0.002 -4.28374,-10e-4 -6.42558,-0.0121 -14.97656,-0.0691 -29.49916,0.41324 -43.02739,8.5356 z M 485.7849,580.88804 c -39.18482,3.76708 -73.75774,16.17861 -105.84003,42.26849 -0.9453,0.76749 -1.89059,1.53498 -2.86454,2.32573 -2.33798,1.98087 -4.60239,4.02771 -6.85546,6.12797 -1.58501,1.4618 -1.58501,1.4618 -3.20203,2.95314 -13.40723,12.4587 -25.90621,25.86219 -38.24298,39.61727 -0.56407,0.62752 -1.12813,1.25503 -1.70929,1.90155 -5.64941,6.29268 -11.18294,12.6211 -16.37281,19.39722 -4.15576,5.21842 -8.6071,10.12864 -13.02486,15.06788 -1.68574,1.88765 -3.36263,3.78477 -5.0393,5.68248 -6.9013,7.76029 -14.05211,14.90014 -21.76876,21.65553 -1.55564,1.37423 -1.55564,1.37423 -3.1427,2.77623 -19.5677,17.12608 -41.08847,29.38507 -64.89732,37.07692 -2.16194,0.79857 -4.32226,1.60267 -6.48,2.41534 -0.10113,30.05617 -0.1772,60.1123 -0.22383,90.16864 -0.0222,13.95723 -0.0525,27.91432 -0.10207,41.87146 -0.0432,12.17201 -0.071,24.34394 -0.0806,36.51605 -0.006,6.43874 -0.0187,12.8772 -0.0503,19.31584 -0.0296,6.0744 -0.0383,12.14842 -0.0319,18.2229 -0.001,2.21588 -0.01,4.43178 -0.0263,6.64757 -0.17093,23.84295 3.34852,44.41345 18.59231,62.27635 1.20912,1.3591 1.20912,1.3591 2.44266,2.7456 0.63902,0.7566 1.27803,1.5131 1.93641,2.2927 4.46195,4.8682 9.51121,8.1123 15.0061,11.2936 0.67251,0.3979 1.34502,0.7959 2.03792,1.2059 13.8134,7.6112 28.08546,7.4695 43.10044,7.414 2.23242,0 4.46484,0.012 6.69726,0.02 6.10621,0.017 12.21227,0.012 18.3185,0 6.59646,-0.01 13.19289,0.01 19.78934,0.022 12.16639,0.02 24.33273,0.022 36.49913,0.016 11.2423,-0.01 22.48456,0 33.72686,0 1.51022,10e-4 3.02042,0 4.53064,0 2.27598,0 4.55197,0 6.82796,0 21.14916,0.013 42.29832,0.019 63.44749,0.01 0.79658,-3e-4 1.59316,-7e-4 2.41388,-10e-4 6.46809,0 12.93618,-0.01 19.40427,-0.01 25.22627,-0.012 50.45244,0 75.67869,0.026 28.36789,0.032 56.73574,0.047 85.10364,0.038 3.02688,-9e-4 6.05375,0 9.08062,0 1.11788,-3e-4 1.11788,-3e-4 2.25833,-6e-4 11.23106,0 22.46209,0.01 33.69315,0.023 12.77786,0.018 25.55563,0.019 38.33349,0 6.51593,-0.011 13.03165,-0.013 19.54755,0.01 5.97181,0.017 11.94325,0.011 17.91504,-0.012 2.15331,0 4.30665,-10e-4 6.45994,0.012 22.21685,0.1211 42.48537,-4.3572 59.12706,-22.1308 17.30271,-19.256 22.06522,-40.3306 22.18489,-67.00336 0.0109,-5.13752 -0.0136,-10.27448 -0.0448,-15.41186 -0.0232,-4.54779 -0.0223,-9.09557 -0.0245,-13.64342 -0.006,-7.61188 -0.0297,-15.22352 -0.0638,-22.83531 -0.0438,-9.77921 -0.0623,-19.55828 -0.0727,-29.33759 -0.009,-8.42424 -0.0275,-16.84846 -0.0486,-25.27267 -0.004,-1.80592 -0.009,-3.61183 -0.0121,-5.41775 -0.0121,-5.91478 -0.0339,-11.82941 -0.0606,-17.74413 -0.004,-2.25164 -0.004,-2.25164 -0.009,-4.54878 -0.0116,-2.03356 -0.0116,-2.03356 -0.0234,-4.10819 -0.004,-1.18498 -0.01,-2.36996 -0.014,-3.59084 0.12039,-2.62977 0.12039,-2.62977 -1.22495,-3.86735 -1.98311,-0.13023 -3.97066,-0.17665 -5.95715,-0.19046 -1.27847,-0.0124 -2.55694,-0.0248 -3.87414,-0.0376 -1.40141,-0.008 -2.80282,-0.0176 -4.24669,-0.0267 -1.46185,-0.0157 -2.92368,-0.0324 -4.3855,-0.05 -6.20347,-0.074 -12.40694,-0.13865 -18.61064,-0.17996 -23.77526,-0.16732 -47.40724,-1.0251 -70.58841,-7.59159 -1.10766,-0.30784 -2.21532,-0.61569 -3.35655,-0.93287 -23.09604,-6.67695 -46.45325,-17.40591 -65.02097,-34.46699 -0.91467,-0.82664 -1.82934,-1.65328 -2.77172,-2.50496 -13.42087,-12.76202 -25.08485,-30.93682 -26.60793,-51.12908 -0.88774,-25.90431 4.25467,-46.59167 19.94652,-66.09051 3.20893,-3.75744 6.51082,-7.22816 10.12079,-10.49636 0.48587,-0.46703 0.97174,-0.93406 1.47234,-1.41525 0,-0.39853 0,-0.79706 0,-1.20767 -30.50705,0.72302 -58.87409,18.83927 -81.00002,41.06082 -0.94112,0.92005 -1.88224,1.84011 -2.85188,2.78803 -4.78975,4.72436 -9.34583,9.62741 -13.82063,14.7232 -5.6319,6.35977 -11.6207,11.95881 -17.8875,17.51124 -0.80051,0.76282 -1.60101,1.52563 -2.42579,2.31156 -14.15201,13.32919 -30.35767,23.27795 -47.25422,31.50323 0,1.59413 0,3.18825 0,4.83068 27.27879,26.22141 68.74782,40.03824 103.16349,48.36406 1.13106,0.27535 2.26213,0.5507 3.42747,0.8344 1.00255,0.23712 2.0051,0.47423 3.03803,0.71853 2.61991,0.78393 4.72393,1.59041 7.01104,3.22055 1.12746,3.86632 1.46367,6.1428 0.135,9.96328 -8.99986,8.28782 -27.13539,5.30993 -37.93501,4.52877 -7.3349,-0.93895 -14.46924,-2.72523 -21.60001,-4.83068 -0.75057,-0.21969 -1.50112,-0.43939 -2.27444,-0.66576 -46.49814,-14.0435 -95.88456,-48.00751 -120.79391,-94.95314 -3.37578,-6.5699 -6.22977,-13.25825 -8.69168,-20.31754 -0.41845,-1.17516 -0.41845,-1.17516 -0.84534,-2.37406 -8.42147,-24.90637 -8.08932,-59.9375 0.84534,-84.57826 0.52128,-1.44779 0.52128,-1.44779 1.0531,-2.92483 4.74309,-12.77471 10.35394,-23.94709 18.3869,-34.51298 0.76431,-1.04925 1.52862,-2.09851 2.31609,-3.17957 6.02094,-7.93366 12.77972,-13.82535 20.36392,-19.76618 -0.3564,-0.79707 -0.7128,-1.59413 -1.08,-2.41535 z"
         fill="#2ca98a"
         id="path4"
         style="fill:#5bc878;fill-opacity:1;stroke-width:1.14384;stroke-dasharray:none" /><path
         d="m 207.58187,1166.7144 c 6.49927,0 12.99856,0 19.6948,0 3.49865,9.0006 3.49865,9.0006 4.58812,13.1433 0.24545,0.9242 0.49091,1.8484 0.7438,2.8007 0.25277,0.9711 0.50555,1.9422 0.76601,2.9427 0.40384,1.53 0.40384,1.53 0.81585,3.091 0.56486,2.1434 1.12748,4.2873 1.68801,6.4317 0.85723,3.2794 1.72093,6.5572 2.58585,9.8347 0.5497,2.0891 1.09904,4.1783 1.64798,6.2676 0.25698,0.9772 0.51394,1.9543 0.77872,2.9611 0.35838,1.3722 0.35838,1.3722 0.72401,2.772 0.20928,0.7998 0.41857,1.5995 0.6342,2.4234 0.60118,2.4338 1.119,4.8757 1.61253,7.3318 0.68414,0 1.36828,0 2.07315,0 0.22564,-0.9785 0.45129,-1.957 0.68377,-2.9651 2.59039,-11.026 5.67103,-21.8794 8.97583,-32.7246 0.84983,-2.7945 1.68723,-5.5923 2.5241,-8.3904 0.54051,-1.7847 1.08172,-3.5692 1.62369,-5.3535 0.24838,-0.8332 0.49676,-1.6664 0.75266,-2.5248 1.78732,-5.8123 1.78732,-5.8123 4.09816,-8.0416 2.62373,-0.2523 5.08516,-0.3703 7.70948,-0.375 0.70618,-0.024 1.41236,-0.049 2.13994,-0.074 2.06707,-0.012 2.06707,-0.012 5.69911,0.4493 2.79112,2.8279 3.82863,5.6574 4.89004,9.3794 0.31105,1.0743 0.62212,2.1487 0.94259,3.2556 0.48609,1.7314 0.48609,1.7314 0.98199,3.4978 0.34073,1.1882 0.68144,2.3763 1.03247,3.6005 0.90126,3.1507 1.7943,6.3034 2.68383,9.4571 0.90927,3.2134 1.83174,6.4233 2.75213,9.6338 0.69516,2.436 1.38959,4.8722 2.08327,7.3086 0.33034,1.1583 0.6607,2.3166 1.00105,3.51 0.30127,1.0681 0.60252,2.1361 0.91291,3.2366 0.26683,0.9428 0.53367,1.8856 0.8086,2.8569 0.56935,2.2637 0.56935,2.2637 0.56935,4.2637 0.68414,0 1.36827,0 2.07314,0 0.11395,-0.5896 0.22791,-1.1791 0.34529,-1.7865 1.32112,-6.6214 2.98425,-13.1114 4.80516,-19.6198 0.29124,-1.0465 0.5825,-2.093 0.88256,-3.1712 0.61152,-2.1921 1.22487,-4.3837 1.83994,-6.5749 0.94243,-3.3639 1.87365,-6.7307 2.8045,-10.0976 0.59725,-2.1356 1.19514,-4.271 1.79376,-6.4063 0.27754,-1.0082 0.55509,-2.0165 0.84108,-3.0553 0.3944,-1.3928 0.3944,-1.3928 0.79678,-2.8138 0.22853,-0.8181 0.45707,-1.6362 0.69252,-2.4791 0.74693,-1.9955 0.74693,-1.9955 2.82007,-3.9955 2.97849,-0.1986 5.83444,-0.2783 8.81083,-0.25 1.22061,-0.012 1.22061,-0.012 2.4659,-0.024 6.08236,0.02 6.08236,0.02 8.41805,2.2735 -0.39971,5.2519 -1.8533,10.0985 -3.45791,15.0976 -0.36582,1.1637 -0.36582,1.1637 -0.73901,2.3508 -0.79898,2.5394 -1.60495,5.0768 -2.41119,7.6141 -1.13314,3.5862 -2.26216,7.1736 -3.38909,10.7617 -0.28805,0.9163 -0.5761,1.8326 -0.87288,2.7767 -2.02026,6.4549 -3.96018,12.9289 -5.85671,19.4186 -0.25763,0.8775 -0.51524,1.7549 -0.78065,2.659 -1.49752,5.1028 -1.49752,5.1028 -2.97178,10.2119 -0.66936,2.3388 -1.35227,4.6736 -2.03779,7.008 -0.19389,0.6939 -0.38778,1.3879 -0.58754,2.1029 -1.09476,3.6791 -1.457,4.7954 -4.88278,6.9987 -2.06579,0.227 -2.06579,0.227 -4.38517,0.1953 -0.83179,-0.01 -1.66359,-0.013 -2.52056,-0.019 -1.29578,-0.025 -1.29578,-0.025 -2.61773,-0.051 -1.31384,-0.014 -1.31384,-0.014 -2.6542,-0.027 -2.16032,-0.023 -4.32049,-0.059 -6.48057,-0.098 -3.34971,-6.6939 -5.66117,-13.4469 -7.72568,-20.5977 -0.31622,-1.0749 -0.63249,-2.1497 -0.9583,-3.2572 -0.99897,-3.4008 -1.98834,-6.8041 -2.9774,-10.2076 -0.67962,-2.3199 -1.35987,-4.6395 -2.04075,-6.959 -1.65932,-5.6576 -3.31078,-11.3172 -4.9561,-16.9785 -1.77768,3.3207 -2.96112,6.5538 -4.06124,10.1445 -0.56622,1.8366 -0.56622,1.8366 -1.14388,3.7102 -0.19732,0.6463 -0.39466,1.2926 -0.598,1.9584 -0.61496,2.0135 -1.23464,4.0255 -1.85574,6.0372 -0.84206,2.7279 -1.68272,5.4562 -2.52208,8.1848 -1.77412,5.7635 -3.56522,11.522 -5.36757,17.2774 -0.30091,0.971 -0.6018,1.9421 -0.91182,2.9426 -0.4145,1.322 -0.4145,1.322 -0.8374,2.6706 -0.23918,0.7674 -0.47837,1.5348 -0.72479,2.3255 -0.63571,1.7488 -0.63571,1.7488 -1.67229,2.7488 -3.08147,0.1802 -6.11591,0.2781 -9.19953,0.3125 -1.28875,0.043 -1.28875,0.043 -2.60356,0.088 -1.24067,0.013 -1.24067,0.013 -2.50639,0.025 -0.75881,0.015 -1.51759,0.029 -2.29939,0.044 -2.92145,-0.6699 -3.53989,-2.0804 -5.15904,-4.4699 -0.90147,-2.1774 -0.90147,-2.1774 -1.6323,-4.5679 -0.28125,-0.9049 -0.56249,-1.8098 -0.85223,-2.7421 -0.44176,-1.4669 -0.44176,-1.4669 -0.89243,-2.9635 -0.31595,-1.0241 -0.6319,-2.0483 -0.95744,-3.1035 -1.02542,-3.3303 -2.03864,-6.664 -3.05115,-9.998 -0.69777,-2.2798 -1.39624,-4.5593 -2.09541,-6.8387 -1.04459,-3.4059 -2.0885,-6.8121 -3.12887,-10.2193 -1.9784,-6.4728 -3.99542,-12.9318 -6.07271,-19.3756 -0.4467,-1.3947 -0.89331,-2.7894 -1.33973,-4.1841 -0.79735,-2.4815 -1.603,-4.9605 -2.41833,-7.4365 -0.51686,-1.6226 -0.51686,-1.6226 -1.04416,-3.2779 -0.29731,-0.9124 -0.59462,-1.8248 -0.90091,-2.7649 -0.49197,-2.528 -0.49197,-2.528 0.5446,-7.528 z"
         fill="#2ba889"
         id="path5"
         style="fill:#5bc878;fill-opacity:1;stroke-width:1.01972;stroke-dasharray:none" /><path
         id="path6"
         style="fill:#5bc878;fill-opacity:1;stroke-width:1.01972;stroke-dasharray:none"
         d="m 385.74838,1165.1377 c -4.84074,-0.1325 -9.66206,0.4243 -14.12933,1.7012 -11.7952,4.5219 -18.52863,10.7788 -24.28644,21.6055 -0.85033,2.2695 -0.85033,2.2695 0.18624,5.2695 2.12553,0.115 4.25174,0.2226 6.37935,0.293 1.32606,0.041 1.32606,0.041 2.62584,0.082 2.52075,0.1497 4.96738,0.2154 7.49082,0.1113 2.61594,-0.588 3.44648,-1.3601 5.10996,-3.3613 2.89441,-4.0468 5.74387,-5.6377 10.52765,-7.125 6.70543,-0.8336 12.14389,0.206 17.62165,4 3.29981,3.9518 3.41365,7.0153 3.1097,12 -2.78808,0.5554 -5.5768,1.0649 -8.38364,1.5254 l -3.55308,0.5605 c -2.67233,0.4301 -5.34473,0.8598 -8.01722,1.2891 -8.34516,1.3081 -16.81318,2.3339 -24.61848,5.625 -6.44286,3.7664 -10.47764,8.9984 -12.43882,16 -0.89483,6.9686 0.49576,13.9182 4.14627,20 5.31479,6.6841 12.31928,10.9706 20.88118,12.6328 10.53219,1.133 19.3511,-0.6636 28.12097,-6.4258 3.43142,-2.1866 3.43142,-2.1866 6.97254,-4.207 0,3.375 0,3.375 2.07313,9 1.94827,0.019 3.89655,0.037 5.84487,0.049 0.81019,0 1.59653,0.01 2.38291,0.014 2.79415,0.03 5.56217,0.011 8.35732,-0.062 1.03656,-1 1.0359,-0.9993 1.1884,-3.3613 0.0105,-1.0801 0.0202,-2.1295 0.0304,-3.1778 0.0137,-1.2216 0.0272,-2.4061 0.0405,-3.5918 0.009,-1.3338 0.0166,-2.6292 0.0243,-3.9238 0.0222,-3.4392 0.0425,-6.8771 0.0528,-10.3164 0.0104,-3.5971 0.0274,-7.1941 0.0689,-10.791 0.0324,-2.8019 0.0548,-5.6042 0.0627,-8.4063 0.002,-1.3495 0.006,-2.6993 0.0104,-4.0488 0.0688,-4.8281 0.0884,-9.5777 -0.44136,-14.3828 -2.47183,-9.2144 -6.62655,-16.6077 -14.64152,-22.3125 -6.61061,-3.9074 -14.73053,-6.0428 -22.79844,-6.2637 z m 16.70858,49.5762 c 1.06875,12.6971 1.06875,12.6971 -2.33228,16.9375 -6.11261,5.5501 -14.00233,9.3514 -22.41579,9.75 -3.51638,-0.2255 -6.13888,-0.6995 -9.06996,-2.625 -3.20751,-3.9901 -3.86595,-7.0712 -3.49843,-12.0625 0.99033,-3.0709 2.04498,-4.3242 4.81439,-6.082 5.06687,-2.4955 10.42831,-3.6324 15.98176,-4.668 l 2.07315,-0.3867 c 4.894,-0.8312 9.50232,-0.9697 14.44716,-0.8633 z" /><path
         id="path7"
         style="fill:#5bc878;fill-opacity:1;stroke-width:1.01972;stroke-dasharray:none"
         d="m 567.46163,1165.1826 c -4.48005,-0.1444 -9.00458,0.3936 -13.40655,1.6563 -11.89058,4.5842 -20.26673,11.5444 -26.10452,22.5664 l -1.1054,2.3086 c -2.75593,5.7125 -3.30324,11.2174 -3.41945,17.4473 -0.006,0.9108 -0.01,1.7936 -0.0143,2.6777 -0.033,4.8657 0.0908,9.4932 1.26735,14.2422 3.80749,12.2439 11.40593,21.2249 22.89764,27.6328 10.24023,4.3205 21.3652,5.8246 32.21055,2.6836 l 1.9962,-0.6836 c 4.16547,-1.4154 7.91918,-3.0451 11.54397,-5.5 6.98194,-5.5425 12.19481,-11.6979 13.33368,-20.5 -2.40585,-0.082 -4.81062,-0.1482 -7.21752,-0.1953 -1.49169,-0.028 -1.49169,-0.028 -2.95382,-0.055 -0.99191,-0.034 -1.95464,-0.068 -2.91738,-0.1016 l -2.80399,-0.039 c -0.87808,-0.022 -1.73107,-0.042 -2.58333,-0.062 -2.2561,0.4541 -2.25508,0.4531 -3.97215,2.3847 -1.72725,2.5654 -3.38319,3.4273 -6.18702,4.8184 -6.15321,2.8333 -11.53761,3.3315 -18.01037,1.25 -6.49874,-3.2313 -10.93215,-6.5497 -13.29116,-13.5098 l -0.81184,-2.6972 c -0.48502,-1.5968 -0.96786,-3.1942 -1.44552,-4.793 7.21275,0.042 14.4255,0.076 21.63835,0.098 3.67552,0.01 7.3502,0.021 11.02569,0.041 3.60247,0.022 7.2045,0.041 10.80703,0.049 2.07284,0 2.07401,0 4.10579,0.01 1.36725,0.011 2.6937,0.021 4.02075,0.031 h 3.711 c 3.27834,0.013 3.27783,0.014 5.84891,-0.2266 2.07314,-2 2.07313,-2 2.34846,-5.2305 -0.009,-1.9983 -0.009,-1.9983 -0.0161,-3.957 0.0161,-3.918 0.0161,-3.918 -0.25914,-7.8125 -2.88702,-11.6605 -8.82861,-21.2813 -18.98215,-28.3125 -6.44404,-3.841 -13.78697,-5.978 -21.2537,-6.2188 z m -1.30382,17.3711 c 3.19066,-0.1407 6.4564,0.4226 9.60042,1.7852 5.13453,2.7443 9.2178,6.9644 11.2079,12.375 0.19434,2.6875 0.19434,2.6875 0,5 -1.03658,1 -1.03633,0.9997 -4.76985,1.1133 -1.6614,-2e-4 -3.32307,-0.01 -4.98444,-0.016 -0.87281,0 -1.7468,0 -2.64606,0 -2.79903,-0.01 -5.59682,-0.019 -8.39581,-0.031 -1.89296,0 -3.78591,-0.01 -5.67886,-0.014 -4.65043,-0.011 -9.30077,-0.028 -13.95116,-0.049 -1.27855,-4.3247 -0.42461,-6.1464 1.76542,-10.0391 4.17924,-6.0963 10.83303,-9.8115 17.85244,-10.1211 z" /><path
         d="m 724.63505,1132.5269 c 1.00148,6e-4 2.00297,0 3.0348,0 7.37959,0.045 7.37959,0.045 8.56182,1.1856 0.10272,2.3316 0.13444,4.6663 0.12956,7 0.004,1.9181 0.004,1.9181 0.009,3.875 -0.13765,3.125 -0.13765,3.125 -1.17423,4.125 -3.65095,0.4602 -7.30706,0.8373 -10.96899,1.207 -3.90939,0.875 -5.24404,1.7943 -7.68923,4.793 -1.24671,2.4054 -1.14098,3.9499 -1.10135,6.625 0.01,0.8172 0.0187,1.6345 0.0283,2.4765 0.012,0.6265 0.024,1.253 0.0364,1.8985 0.58576,0.02 1.17151,0.04 1.77502,0.06 2.64809,0.095 5.29532,0.2049 7.9428,0.315 0.92197,0.031 1.84396,0.062 2.79387,0.094 0.8819,0.039 1.76378,0.077 2.67239,0.1172 0.81427,0.031 1.62852,0.063 2.46744,0.095 2.04326,0.3189 2.04326,0.3189 4.11641,2.3189 0.27533,3.1875 0.27533,3.1875 0.25913,7 0.009,1.8872 0.009,1.8872 0.0161,3.8125 -0.27535,3.1875 -0.27535,3.1875 -2.34847,5.1875 -2.04328,0.3188 -2.04328,0.3188 -4.51069,0.414 -0.8819,0.039 -1.7638,0.077 -2.67241,0.1172 -0.92198,0.031 -1.84395,0.062 -2.79386,0.094 -1.39502,0.058 -1.39502,0.058 -2.81819,0.1172 -2.29968,0.094 -4.59931,0.1799 -6.89965,0.2578 -0.009,0.8474 -0.0168,1.6949 -0.0255,2.5681 -0.0807,7.9756 -0.17116,15.9511 -0.27266,23.9265 -0.0519,4.1006 -0.0998,8.2011 -0.13925,12.3018 -0.0382,3.9553 -0.0863,7.9103 -0.14117,11.8654 -0.0192,1.5111 -0.035,3.0222 -0.0469,4.5334 -0.0174,2.1121 -0.0475,4.2236 -0.0806,6.3355 -0.0138,1.2036 -0.0277,2.4072 -0.0419,3.6472 -0.28866,2.8221 -0.28866,2.8221 -2.3618,4.8221 -2.99705,0.1718 -5.88192,0.2323 -8.8756,0.1875 -0.82244,-7e-4 -1.64488,-10e-4 -2.49223,0 -6.10844,-0.045 -6.10844,-0.045 -7.29039,-1.1856 -0.12851,-2.1467 -0.18451,-4.2974 -0.21284,-6.4475 -0.0103,-0.6731 -0.0205,-1.3463 -0.0312,-2.0398 -0.0328,-2.2347 -0.0585,-4.4693 -0.084,-6.7041 -0.0214,-1.5456 -0.0431,-3.0911 -0.0654,-4.6367 -0.0573,-4.0754 -0.10849,-8.1508 -0.15842,-12.2263 -0.0521,-4.1558 -0.10976,-8.3114 -0.16704,-12.4671 -0.1116,-8.1594 -0.21673,-16.3189 -0.31785,-24.4785 -1.44109,-0.091 -1.44109,-0.091 -2.9113,-0.1836 -1.24133,-0.084 -2.48265,-0.1675 -3.7616,-0.2538 -1.23865,-0.081 -2.47732,-0.1625 -3.75352,-0.2461 -3.04896,-0.3164 -3.04896,-0.3164 -4.08553,-1.3164 -0.10344,-2.6773 -0.14387,-5.3231 -0.12957,-8 -0.004,-0.7503 -0.009,-1.5005 -0.012,-2.2735 0.0105,-5.5999 0.0105,-5.5999 1.17828,-6.7265 2.08966,-0.2343 4.18616,-0.4134 6.28422,-0.5625 1.1451,-0.084 2.29023,-0.1676 3.47006,-0.2539 0.88589,-0.061 1.77179,-0.1212 2.68455,-0.1836 0.003,-1.039 0.006,-2.078 0.009,-3.1485 0.18563,-8.8276 0.79603,-16.0089 7.2479,-22.8515 7.8022,-6.2999 15.8486,-7.3107 25.71985,-7.1875 z"
         fill="#29a888"
         id="path8"
         style="fill:#5bc878;fill-opacity:1;stroke-width:1.01972;stroke-dasharray:none" /><path
         d="m 431.48061,1166.7144 c 3.2175,-0.087 6.43465,-0.1405 9.65303,-0.1875 0.91329,-0.025 1.82659,-0.05 2.76757,-0.076 1.31783,-0.014 1.31783,-0.014 2.66227,-0.029 1.21324,-0.024 1.21324,-0.024 2.45096,-0.048 2.78002,0.4381 3.47589,1.2777 5.27066,3.3406 0.89001,1.9927 0.89001,1.9927 1.60293,4.2934 0.27358,0.8659 0.54716,1.7317 0.82902,2.6238 0.28513,0.9374 0.57025,1.8748 0.864,2.8406 0.30544,0.9764 0.61086,1.9529 0.92553,2.9589 0.97763,3.1335 1.94139,6.2707 2.90493,9.4083 0.6402,2.0588 1.28131,4.1174 1.92332,6.1757 1.54709,4.9688 3.08017,9.9415 4.60673,14.9162 0.81978,2.6669 1.64518,5.3321 2.4721,7.9969 0.47896,1.5511 0.95777,3.1022 1.43641,4.6534 0.2188,0.7021 0.4376,1.4042 0.66301,2.1277 1.46682,4.7772 1.46682,4.7772 1.46682,7.0051 2.36093,-0.8575 2.36093,-0.8575 3.09552,-3.5745 0.35745,-1.1464 0.71488,-2.2929 1.08314,-3.4741 0.19919,-0.6309 0.39836,-1.2618 0.60357,-1.9119 0.43226,-1.3729 0.86081,-2.7469 1.28608,-4.1219 0.67271,-2.1745 1.35505,-4.346 2.03999,-6.517 1.45248,-4.6101 2.89191,-9.224 4.33052,-13.8381 1.66692,-5.342 3.33909,-10.6824 5.02163,-16.0199 0.67274,-2.1422 1.33731,-4.2867 2.00152,-6.4314 0.41196,-1.3112 0.82428,-2.6223 1.23701,-3.9333 0.35742,-1.1472 0.71486,-2.2945 1.08313,-3.4765 1.02238,-2.7014 1.02238,-2.7014 3.09553,-4.7014 2.97562,-0.1722 5.83849,-0.2323 8.81083,-0.1875 1.22062,9e-4 1.22062,9e-4 2.46589,0 6.05372,0.045 6.05372,0.045 8.41808,1.1856 -0.55555,6.9003 -2.57934,12.7807 -5.08163,19.2422 -0.40813,1.074 -0.81625,2.1481 -1.23676,3.2547 -1.3186,3.4626 -2.65002,6.9204 -3.98251,10.3781 -0.90471,2.3642 -1.80892,4.7286 -2.71266,7.0932 -2.55817,6.6825 -5.13469,13.3582 -7.71781,20.0318 -0.33142,0.8576 -0.66284,1.7152 -1.00431,2.5988 -1.74517,4.5142 -3.50391,9.0231 -5.27988,13.5262 -0.40012,1.0207 -0.80023,2.0415 -1.21245,3.0932 -0.36019,0.9 -0.72039,1.7999 -1.09149,2.7271 -0.29805,0.7478 -0.59611,1.4956 -0.9032,2.2661 -0.87435,1.7886 -0.87435,1.7886 -2.9475,3.7886 -3.5837,0.5027 -7.20186,0.4166 -10.81917,0.4375 -1.00281,0.033 -2.00564,0.066 -3.03885,0.1 -1.4441,0.011 -1.4441,0.011 -2.91738,0.021 -0.88247,0.013 -1.76495,0.027 -2.67416,0.041 -2.31836,-0.5993 -2.31836,-0.5993 -3.93622,-2.4997 -2.08562,-4.3333 -3.79474,-8.7601 -5.47615,-13.252 -0.37946,-1.0005 -0.75891,-2.001 -1.14987,-3.0318 -1.23094,-3.2492 -2.4542,-6.5011 -3.67666,-9.7533 -1.2606,-3.3421 -2.52227,-6.6838 -3.78405,-10.0255 -0.83719,-2.2177 -1.67368,-4.4357 -2.50946,-6.6539 -2.41037,-6.3894 -4.85806,-12.7634 -7.35599,-19.1214 -0.79784,-2.0436 -1.59496,-4.0875 -2.392,-6.1314 -0.72192,-1.8395 -1.4566,-3.6743 -2.19158,-5.509 -0.42223,-1.0868 -0.84447,-2.1735 -1.2795,-3.2932 -0.54655,-1.3782 -0.54655,-1.3782 -1.10414,-2.7842 -0.71572,-2.8767 -0.41348,-4.7192 0.40365,-7.5439 z"
         fill="#2ba889"
         id="path9"
         style="fill:#5bc878;fill-opacity:1;stroke-width:1.01972;stroke-dasharray:none" /><path
         d="m 807.98163,1143.5816 c 1.32084,0 1.32084,0 2.66835,0 1.38898,0.01 1.38898,0.01 2.80603,0.012 0.92598,0 1.85196,-0.01 2.80601,-0.012 0.88056,0 1.76111,0 2.66835,0 0.81308,0 1.62616,0 2.46388,0 1.90915,0.1294 1.90915,0.1294 2.94571,1.1294 0.1626,1.5595 0.25994,3.1254 0.32798,4.6914 0.0434,0.9442 0.0868,1.8885 0.1316,2.8613 0.0407,0.9932 0.0815,1.9865 0.12349,3.0098 0.0448,0.9971 0.0896,1.9942 0.13565,3.0215 0.11034,2.4718 0.21608,4.9438 0.31786,7.416 0.61172,0.02 1.22345,0.04 1.85372,0.06 2.773,0.095 5.54518,0.205 8.3176,0.315 0.96273,0.031 1.92547,0.062 2.91738,0.094 0.92531,0.039 1.85062,0.077 2.80399,0.1172 0.85225,0.031 1.7045,0.063 2.58256,0.095 2.25611,0.3189 2.25611,0.3189 5.36582,2.3189 0.37656,3.1875 0.37656,3.1875 0.32392,7 -0.004,1.2581 -0.009,2.5162 -0.012,3.8125 -0.31177,3.1875 -0.31177,3.1875 -2.38491,5.1875 -2.12197,0.303 -2.12197,0.303 -4.70099,0.3789 -0.92399,0.034 -1.84796,0.068 -2.79996,0.1035 -1.45011,0.04 -1.45011,0.04 -2.92952,0.08 -1.91265,0.06 -3.8252,0.1233 -5.73756,0.1914 -0.84992,0.024 -1.69982,0.048 -2.57548,0.072 -1.99595,-0.032 -1.99595,-0.032 -3.02442,1.1736 -0.13079,3.0206 -0.19563,6.0171 -0.21056,9.039 -0.01,1.3714 -0.01,1.3714 -0.018,2.7704 -0.0104,1.9419 -0.0166,3.8839 -0.0205,5.8258 -0.0104,2.9565 -0.0421,5.9123 -0.0749,8.8687 -0.008,1.8867 -0.0122,3.7734 -0.0161,5.6601 -0.0127,0.8795 -0.0257,1.7589 -0.0389,2.665 0.0203,5.4792 0.71928,9.3465 3.4886,14.171 3.76871,2.4238 6.00904,2.3536 10.49526,2.5625 7.02488,0.3395 7.02488,0.3395 8.16297,1.4375 0.10294,2.3107 0.13445,4.6246 0.12957,6.9375 0.004,1.9007 0.004,1.9007 0.009,3.8398 -0.13766,3.2227 -0.13766,3.2227 -1.17423,5.2227 -8.9682,2.8839 -21.64358,1.8537 -30.2103,-2 -6.15302,-3.3479 -9.9584,-7.4962 -12.32976,-13.917 -1.46396,-5.0819 -1.34431,-10.2097 -1.38859,-15.4502 -0.0264,-1.613 -0.0264,-1.613 -0.0533,-3.2586 -0.0548,-3.4163 -0.0968,-6.8327 -0.13691,-10.2492 -0.0456,-3.4379 -0.0937,-6.8757 -0.14804,-10.3135 -0.0331,-2.1356 -0.0611,-4.2712 -0.0832,-6.4069 -0.014,-0.9584 -0.028,-1.9167 -0.0423,-2.9041 -0.0104,-0.8472 -0.0196,-1.6943 -0.0298,-2.5671 0.0686,-1.94 0.0686,-1.94 -1.18662,-2.9334 -2.91092,-0.284 -5.82186,-0.4485 -8.742,-0.6211 -2.66024,-0.3789 -2.66024,-0.3789 -4.73339,-2.3789 -0.27534,-3.1875 -0.27534,-3.1875 -0.25914,-7 -0.006,-1.2581 -0.0107,-2.5163 -0.0161,-3.8125 0.27534,-3.1875 0.27534,-3.1875 2.34848,-5.1875 2.92344,-0.4141 2.92344,-0.4141 6.34898,-0.625 1.13578,-0.075 2.27155,-0.1496 3.44174,-0.2266 0.87387,-0.049 1.74773,-0.098 2.6481,-0.1484 0.026,-0.6309 0.052,-1.2619 0.0787,-1.9119 0.11984,-2.8421 0.24723,-5.6838 0.3748,-8.5256 0.0612,-1.4899 0.0612,-1.4899 0.12349,-3.0098 0.0434,-0.9442 0.0869,-1.8885 0.13161,-2.8613 0.0381,-0.8746 0.076,-1.7491 0.11513,-2.6502 0.38768,-3.7179 2.18623,-3.1693 5.62246,-3.174 z"
         fill="#2aa889"
         id="path10"
         style="fill:#5bc878;fill-opacity:1;stroke-width:1.01972;stroke-dasharray:none" /><path
         d="m 757.18978,1167.5816 c 1.32083,0 1.32083,0 2.66836,0 1.38898,0.01 1.38898,0.01 2.80601,0.012 0.92599,0 1.85198,-0.01 2.80603,-0.012 0.88056,0 1.76111,0 2.66836,0 0.81306,0 1.62615,0 2.46387,0 1.90914,0.1294 1.90914,0.1294 2.94572,1.1294 0.10961,2.6366 0.15214,5.2472 0.15056,7.8845 0.003,0.826 0.008,1.652 0.0106,2.503 0.0103,2.7445 0.0118,5.489 0.0129,8.2336 0.003,1.8995 0.008,3.799 0.0105,5.6985 0.007,3.9873 0.009,7.9746 0.008,11.9619 -9e-5,5.1194 0.0141,10.2387 0.032,15.3582 0.0115,3.9246 0.0136,7.8493 0.013,11.774 9.2e-4,1.8879 0.007,3.7758 0.0138,5.6637 0.0104,2.6363 0.008,5.2723 9.2e-4,7.9087 0.007,0.786 0.0117,1.5721 0.0177,2.3819 -0.0326,5.4037 -0.0326,5.4037 -2.3426,7.632 -2.9785,0.1986 -5.83444,0.2783 -8.81083,0.25 -1.22062,0.012 -1.22062,0.012 -2.4659,0.023 -6.08237,-0.02 -6.08237,-0.02 -8.41806,-2.2734 -0.20035,-2.7054 -0.27186,-5.3079 -0.2518,-8.0139 -0.002,-0.8278 -0.004,-1.6555 -0.007,-2.5083 -0.004,-2.744 0.008,-5.4878 0.0189,-8.2317 9.2e-4,-1.9005 0.002,-3.801 9.2e-4,-5.7014 0.002,-3.9856 0.0103,-7.971 0.0241,-11.9566 0.0177,-5.1206 0.0216,-10.2411 0.0209,-15.3617 2.8e-4,-3.9247 0.007,-7.8493 0.0135,-11.7739 0.003,-1.8888 0.006,-3.7775 0.007,-5.6663 0.002,-2.6339 0.0113,-5.2678 0.0223,-7.9017 -4.3e-4,-0.7881 -8.9e-4,-1.5761 -9.2e-4,-2.3881 0.041,-6.6216 0.041,-6.6216 5.56158,-6.6292 z"
         fill="#29a888"
         id="path11"
         style="fill:#5bc878;fill-opacity:1;stroke-width:1.01972;stroke-dasharray:none" /><path
         d="m 631.82222,1200.4365 c 1.33461,0.01 1.33461,0.01 2.69619,0.012 1.36868,0 1.36868,0 2.76502,-0.01 1.93092,0 3.86184,0 5.79273,0.011 2.96215,0.011 5.92364,10e-5 8.88575,-0.013 1.87338,0 3.74676,0 5.62014,0.01 0.88975,0 1.77949,-0.01 2.69619,-0.012 6.26503,0.048 6.26503,0.048 8.57649,2.2779 0.17799,2.7269 0.24096,5.339 0.19436,8.0625 -6.6e-4,0.7457 -9.3e-4,1.4914 -0.002,2.2597 -0.0469,5.5375 -0.0469,5.5375 -1.2289,6.6778 -3.20383,0.1011 -6.38403,0.1396 -9.58826,0.1328 -0.96239,9e-4 -1.92478,0 -2.91635,0 -2.03906,7e-4 -4.0781,0 -6.11716,-0.01 -3.13271,-0.01 -6.26525,-10e-5 -9.39796,0.01 -1.97596,-7e-4 -3.95192,0 -5.92787,0 -1.41554,0 -1.41554,0 -2.85969,0.01 -6.60941,-0.024 -6.60941,-0.024 -7.76514,-1.139 -0.1312,-2.6582 -0.19196,-5.2788 -0.19435,-7.9375 -0.0126,-0.7418 -0.0254,-1.4836 -0.0385,-2.248 -0.006,-1.9396 0.10648,-3.8787 0.23282,-5.8144 2.75801,-2.6607 4.82502,-2.2492 8.57649,-2.2779 z"
         fill="#2aa888"
         id="path12"
         style="fill:#5bc878;fill-opacity:1;stroke-width:1.01972;stroke-dasharray:none" /><path
         d="m 769.72578,1133.4019 c 3.79149,3.1473 5.60653,5.4408 6.34898,10.25 -0.72113,4.8697 -3.06194,7.8261 -6.93205,10.9375 -3.77678,1.4905 -7.15984,1.8168 -11.14311,1.125 -3.88934,-2.0151 -5.84256,-3.4547 -8.29254,-7 -0.72478,-4.7969 -0.74097,-8.7746 1.81398,-13 5.59476,-4.7977 11.48393,-5.6155 18.20474,-2.3125 z"
         fill="#2ca889"
         id="path15"
         style="fill:#5bc878;fill-opacity:1;stroke-width:1.01972;stroke-dasharray:none" /><path
         d="m 421.11493,1191.7144 c 2.07313,2 2.07313,2 2.32941,4.5495 -9.2e-4,1.0762 -0.003,2.1524 -0.004,3.2613 0.003,1.2178 0.007,2.4357 0.01,3.6905 -0.008,1.3342 -0.0148,2.6684 -0.0226,4.0026 -9.2e-4,1.3624 -0.002,2.7247 -9.2e-4,4.0871 -0.002,2.8557 -0.0104,5.7113 -0.0241,8.5669 -0.0177,3.6678 -0.0216,7.3355 -0.0207,11.0033 -2.8e-4,2.8129 -0.007,5.6258 -0.0135,8.4387 -0.003,1.3528 -0.006,2.7057 -0.007,4.0585 -0.002,1.8867 -0.0121,3.7735 -0.0223,5.6602 -0.007,1.6131 -0.007,1.6131 -0.012,3.2588 -0.13859,2.4226 -0.13859,2.4226 -1.17516,3.4226 -2.77523,0.1 -5.5177,0.1388 -8.29255,0.125 -1.16651,0.01 -1.16651,0.01 -2.35657,0.012 -5.80473,-0.01 -5.80473,-0.01 -6.97254,-1.1367 -0.0424,-1.9996 -0.0441,-4.0005 0,-6 0.34206,0 0.68414,0 1.03657,0 0,1.65 0,3.3 0,5 5.13101,0 10.26203,0 15.54852,0 0,-20.46 0,-40.92 0,-62 z"
         fill="#149d7a"
         id="path16"
         style="fill:#5bc878;fill-opacity:1;stroke-width:1.01972;stroke-dasharray:none" /><path
         d="m 350.62827,1182.7144 c 0.34209,0.66 0.68414,1.32 1.03657,2 -0.96999,2.3598 -2.00417,4.6963 -3.10969,7 2.72105,0.027 5.44183,0.047 8.16296,0.062 0.77366,0.01 1.54734,0.017 2.34443,0.025 4.21028,0.1189 4.21028,0.1189 8.15084,-1.0879 -0.34208,0.99 -0.68414,1.98 -1.03657,3 -6.15722,0 -12.31444,0 -18.65823,0 -1.03657,-3 -1.03657,-3 -0.23081,-5.043 0.39686,-0.7077 0.79371,-1.4154 1.20259,-2.1445 0.39417,-0.7155 0.78836,-1.4309 1.19448,-2.168 0.31133,-0.5427 0.62266,-1.0854 0.94343,-1.6445 z"
         fill="#149975"
         id="path18"
         style="fill:#5bc878;fill-opacity:1;stroke-width:1.01972;stroke-dasharray:none" /><path
         d="m 346.48201,1217.7144 c 1.03657,3 1.03657,3 0,6 -0.0978,1.9982 -0.13466,3.9995 -0.12957,6 -0.003,1.0518 -0.006,2.1037 -0.009,3.1875 0.01,2.8937 0.01,2.8937 1.17425,5.8125 -1.02621,-0.33 -2.05241,-0.66 -3.1097,-1 -1.96701,-7.5905 -1.48812,-13.1288 2.07313,-20 z m 2.07314,17 c 0.68414,0 1.36826,0 2.07312,0 -0.34205,0.99 -0.68412,1.98 -1.03656,3 -0.68412,0 -1.36826,0 -2.07313,0 0.34206,-0.99 0.68414,-1.98 1.03657,-3 z"
         fill="#24a381"
         id="path21"
         style="fill:#5bc878;fill-opacity:1;stroke-width:1.01972;stroke-dasharray:none" /><path
         d="m 279.10507,1203.7144 c 1.0262,0.33 2.05241,0.66 3.10972,1 -2.05241,2.97 -2.05241,2.97 -4.14629,6 -0.68414,-0.66 -1.36826,-1.32 -2.07313,-2 0.25915,-2.0625 0.25915,-2.0625 1.03656,-4 0.68414,-0.33 1.36828,-0.66 2.07314,-1 z"
         fill="#21a383"
         id="path29"
         style="fill:#50c878;fill-opacity:1;stroke-width:1.01972;stroke-dasharray:none" /></g></g></svg>
